<svg width="40" height="40" viewBox="0 0 40 40" fill="none" xmlns="http://www.w3.org/2000/svg">
<path d="M17.7517 0C17.1083 0.0316667 15.6667 0.453333 14.3067 1.095C12.9467 1.745 8.14665 4.69667 8.05332 11.9883C8.17332 18.8967 14.465 30.64 18.715 34.4133C18.715 34.4133 11.8133 22.8267 11.3167 12.725C10.8133 2.625 17.7517 0 17.7517 0ZM22.2167 0C22.2167 0 29.1483 2.625 28.6517 12.725C28.1533 22.8267 21.2533 34.4133 21.2533 34.4133C25.4983 30.64 31.7933 18.8967 31.9133 11.9883C31.8183 4.69667 27.02 1.745 25.66 1.095C24.3 0.453333 22.8583 0.0316667 22.2167 0ZM19.9167 0.0316667C19.5925 0.0284873 19.2733 0.111301 18.9917 0.271667C16.44 1.65 14.8483 6.63667 15.295 14.4333C15.6033 19.8367 16.9767 26.585 19.3317 34.4133H20.4983C22.8533 26.585 24.2317 19.8433 24.54 14.44C24.9867 6.645 23.3933 1.65 20.8417 0.271667C20.56 0.111301 20.2408 0.0284873 19.9167 0.0316667ZM11.695 1.77667C11.695 1.77667 4.23832 4.84833 5.71832 13.7083C7.19165 22.575 15.0317 32.0333 17.3617 34.0417C18.2 34.8033 7.73332 23.1283 6.71832 12.8767C6.23332 9.005 7.36832 4.71 11.695 1.77667ZM28.305 1.77667C32.63 4.71 33.765 9.005 33.28 12.8767C32.2667 23.1283 21.8 34.8033 22.6367 34.0417C24.9667 32.0333 32.8083 22.575 34.2817 13.7083C35.7617 4.84833 28.305 1.77667 28.305 1.77667ZM16.9467 36.41L17.745 40H22.0767L22.89 36.41H16.9467Z" fill="#EF3340"/>
</svg>
