<svg width="80" height="80" viewBox="0 0 80 80" fill="none" xmlns="http://www.w3.org/2000/svg">
<path fill-rule="evenodd" clip-rule="evenodd" d="M28.89 4.16667C25.9999 4.16453 23.1842 5.08242 20.8507 6.78742C18.5171 8.49241 16.7869 10.896 15.9106 13.65C15.0343 16.404 15.0574 19.3655 15.9767 22.1054C16.8959 24.8454 18.6634 27.2217 21.0233 28.89C19.2465 30.1468 17.7975 31.8119 16.798 33.7453C15.7986 35.6786 15.278 37.8236 15.28 40C15.28 44.5867 17.55 48.6467 21.03 51.11C19.1236 52.4595 17.5965 54.2769 16.5958 56.3874C15.5951 58.4978 15.1543 60.8303 15.316 63.1605C15.4776 65.4906 16.2362 67.7399 17.5188 69.692C18.8013 71.644 20.5647 73.2332 22.6392 74.3065C24.7137 75.3798 27.0295 75.9012 29.3638 75.8204C31.6982 75.7397 33.9724 75.0595 35.9678 73.8454C37.9632 72.6313 39.6125 70.9241 40.7571 68.8881C41.9017 66.8521 42.5031 64.5557 42.5033 62.22V50.54C43.9192 51.6871 45.5511 52.5382 47.3021 53.0428C49.0531 53.5474 50.8876 53.6952 52.6969 53.4775C54.5061 53.2597 56.2531 52.6809 57.8345 51.7753C59.4158 50.8697 60.7991 49.6557 61.9025 48.2055C63.0058 46.7552 63.8066 45.0981 64.2575 43.3325C64.7084 41.5669 64.8002 39.7287 64.5273 37.927C64.2544 36.1253 63.6225 34.3967 62.669 32.8438C61.7156 31.2908 60.4599 29.9452 58.9767 28.8867C61.3366 27.2183 63.1041 24.8421 64.0233 22.1021C64.9425 19.3621 64.9657 16.4007 64.0894 13.6467C63.2131 10.8926 61.4829 8.48908 59.1493 6.78409C56.8158 5.07909 54 4.16119 51.11 4.16333L28.89 4.16667ZM37.5 48.61H28.89C27.7593 48.61 26.6397 48.3873 25.5951 47.9546C24.5505 47.5219 23.6013 46.8877 22.8018 46.0882C22.0023 45.2887 21.3681 44.3395 20.9354 43.2949C20.5027 42.2503 20.28 41.1307 20.28 40C20.28 38.8693 20.5027 37.7497 20.9354 36.7051C21.3681 35.6605 22.0023 34.7113 22.8018 33.9118C23.6013 33.1123 24.5505 32.4781 25.5951 32.0454C26.6397 31.6127 27.7593 31.39 28.89 31.39H37.5V40V48.61ZM28.89 26.39H37.5V9.16667H28.89C26.606 9.16667 24.4156 10.074 22.8006 11.689C21.1856 13.304 20.2783 15.4944 20.2783 17.7783C20.2783 20.0623 21.1856 22.2527 22.8006 23.8677C24.4156 25.4827 26.606 26.39 28.89 26.39ZM59.7233 17.7767C59.7242 20.059 58.8188 22.2484 57.2062 23.8635C55.5936 25.4786 53.4057 26.3873 51.1233 26.39H42.5V9.16667H51.1133C52.244 9.16667 53.3636 9.38937 54.4082 9.82206C55.4528 10.2548 56.402 10.889 57.2015 11.6885C58.001 12.488 58.6352 13.4371 59.0679 14.4818C59.5006 15.5264 59.7233 16.646 59.7233 17.7767ZM42.5 39.99C42.5026 37.71 43.4095 35.524 45.0218 33.9118C46.634 32.2996 48.8199 31.3926 51.1 31.39H51.12C52.822 31.392 54.4853 31.8984 55.8997 32.8452C57.314 33.7921 58.4161 35.1369 59.0665 36.7097C59.7169 38.2826 59.8866 40.0129 59.5541 41.6822C59.2215 43.3514 58.4017 44.8847 57.1982 46.0882C55.9946 47.2917 54.4614 48.1115 52.7922 48.4441C51.1229 48.7766 49.3926 48.6069 47.8197 47.9565C46.2468 47.3061 44.902 46.2041 43.9552 44.7897C43.0084 43.3753 42.502 41.712 42.5 40.01V39.99ZM28.89 53.61C27.1872 53.61 25.5227 54.1149 24.1069 55.0608C22.691 56.0067 21.5875 57.3512 20.9357 58.9243C20.2839 60.4974 20.1132 62.2284 20.4452 63.8985C20.7771 65.5686 21.5968 67.1027 22.8006 68.307C24.0044 69.5113 25.5383 70.3316 27.2082 70.6642C28.8782 70.9967 30.6093 70.8267 32.1826 70.1756C33.7559 69.5244 35.1008 68.4214 36.0473 67.0059C36.9938 65.5904 37.4993 63.9261 37.5 62.2233V53.61H28.89Z" fill="#EF3340"/>
</svg>
