<svg width="240" height="239" viewBox="0 0 240 239" fill="none" xmlns="http://www.w3.org/2000/svg">
<path d="M93.4625 158.152C93.4068 157.928 93.3086 157.719 93.174 157.536C93.0393 157.353 92.8708 157.2 92.6787 157.087C92.2787 156.862 91.813 156.8 91.3724 156.916C91.1338 156.977 90.9034 157.069 90.6866 157.19C90.5555 157.25 90.4342 157.331 90.3275 157.431C89.8921 157.744 89.4775 158.089 89.0865 158.461L88.5967 158.942C88.2634 159.062 87.9614 159.262 87.7149 159.526C87.5464 159.754 87.4141 160.009 87.323 160.282C86.945 160.65 86.6252 161.079 86.3759 161.553C86.3447 161.734 86.3447 161.921 86.3759 162.102C86.3961 162.476 86.5212 162.834 86.7352 163.133C86.9408 163.402 87.2216 163.597 87.538 163.689C87.8544 163.782 88.1905 163.767 88.4987 163.648C88.6282 163.6 88.7495 163.531 88.8579 163.442C89.06 163.5 89.271 163.514 89.4786 163.485C89.6861 163.455 89.8859 163.382 90.0662 163.27C90.8643 162.756 91.6183 162.17 92.3195 161.518C92.7183 161.14 93.0597 160.7 93.3318 160.213C93.498 159.939 93.6195 159.637 93.6911 159.32C93.6877 158.919 93.61 158.522 93.4625 158.152Z" fill="#EF3340"/>
<path d="M39.3503 175.213C39.3503 173.908 39.1217 172.637 39.0891 171.366C39.075 171.002 38.9489 170.653 38.7298 170.37C38.6547 170.132 38.5103 169.924 38.317 169.776C38.1237 169.628 37.8912 169.548 37.6522 169.546C37.4394 169.551 37.2327 169.622 37.0584 169.751C36.884 169.879 36.7497 170.059 36.6724 170.267C36.5257 170.405 36.409 170.575 36.3301 170.764C36.2512 170.954 36.212 171.159 36.2153 171.366C36.2153 172.431 36.2153 173.53 36.2153 174.629C36.1838 175.167 36.1838 175.706 36.2153 176.244C36.2153 176.244 36.2153 176.416 36.2153 176.484C36.2153 176.553 36.2153 177.343 36.2153 177.755C36.2 177.823 36.2 177.894 36.2153 177.961C36.0695 178.109 35.9635 178.294 35.908 178.498C35.8525 178.702 35.8495 178.919 35.8992 179.125C35.949 179.331 36.0499 179.519 36.1914 179.671C36.333 179.822 36.5102 179.932 36.7051 179.988C36.9691 180.082 37.2435 180.139 37.5215 180.16C37.7589 180.151 37.9905 180.081 38.1957 179.955C38.4009 179.829 38.5732 179.651 38.6972 179.438C39.3223 178.134 39.5503 176.659 39.3503 175.213Z" fill="#EF3340"/>
<path d="M8.85118 232.385C8.76479 232.138 8.62093 231.917 8.43271 231.743C8.24448 231.569 8.01792 231.448 7.77355 231.389C7.35666 231.27 6.9168 231.27 6.4999 231.389C6.16269 231.497 5.83496 231.635 5.52024 231.802C5.00059 232.101 4.49884 232.434 4.01797 232.798C3.59343 233.107 3.20157 233.45 2.80969 233.794C1.91294 234.12 1.11345 234.689 0.491104 235.443C0.333326 235.602 0.208417 235.795 0.124156 236.007C0.039896 236.22 -0.00190077 236.449 0.00127576 236.679C-0.014367 237.069 0.114332 237.451 0.36045 237.744C0.605189 238.072 0.951491 238.3 1.33921 238.388C1.72693 238.476 2.13159 238.418 2.48311 238.225H2.87507C3.17193 238.297 3.48215 238.281 3.77071 238.178C4.05928 238.075 4.31467 237.889 4.5079 237.641C4.69757 237.37 4.81069 237.049 4.83438 236.713C6.4012 236.318 7.77372 235.327 8.68793 233.931C8.82199 233.702 8.90616 233.445 8.93439 233.178C8.96263 232.91 8.93418 232.64 8.85118 232.385Z" fill="#EF3340"/>
<path d="M80.9531 218.576C81.0051 218.44 81.0033 218.287 80.9482 218.152C80.8931 218.016 80.7891 217.91 80.6592 217.855C80.5293 217.8 80.3841 217.802 80.2555 217.86C80.1269 217.918 80.0254 218.027 79.9734 218.164C79.7487 217.951 79.4593 217.829 79.157 217.821H78.7325H78.5366C78.2819 217.828 78.0328 217.901 77.8108 218.033C77.5889 218.164 77.4009 218.351 77.263 218.576C76.7486 219.403 76.476 220.37 76.4792 221.358C76.4792 221.839 76.4792 222.32 76.4792 222.801C76.4971 222.926 76.4971 223.054 76.4792 223.179C76.3465 223.476 76.1938 223.763 76.022 224.038C76.032 224.129 76.032 224.221 76.022 224.312C75.6907 224.517 75.4194 224.815 75.2382 225.171C75.0781 225.476 74.9941 225.819 74.9941 226.167C74.9941 226.516 75.0781 226.858 75.2382 227.163C75.3614 227.386 75.5317 227.576 75.7357 227.719C75.9398 227.861 76.1722 227.953 76.4152 227.986C76.6581 228.019 76.9051 227.993 77.137 227.91C77.3689 227.827 77.5796 227.689 77.7528 227.507C78.0444 227.251 78.2975 226.949 78.5039 226.614C78.6829 226.453 78.8087 226.236 78.8631 225.996C79.1207 225.524 79.3393 225.03 79.5163 224.519C80.1453 223.727 80.6022 222.801 80.8551 221.805C81.0186 221.013 81.0186 220.193 80.8551 219.401C80.6919 219.229 80.8551 218.92 80.9531 218.576Z" fill="#EF3340"/>
<path d="M86.7683 105.393H85.8866C85.8072 105.151 85.6783 104.93 85.5091 104.746C85.3398 104.562 85.1343 104.42 84.9069 104.328L83.9599 104.157C83.6626 103.987 83.3362 103.882 82.9998 103.846C82.6634 103.811 82.3237 103.846 82.0004 103.95C80.3676 103.95 78.7348 104.225 77.102 104.225C76.7292 104.243 76.3767 104.408 76.1159 104.689C75.8552 104.97 75.7057 105.344 75.6978 105.737C75.6977 106.132 75.8445 106.511 76.107 106.793C76.3694 107.076 76.7266 107.239 77.102 107.248H77.8204C78.3756 109.171 80.7921 109.378 82.3923 109.275C84.0099 109.146 85.6152 108.882 87.1928 108.485C87.5361 108.375 87.8307 108.139 88.0231 107.82C88.2155 107.501 88.293 107.121 88.2416 106.747C88.1903 106.374 88.0136 106.032 87.7434 105.783C87.4731 105.535 87.1272 105.396 86.7683 105.393Z" fill="#EF3340"/>
<path d="M185.491 127.787C184.725 126.899 183.759 126.226 182.683 125.829L182.063 125.382H181.703C181.551 125.271 181.387 125.178 181.213 125.108L180.822 124.867C180.324 124.487 179.757 124.218 179.156 124.077C178.908 124.024 178.653 124.024 178.405 124.077C178.203 124.014 177.989 124.006 177.783 124.055C177.578 124.103 177.387 124.205 177.229 124.352C177.032 124.575 176.907 124.858 176.871 125.16C176.836 125.462 176.893 125.769 177.033 126.035C177.519 126.802 178.248 127.362 179.091 127.615H179.287L179.907 127.924C180.128 128.105 180.369 128.255 180.626 128.371L181.279 128.611L181.703 128.989C182.361 129.563 183.099 130.027 183.891 130.363C184.219 130.476 184.574 130.467 184.896 130.338C185.218 130.208 185.488 129.966 185.661 129.651C185.833 129.337 185.898 128.97 185.843 128.612C185.788 128.253 185.618 127.926 185.361 127.684L185.491 127.787Z" fill="#EF3340"/>
<path d="M207.726 71.6304C207.721 70.5986 207.474 69.5842 207.008 68.6764C206.863 68.4386 206.658 68.2481 206.416 68.1266C206.173 68.0052 205.903 67.9577 205.637 67.9894C205.371 68.0253 205.122 68.1419 204.919 68.325C204.715 68.5081 204.568 68.7496 204.494 69.0199C204.184 69.9559 203.965 70.9226 203.84 71.9051V72.3174C203.84 72.764 203.84 72.7639 203.84 73.2104C203.84 73.8287 203.84 74.4127 203.84 74.9966C203.84 75.2921 203.924 75.581 204.081 75.8259C204.238 76.0708 204.461 76.2606 204.722 76.3706C204.975 76.4999 205.262 76.5397 205.538 76.484C205.815 76.4283 206.067 76.2801 206.257 76.0614C206.639 75.6009 206.928 75.0632 207.106 74.4813C207.191 74.2497 207.246 74.0071 207.269 73.76C207.385 73.6501 207.484 73.5228 207.563 73.3822C207.715 72.813 207.771 72.2199 207.726 71.6304Z" fill="#EF3340"/>
<path d="M170.534 156.296C170.618 155.878 170.673 155.453 170.697 155.026C170.746 154.408 170.746 153.788 170.697 153.171C170.697 152.793 170.697 152.415 170.697 152.037V151.419C170.697 151 170.539 150.598 170.257 150.302C169.975 150.005 169.593 149.839 169.195 149.839C168.796 149.839 168.414 150.005 168.133 150.302C167.851 150.598 167.693 151 167.693 151.419C167.693 152.553 167.693 153.686 167.693 154.854C167.59 155.996 167.59 157.146 167.693 158.289V158.529C167.722 158.901 167.878 159.249 168.132 159.509C168.386 159.77 168.721 159.925 169.075 159.946C169.429 159.966 169.778 159.852 170.058 159.623C170.338 159.395 170.531 159.067 170.599 158.701V158.426C170.659 157.716 170.637 157.001 170.534 156.296Z" fill="#EF3340"/>
<path d="M234.833 87.557C234.833 87.557 234.928 87.4578 234.833 87.557V87.557Z" fill="#EF3340"/>
<path d="M239.668 94.4613C239.757 94.2688 239.804 94.0574 239.804 93.8431C239.804 93.6288 239.757 93.4174 239.668 93.2248C239.668 93.2248 239.668 92.9157 239.439 92.7783V92.5378L239.243 91.8509C239.243 91.3357 239.015 90.8204 238.851 90.3051C238.766 89.8015 238.583 89.3218 238.313 88.8962C238.044 88.4706 237.693 88.1083 237.284 87.832H237.121V87.6259C237.006 87.4344 236.847 87.2764 236.658 87.167C236.47 87.0576 236.258 87.0002 236.043 87.0002C235.828 87.0002 235.616 87.0576 235.427 87.167C235.239 87.2764 235.08 87.4344 234.965 87.6259C234.825 87.8121 234.715 88.0209 234.639 88.2442C234.574 88.5727 234.574 88.9118 234.639 89.2403C234.726 89.6166 234.869 89.976 235.063 90.3051L235.814 91.3356V91.5074C235.883 91.6274 235.959 91.7422 236.043 91.8509V92.1256C235.995 92.6855 235.995 93.2488 236.043 93.8087C236.121 94.2312 236.264 94.6375 236.467 95.0109C236.474 95.3283 236.565 95.6375 236.729 95.904C236.729 95.904 237.186 96.5223 236.892 96.1101C237.062 96.4136 237.34 96.6344 237.663 96.7244C237.987 96.8144 238.332 96.7664 238.623 96.5909C238.982 96.3817 239.262 96.0495 239.416 95.6495C239.571 95.2495 239.59 94.806 239.472 94.3927L239.668 94.4613Z" fill="#EF3340"/>
<path d="M199.009 175.266C198.958 175.094 198.873 174.935 198.761 174.799C198.649 174.663 198.511 174.553 198.356 174.476C198.09 174.391 197.806 174.391 197.539 174.476C197.279 174.524 197.039 174.656 196.854 174.854C196.55 175.283 196.287 175.744 196.07 176.228C195.899 176.431 195.746 176.649 195.613 176.88L194.829 177.636C194.724 177.781 194.652 177.949 194.618 178.128C194.584 178.306 194.589 178.49 194.633 178.667L194.437 178.976C194.208 179.285 193.98 179.56 193.784 179.869C193.586 180.188 193.432 180.535 193.327 180.899C193.268 181.184 193.293 181.481 193.398 181.751C193.503 182.021 193.683 182.251 193.915 182.411C194.156 182.54 194.428 182.589 194.696 182.553C194.964 182.516 195.215 182.394 195.417 182.205L195.711 181.827V181.655C195.711 181.655 195.711 181.655 195.874 181.655C196.037 181.655 196.364 181.002 196.592 180.693C196.821 180.384 196.886 180.247 197.05 180.006L197.278 179.663C197.67 179.113 198.095 178.563 198.454 177.98C198.837 177.32 199.082 176.582 199.172 175.816C199.15 175.624 199.094 175.437 199.009 175.266Z" fill="#EF3340"/>
<path d="M136.209 113.491C136.118 113.259 135.965 113.06 135.767 112.919C135.569 112.779 135.337 112.703 135.098 112.701C134.533 112.666 133.976 112.849 133.531 113.216L133.302 113.388H133.139C132.682 113.629 132.257 113.938 131.833 114.212H131.408C130.832 114.289 130.283 114.513 129.808 114.865C129.601 115.024 129.424 115.222 129.285 115.449C129.166 115.469 129.045 115.469 128.926 115.449C128.613 115.45 128.307 115.545 128.044 115.724C127.854 115.881 127.71 116.09 127.626 116.328C127.542 116.567 127.523 116.825 127.57 117.074C127.618 117.323 127.73 117.553 127.894 117.74C128.059 117.926 128.269 118.06 128.502 118.128C128.784 118.162 129.069 118.162 129.351 118.128C130.404 118.09 131.439 117.821 132.388 117.338C133.342 116.931 134.2 116.309 134.902 115.518C135.243 115.25 135.57 114.964 135.882 114.659C136.022 114.507 136.126 114.321 136.183 114.118C136.24 113.914 136.248 113.699 136.209 113.491Z" fill="#EF3340"/>
<path d="M147.546 106.69C147.447 106.287 147.2 105.941 146.86 105.728C146.669 105.644 146.464 105.601 146.256 105.601C146.049 105.601 145.843 105.644 145.652 105.728C145.28 105.855 144.958 106.109 144.738 106.45C144.723 106.587 144.723 106.725 144.738 106.862C144.738 106.862 144.738 107.033 144.738 107.102C144.722 107.331 144.722 107.56 144.738 107.789V107.343C144.645 107.783 144.503 108.209 144.313 108.613C144.201 108.957 144.135 109.315 144.117 109.678C144.128 110.159 144.276 110.626 144.542 111.018C144.68 111.244 144.876 111.425 145.106 111.54C145.337 111.655 145.594 111.701 145.848 111.671C146.145 111.627 146.42 111.482 146.632 111.258C146.877 111.175 147.093 111.016 147.25 110.801C147.408 110.587 147.499 110.327 147.513 110.056V109.197C147.696 108.808 147.793 108.381 147.799 107.948C147.804 107.514 147.718 107.084 147.546 106.69Z" fill="#EF3340"/>
<path d="M104.273 69.8006C104.058 69.7502 103.835 69.7502 103.62 69.8006C103.569 69.7734 103.513 69.7593 103.457 69.7593C103.4 69.7593 103.344 69.7734 103.293 69.8006H102.51C102.529 69.7217 102.529 69.639 102.51 69.5601C102.463 69.2474 102.313 68.9621 102.086 68.7546C101.859 68.5472 101.569 68.431 101.269 68.4266C100.456 68.4069 99.6481 68.5467 98.8847 68.8388L98.1336 69.0449H97.6437H97.0232C96.7114 69.0449 96.4125 69.1752 96.192 69.4071C95.9715 69.639 95.8477 69.9535 95.8477 70.2815C95.8477 70.6095 95.9715 70.9239 96.192 71.1558C96.4125 71.3877 96.7114 71.518 97.0232 71.518H97.6437H97.807C99.0211 71.6356 100.244 71.435 101.367 70.934H102.869V71.2775L102.51 72.0332C101.975 72.7727 101.606 73.63 101.432 74.5407C101.413 74.7234 101.413 74.9077 101.432 75.0903C101.41 75.2709 101.451 75.4537 101.547 75.6051C101.643 75.7566 101.788 75.8665 101.954 75.9147V76.1207C101.536 76.8781 101.364 77.7586 101.464 78.6282C101.506 78.7871 101.577 78.9357 101.674 79.0653C101.77 79.1948 101.891 79.3028 102.028 79.3828C102.164 79.4628 102.315 79.5132 102.471 79.5311C102.627 79.549 102.784 79.534 102.934 79.487C103.176 79.4025 103.387 79.2418 103.539 79.0267C103.691 78.8116 103.776 78.5526 103.783 78.2847C103.801 78.2057 103.801 78.1233 103.783 78.0443C103.783 78.0443 103.783 78.0443 103.783 77.8382C103.783 77.529 103.783 77.6321 103.783 77.8382C103.783 77.8382 103.783 78.1473 103.783 77.8382V77.6321L103.979 77.2543C104.306 76.6572 104.569 76.0235 104.763 75.3651C105.186 74.0495 105.385 72.6658 105.351 71.2775C105.389 71.1041 105.391 70.9238 105.356 70.7495C105.32 70.5753 105.248 70.4116 105.145 70.2703C105.042 70.1289 104.91 70.0135 104.759 69.9322C104.608 69.851 104.442 69.806 104.273 69.8006Z" fill="#EF3340"/>
<path d="M121.973 63.9551H121.809V63.5429C121.794 63.2567 121.679 62.9866 121.486 62.7839C121.293 62.5812 121.036 62.4601 120.764 62.4437C120.49 62.4524 120.229 62.571 120.034 62.7753C119.84 62.9796 119.727 63.2541 119.719 63.5429C119.738 64.5933 119.639 65.6425 119.425 66.6687C119.425 67.0809 119.425 67.493 119.262 67.9396C119.228 68.1671 119.228 68.399 119.262 68.6266C119.262 69.1762 119.262 69.6914 119.262 70.2066C119.271 70.5195 119.395 70.8165 119.608 71.0346C119.822 71.2527 120.107 71.3746 120.405 71.3744C120.697 71.3658 120.974 71.24 121.181 71.0229C121.387 70.8057 121.507 70.5136 121.515 70.2066C121.515 69.6227 121.515 69.0387 121.515 68.4548V67.6304V67.2869L121.711 66.6343C121.711 66.2565 121.711 65.8787 121.711 65.5008L121.874 65.2604C121.874 65.2604 122.038 65.2604 121.874 65.2604C122.039 65.274 122.202 65.2184 122.328 65.1056C122.453 64.9929 122.531 64.8324 122.544 64.6593C122.557 64.4862 122.504 64.3147 122.397 64.1827C122.29 64.0506 122.137 63.9687 121.973 63.9551Z" fill="#EF3340"/>
<path d="M71.2552 72.9227C71.1276 72.7946 70.9581 72.7231 70.7817 72.7231C70.6054 72.7231 70.4358 72.7946 70.3082 72.9227C69.9433 73.1902 69.5614 73.4312 69.1652 73.644H69.002L68.5774 73.9189C67.9419 74.3374 67.3312 74.7962 66.7487 75.2928H66.5528L66.2262 75.5333L65.4098 76.2546C65.1396 76.4791 64.9161 76.7595 64.7532 77.0786C64.5903 77.3977 64.4914 77.7485 64.4627 78.1094C64.4345 78.2568 64.4345 78.4085 64.4627 78.5559C64.4143 78.743 64.4209 78.9411 64.4814 79.1242C64.542 79.3074 64.6537 79.4669 64.802 79.582C64.9503 79.6971 65.1283 79.7624 65.3125 79.7693C65.4967 79.7762 65.6786 79.7244 65.8343 79.6207C66.3177 79.3087 66.7481 78.914 67.1079 78.4528C67.5633 78.1421 67.9802 77.773 68.3488 77.3538C69.0999 76.5981 69.7204 75.7049 70.4715 74.9149C70.5737 74.7885 70.6474 74.6395 70.6869 74.4788C70.7265 74.3182 70.731 74.1502 70.7001 73.9875L71.2226 73.541C71.2763 73.4488 71.3074 73.3441 71.3131 73.2362C71.3188 73.1282 71.2989 73.0206 71.2552 72.9227Z" fill="#EF3340"/>
<path d="M167.822 49.4395C167.943 49.3117 168.03 49.1513 168.071 48.9758C168.113 48.8002 168.108 48.616 168.058 48.4429C168.008 48.2699 167.913 48.1145 167.785 47.9936C167.657 47.8726 167.501 47.7906 167.332 47.7563C167.332 47.7563 167.332 47.516 167.332 47.4129C167.332 47.3099 167.332 47.1038 167.332 46.9664C167.332 46.6293 167.204 46.3061 166.978 46.0677C166.751 45.8294 166.444 45.6954 166.123 45.6954C165.803 45.6954 165.496 45.8294 165.269 46.0677C165.042 46.3061 164.915 46.6293 164.915 46.9664C164.915 46.9664 164.915 47.1725 164.915 46.9664V47.2411C164.865 47.525 164.865 47.816 164.915 48.0998C164.915 48.512 164.915 48.9242 164.915 49.3707C164.915 49.8173 164.915 51.0539 164.915 51.9126C164.915 52.7713 164.915 53.5614 164.915 54.3857C164.954 54.705 164.954 55.0282 164.915 55.3475C164.792 55.7954 164.715 56.2561 164.687 56.7214C164.697 56.9401 164.755 57.1533 164.857 57.3441C164.959 57.5349 165.102 57.6981 165.274 57.8206C165.464 57.9319 165.678 57.9903 165.895 57.9903C166.112 57.9903 166.326 57.9319 166.515 57.8206C167.224 57.1207 167.684 56.1878 167.822 55.1757C168.029 54.2058 168.138 53.2157 168.148 52.2217C168.164 52.0734 168.164 51.9236 168.148 51.7752C168.148 51.7752 168.148 51.5691 168.148 51.4661C168.148 51.363 168.148 51.1226 168.148 50.9165C168.131 50.6305 168.131 50.3437 168.148 50.0578C167.969 49.9028 167.852 49.6817 167.822 49.4395Z" fill="#EF3340"/>
<path d="M136.212 4.54399C136.069 4.19619 135.813 3.91265 135.491 3.74308C135.169 3.57351 134.8 3.52871 134.449 3.61656C133.917 3.78054 133.393 3.97548 132.882 4.20048C132.571 4.28281 132.265 4.38611 131.967 4.50966L130.596 5.12792H130.367H129.91C129.016 5.41398 128.16 5.81795 127.363 6.33015C126.949 6.33893 126.556 6.51545 126.263 6.82277C125.971 7.13009 125.803 7.54435 125.795 7.97888C125.766 8.14923 125.766 8.32374 125.795 8.49409C125.761 8.80659 125.83 9.12187 125.991 9.38719C126.139 9.63121 126.341 9.83375 126.58 9.97736C126.819 10.121 127.088 10.2013 127.363 10.2115C128.633 10.1834 129.877 9.82975 130.987 9.18111C131.943 8.71641 132.87 8.18865 133.763 7.60104C134.038 7.40562 134.253 7.13143 134.384 6.81103L135.494 6.26143C135.776 6.09767 136 5.84084 136.129 5.53049C136.259 5.22015 136.288 4.87351 136.212 4.54399Z" fill="#EF3340"/>
<path d="M185.783 0.179243C185.469 -0.000398056 185.101 -0.0471183 184.755 0.0486316C184.409 0.144381 184.111 0.375415 183.922 0.694507L183.628 1.07235L183.301 1.55323L182.615 2.51499L182.321 2.96149C182.057 3.21147 181.817 3.48755 181.603 3.78588C180.546 4.59079 179.676 5.63566 179.056 6.84293C178.977 6.97308 178.912 7.11115 178.86 7.2551C178.724 7.67033 178.742 8.12398 178.909 8.5262C179.076 8.92842 179.381 9.2499 179.763 9.42701C180.145 9.60411 180.576 9.62393 180.972 9.48251C181.367 9.3411 181.697 9.04877 181.897 8.66341L182.354 8.01078C182.455 7.88782 182.564 7.77303 182.681 7.66732C183.105 7.15209 183.562 6.70556 183.987 6.22467C184.509 5.6007 184.969 4.92152 185.358 4.19805C185.75 3.51108 185.979 2.72107 186.371 2.06844C186.522 1.73432 186.545 1.35198 186.436 1.00038C186.326 0.648791 186.093 0.354812 185.783 0.179243Z" fill="#EF3340"/>
<path d="M112.44 163.674C112.236 163.315 111.905 163.055 111.519 162.952C111.134 162.849 110.725 162.911 110.383 163.125C109.632 163.674 108.913 164.19 108.129 164.705C107.801 164.757 107.481 164.861 107.182 165.014L106.333 165.598C106.024 165.804 105.696 165.976 105.353 166.113C105.158 166.227 104.994 166.39 104.874 166.588C104.754 166.786 104.683 167.013 104.668 167.247C104.321 167.386 104.038 167.659 103.874 168.009C103.71 168.359 103.679 168.762 103.786 169.136C103.875 169.461 104.058 169.748 104.309 169.957C104.561 170.167 104.869 170.288 105.19 170.304H105.843C107.711 169.738 109.402 168.659 110.742 167.178C110.938 166.975 111.064 166.709 111.101 166.422L111.885 165.838C112.226 165.623 112.474 165.278 112.578 164.874C112.681 164.471 112.632 164.04 112.44 163.674Z" fill="#EF3340"/>
<path d="M218.957 10.4275C208.977 12.9584 199.234 14.8671 191.147 21.796C189.423 23.019 188.003 24.6599 187.008 26.5807C186.012 28.5014 185.47 30.6456 185.427 32.8327C185.651 34.7009 186.02 36.5465 186.532 38.3509C186.676 40.6221 187.087 42.8659 187.755 45.031C188.228 46.1927 189.017 47.5619 189.727 49.1801C189.727 49.8024 189.727 50.4663 189.727 51.0887C189.591 51.5121 189.405 51.9162 189.175 52.2919C187.773 54.1332 186.141 55.7663 184.323 57.1464C181.649 56.8023 178.935 57.1733 176.433 58.2251C173.12 60.0093 173.751 62.7477 172.094 65.818C168.998 70.5487 165.324 74.8312 161.168 78.5557C160.752 79.0602 160.471 79.6717 160.353 80.3276C160.235 80.9836 160.285 81.6607 160.497 82.2899C159.355 83.8436 158.029 85.2379 156.552 86.439C153.878 87.7809 150.877 88.2297 147.953 87.7253C144.876 87.7253 141.799 87.7253 138.762 87.7253C132.461 87.931 126.159 87.3601 119.985 86.0241C117.066 85.1528 115.409 82.7048 113.082 80.8377C111.26 79.378 109.238 78.2169 107.086 77.394C105.18 76.6161 103.137 76.2766 101.096 76.3983C99.055 76.52 97.0622 77.0999 95.2519 78.0993C92.4406 79.6104 89.4582 80.7397 86.3764 81.4601C83.2601 81.9995 80.262 81.2527 77.1457 81.4601C75.495 81.7104 73.9225 82.3619 72.553 83.363C71.1835 84.3642 70.0548 85.6873 69.2563 87.2274C68.9013 87.6838 69.6114 88.1402 69.9665 87.8083C72.2694 85.2363 75.3806 83.6294 78.7237 83.2857C81.3666 83.2857 83.8912 83.7836 86.613 83.2857C90.5545 82.1932 94.4169 80.8066 98.1709 79.1366C105.705 76.8961 110.281 82.4144 115.37 87.0614C118.534 89.2403 122.117 90.6571 125.863 91.2105C131.009 92.6642 136.312 93.4172 141.641 93.451C146.565 94.1387 151.562 93.9704 156.434 92.9531C159.187 91.7273 161.456 89.5451 162.864 86.771C162.786 87.459 162.654 88.139 162.469 88.804C162.217 89.5934 162.007 90.3968 161.838 91.2105C160.655 92.3433 159.76 93.7697 159.235 95.3596C158.722 99.1233 158.802 102.95 159.471 106.687C159.708 111.417 159.471 116.147 159.787 120.877C160.126 122.819 160.271 124.794 160.221 126.768C159.708 129.258 157.972 129.673 156.276 129.839C156.54 129.55 156.877 129.346 157.247 129.25C157.617 129.155 158.006 129.172 158.367 129.299C158.643 129.299 158.761 128.926 158.367 128.843C157.065 128.552 157.183 128.843 156.079 129.133C154.107 129.714 152.134 129.88 149.965 130.461C145.961 131.761 142.141 133.617 138.604 135.979L137.736 136.56C135.895 137.81 134.142 139.196 132.49 140.709C131.492 141.428 130.543 142.218 129.649 143.074C128.303 144.816 126.796 146.414 125.153 147.846C121.445 150.211 115.251 149.173 111.109 148.676C106.968 148.178 102.944 146.394 98.7626 145.771C94.5642 145.367 90.3319 145.89 86.3369 147.306C82.8273 148.228 79.3757 149.378 76.0018 150.75C72.4553 153.062 69.1499 155.76 66.1401 158.799C62.7477 161.33 58.4873 162.243 55.5683 165.562C54.389 167.018 53.4068 168.637 52.6493 170.375C51.0162 173.448 48.2932 175.715 45.0755 176.682C41.3597 178.776 37.7993 181.161 34.4248 183.818C31.4269 185.644 27.4822 185.146 25.076 187.967C24.9713 188.078 24.9126 188.227 24.9126 188.382C24.9126 188.538 24.9713 188.687 25.076 188.797C25.1806 188.907 25.3225 188.969 25.4704 188.969C25.6184 188.969 25.7602 188.907 25.8648 188.797C28.5078 186.391 32.9652 186.889 35.9632 184.648C37.7383 183.404 39.3163 181.868 41.0914 180.499C43.3735 179.122 45.7781 177.983 48.2707 177.097C50.9345 175.941 53.0788 173.759 54.2666 170.998C57.0279 165.562 60.5386 164.11 65.3117 161.372C69.0591 159.214 71.4654 155.397 75.134 153.074C79.6621 150.762 84.465 149.102 89.4137 148.136C98.9204 145.73 108.269 150.626 117.894 150.875C120.144 151.047 122.404 150.78 124.561 150.086C123.515 151.846 122.604 153.691 121.839 155.605C121.11 157.9 120.868 160.336 121.129 162.741C121.142 165.323 120.877 167.898 120.34 170.417C119.591 174.566 120.064 182.864 116.198 184.441C114.462 185.271 112.451 185.81 110.636 186.557C108.822 187.304 107.165 187.345 105.469 187.885C102.037 188.963 100.814 193.237 98.4471 195.685C98.0526 196.1 98.6442 196.681 99.0781 196.307C100.248 195.07 101.257 193.675 102.076 192.158C102.757 190.849 103.749 189.749 104.956 188.963C105.784 188.548 106.297 188.756 107.086 188.548C110.764 187.077 114.533 185.871 118.368 184.939C118.489 184.933 118.605 184.884 118.698 184.802C118.79 184.719 118.855 184.607 118.881 184.482C119.985 178.425 121.642 172.491 122.391 166.351C122.303 162.87 122.595 159.389 123.259 155.978C124.34 153.171 125.758 150.522 127.48 148.095C129.965 146.062 132.213 143.24 134.58 141.207C136.209 139.494 137.993 137.951 139.906 136.602C141.987 135.627 144.137 134.823 146.335 134.195C148.328 133.257 150.369 132.44 152.45 131.747C154.515 131.417 156.595 131.209 158.682 131.125C165.428 130.005 162.903 119.673 163.022 114.528C163.022 110.379 163.022 106.23 163.022 102.081C163.022 96.3968 166.177 94.4053 169.254 90.3392C172.207 85.6758 175.504 81.2641 179.116 77.145L180.615 75.7758C179.075 78.458 177.68 81.2284 176.433 84.074C175.368 87.5593 177.143 90.0073 177.656 93.368C178.303 99.5404 180.772 105.344 184.717 109.964C185.478 110.626 186.202 111.333 186.887 112.08C187.515 113.201 187.926 114.442 188.096 115.731C188.265 117.021 188.189 118.332 187.873 119.59C187.131 123.706 186.604 127.861 186.295 132.038C186.098 141.041 186.295 150.128 186.532 159.131C186.532 163.28 186.532 167.43 186.532 171.579C186.35 174.023 185.441 176.346 183.932 178.215C182.424 180.085 180.393 181.407 178.13 181.993C174.382 183.528 170.911 184.316 167.597 186.142C167.568 186.107 167.531 186.078 167.49 186.059C167.45 186.04 167.405 186.03 167.361 186.03C167.316 186.03 167.272 186.04 167.231 186.059C167.19 186.078 167.154 186.107 167.124 186.142L166.808 186.557C165.66 187.216 164.576 187.995 163.574 188.88C158.603 193.029 154.343 199.419 147.795 201.328C144.791 201.641 141.913 202.755 139.432 204.564C136.474 207.053 133.594 209.335 130.438 211.493C126.494 214.356 121.523 217.841 120.971 223.359C120.971 224.065 121.918 224.023 121.997 223.359C122.825 216.098 131.267 212.862 136.158 209.086C138.918 206.294 142.252 204.207 145.902 202.987C148.727 202.418 151.412 201.246 153.791 199.543C157.736 196.722 160.852 192.78 164.599 189.669C163.352 191.698 162.522 193.979 162.162 196.365C161.802 198.752 161.92 201.191 162.509 203.527C162.934 204.95 163.461 206.337 164.087 207.676C164.698 209.259 164.698 211.03 164.087 212.613C162.909 215.854 161.273 218.889 159.235 221.617C158.998 221.949 159.511 222.281 159.747 221.949C162.627 218.007 167.006 212.489 164.678 207.261C163.008 203.985 162.334 200.248 162.745 196.556C163.244 193.64 164.378 190.885 166.059 188.507C166.414 188.258 166.73 187.926 167.085 187.719C172.568 184.15 179.234 184.358 184.362 179.877C188.307 176.309 187.755 172.118 187.755 166.932C187.755 157.97 187.952 148.966 187.755 139.962C187.425 134.967 187.571 129.949 188.189 124.984C188.905 121.396 189.248 117.738 189.214 114.072C189.214 109.01 185.27 105.774 183.692 101.002C182.587 97.1022 182.035 93.1606 181.088 89.2604C180.634 87.9572 180.512 86.552 180.733 85.1838C180.955 83.8156 181.512 82.532 182.35 81.4601C183.141 80.0378 183.726 78.4996 184.086 76.8961C184.954 73.1204 187.202 71.3778 188.741 68.183C188.977 67.8925 189.254 67.6436 189.53 67.3532C192.092 64.7847 193.665 61.3136 193.948 57.6028C193.967 57.3959 193.967 57.1873 193.948 56.9804C194.712 56.1095 195.338 55.1149 195.802 54.0346C198.563 47.313 194.066 39.4297 198.839 33.2891C203.612 27.1484 215.052 24.9908 221.994 22.5429C223.126 21.8022 224.001 20.6999 224.493 19.3974C224.985 18.095 225.067 16.6611 224.727 15.306C224.388 13.9509 223.644 12.746 222.605 11.868C221.567 10.99 220.288 10.4851 218.957 10.4275ZM182.035 69.1373C179.116 71.8342 175.881 74.2407 173.12 77.145L171.936 78.5557L172.568 77.477C175.842 71.6267 181.64 67.9755 186.492 63.619L188.307 62.0838C186.601 64.7828 184.481 67.1662 182.035 69.1373Z" fill="#000120"/>
</svg>
