<svg width="249" height="344" viewBox="0 0 249 344" fill="none" xmlns="http://www.w3.org/2000/svg">
<path d="M50.6492 323.832C50.714 323.399 50.714 322.959 50.6492 322.526C50.6492 321.942 50.4532 321.427 50.3552 320.843V320.191V319.916C50.3714 319.607 50.3714 319.297 50.3552 318.988C50.4353 318.867 50.4783 318.724 50.4783 318.576C50.4783 318.429 50.4353 318.285 50.3552 318.164C50.33 317.581 50.0919 317.03 49.6904 316.627C49.2889 316.224 48.755 315.999 48.1999 316C47.6253 316 47.0736 316.238 46.6642 316.662C46.2548 317.086 46.0205 317.663 46.0119 318.267C46.0119 319.298 46.0119 320.294 46.0119 321.324C45.996 321.576 45.996 321.828 46.0119 322.08V324.725C46.0203 325.332 46.2536 325.912 46.6621 326.342C47.0706 326.772 47.6223 327.017 48.1999 327.026C48.6216 327.001 49.0291 326.857 49.3796 326.609C49.7302 326.362 50.0108 326.019 50.192 325.618C50.5034 325.358 50.7407 325.014 50.8777 324.622V323.832H50.6492Z" fill="#EF3340"/>
<path d="M40.9118 266.545C41.1273 266.163 41.1897 265.705 41.0857 265.274C40.9817 264.843 40.7195 264.473 40.3566 264.244H39.9647L39.083 264.038C38.6047 264.002 38.1245 264.002 37.6461 264.038C37.1902 263.987 36.7305 263.987 36.2745 264.038H35.85C35.5692 264.034 35.2911 264.097 35.0367 264.221C34.7822 264.346 34.5578 264.53 34.3805 264.759C34.2117 265.003 34.0998 265.286 34.0539 265.584C33.9776 265.927 33.9824 266.285 34.0678 266.627C34.1531 266.968 34.3165 267.282 34.5437 267.542C34.9132 267.909 35.3453 268.201 35.8174 268.4C36.4612 269.061 37.1607 269.659 37.9074 270.186C38.2271 270.373 38.5868 270.471 38.9524 270.471C39.318 270.471 39.6777 270.373 39.9974 270.186C40.311 269.992 40.5717 269.716 40.7547 269.386C40.9377 269.055 41.0367 268.68 41.0424 268.297C41.0386 267.852 40.9614 267.41 40.8138 266.992L40.9118 266.545Z" fill="#EF3340"/>
<path d="M63.9435 214.664C63.848 214.407 63.7715 214.143 63.7149 213.874C63.7972 213.501 63.7972 213.113 63.7149 212.74C63.7149 212.122 63.4537 211.538 63.3557 210.954C63.1179 209.591 62.6417 208.287 61.9514 207.107C61.7166 206.684 61.356 206.354 60.9252 206.168C60.4944 205.981 60.0174 205.949 59.5676 206.076C59.1241 206.22 58.7345 206.506 58.4534 206.894C58.1722 207.282 58.0137 207.753 58 208.24C58 209.752 58 211.298 58 212.843C58.0164 213.412 58.2384 213.952 58.6208 214.354C59.0031 214.756 59.5169 214.99 60.0574 215.007L60.6779 214.835L60.9391 215.11C61.1384 215.422 61.3566 215.721 61.5922 216.003C61.7954 216.227 62.0657 216.369 62.3573 216.407C62.649 216.444 62.944 216.374 63.1924 216.209C63.4676 216.082 63.6926 215.859 63.8294 215.577C63.9662 215.296 64.0066 214.973 63.9435 214.664Z" fill="#EF3340"/>
<path d="M119.05 238.237C119.035 237.843 118.904 237.464 118.676 237.151C118.448 236.837 118.134 236.605 117.777 236.486L116.699 236.245C116.17 236.143 115.636 236.074 115.099 236.039C114.177 235.975 113.25 236.068 112.356 236.314C111.937 236.455 111.572 236.732 111.311 237.104C111.061 237.071 110.809 237.071 110.56 237.104C110.097 237.248 109.705 237.576 109.467 238.018C109.23 238.46 109.165 238.982 109.286 239.474C109.381 239.79 109.551 240.076 109.779 240.304C110.008 240.532 110.287 240.696 110.592 240.779L111.67 241.02H111.18C111.814 241.116 112.438 241.277 113.042 241.501C113.628 241.921 114.265 242.256 114.936 242.497C115.36 242.609 115.807 242.576 116.212 242.403C116.617 242.231 116.959 241.926 117.189 241.535C117.357 241.274 117.478 240.983 117.548 240.676C117.941 240.65 118.311 240.47 118.583 240.171C118.855 239.872 119.01 239.476 119.018 239.062C119.081 238.792 119.093 238.512 119.05 238.237Z" fill="#EF3340"/>
<path d="M129.245 212.03C129.785 211.533 130.16 210.897 130.326 210.201L130.319 209.973L130.645 209.375L131.467 208.109L132.189 206.977C132.479 206.808 132.71 206.563 132.856 206.272C133.432 205.226 134.092 204.223 134.83 203.273C135.124 202.774 135.419 202.276 135.678 201.745C136.086 200.916 136.191 199.982 135.978 199.09C135.978 199.09 135.972 198.894 135.762 198.77C135.884 198.251 135.805 197.708 135.541 197.241C135.278 196.773 134.846 196.411 134.325 196.221C133.804 196.031 133.228 196.025 132.701 196.204C132.175 196.383 131.733 196.736 131.455 197.198C130.237 199.176 129.228 201.263 128.443 203.428L128.454 203.82L128.227 204.284C127.999 204.716 127.771 205.147 127.508 205.547C127.004 206.32 126.546 207.118 126.135 207.94C125.488 209.298 124.858 211.244 126.262 212.248C126.699 212.569 127.245 212.725 127.796 212.684C128.347 212.644 128.864 212.411 129.245 212.03Z" fill="#EF3340"/>
<path d="M4.71027 241.771C4.79615 241.76 4.87728 241.723 4.94427 241.666C5.01127 241.608 5.06137 241.532 5.08873 241.445C5.11609 241.359 5.1196 241.266 5.09885 241.178C5.0781 241.09 5.03396 241.009 4.97153 240.946C5.00244 240.707 5.00244 240.464 4.97153 240.225C4.95533 239.58 4.77488 238.951 4.44901 238.404C4.39379 238.295 4.31471 238.2 4.21825 238.129C4.12179 238.057 4.01068 238.01 3.89386 237.992C3.88529 237.461 3.67848 236.954 3.31807 236.581C2.95766 236.209 2.47248 236 1.96708 236C1.46421 236.009 0.98372 236.22 0.625062 236.591C0.266404 236.962 0.0570565 237.464 0.0403572 237.992C0.0403572 239.95 0.0403572 241.908 0.0403572 243.866C0.0403572 244.828 0.0403572 245.789 0.0403572 246.751C-0.0914709 247.928 0.10123 249.121 0.595513 250.186C0.748475 250.442 0.960532 250.652 1.21181 250.798C1.46309 250.944 1.74539 251.02 2.03241 251.02C2.31943 251.02 2.60178 250.944 2.85306 250.798C3.10434 250.652 3.31634 250.442 3.46931 250.186C3.94884 249.227 4.1423 248.137 4.02446 247.06C4.26654 246.894 4.46316 246.663 4.59487 246.392C4.72657 246.121 4.78882 245.819 4.77555 245.515C4.77555 244.793 4.77556 244.106 4.57962 243.385C4.38368 242.664 4.57962 242.664 4.57962 242.286C4.57962 241.908 4.57962 242.286 4.57962 242.286C4.5984 242.108 4.64246 241.934 4.71027 241.771Z" fill="#EF3340"/>
<path d="M98.2857 339.557C98.1501 338.883 97.9189 338.235 97.5999 337.633C97.4153 337.309 97.2079 336.999 96.9795 336.706C96.9795 336.156 96.7835 335.573 96.7182 335.057V335.504C96.6974 335.119 96.5971 334.744 96.4243 334.405L96.6529 334.92C96.6394 334.794 96.6394 334.668 96.6529 334.542C96.5562 334.104 96.3211 333.712 95.9861 333.432C95.651 333.152 95.2357 333 94.8078 333C94.3798 333 93.9644 333.152 93.6294 333.432C93.2943 333.712 93.0594 334.104 92.9627 334.542C92.9469 334.679 92.9469 334.817 92.9627 334.954C92.9627 334.954 92.9627 335.229 92.9627 335.366V334.954C92.5881 335.237 92.3035 335.632 92.1463 336.088C91.9512 336.876 91.9512 337.704 92.1463 338.492C92.1964 338.737 92.2619 338.978 92.3422 339.214C92.4625 339.638 92.6384 340.042 92.8647 340.416C93.3094 341.136 93.8868 341.755 94.5628 342.236C94.7946 342.624 95.0938 342.962 95.4446 343.232C95.7372 343.392 96.0619 343.475 96.3916 343.475C96.7212 343.475 97.046 343.392 97.3386 343.232C97.6439 343.121 97.9176 342.93 98.1344 342.678C98.3513 342.426 98.5044 342.12 98.5796 341.79C98.6103 341.033 98.5108 340.276 98.2857 339.557Z" fill="#EF3340"/>
<path d="M113.994 299.117C113.723 298.517 113.277 298.024 112.721 297.708C112.153 297.401 111.529 297.226 110.892 297.193C110.534 297.139 110.172 297.139 109.814 297.193H109.618H108.998C108.741 297.037 108.443 296.973 108.149 297.01C107.854 297.047 107.579 297.184 107.365 297.399C107.169 297.63 107.045 297.918 107.01 298.226C106.975 298.533 107.031 298.844 107.169 299.117C107.316 299.294 107.48 299.455 107.659 299.598C107.916 299.873 108.228 300.084 108.573 300.216C109.227 301.132 109.971 301.973 110.794 302.723C111.109 303.046 111.53 303.23 111.97 303.239C112.411 303.237 112.834 303.052 113.145 302.723C113.352 302.483 113.488 302.185 113.537 301.865C113.676 301.802 113.801 301.708 113.903 301.589C114.004 301.471 114.08 301.33 114.125 301.178C114.338 300.499 114.291 299.76 113.994 299.117Z" fill="#EF3340"/>
<path d="M68.2046 104.232C68.0882 103.932 67.8962 103.671 67.6494 103.476L66.1472 102.412L65.2329 101.759C65.0179 101.43 64.7656 101.13 64.4817 100.866C64.2556 100.631 63.9505 100.499 63.6326 100.499C63.3148 100.499 63.0098 100.631 62.7836 100.866C62.6776 101.014 62.5898 101.176 62.5223 101.347C62.3306 101.396 62.152 101.49 61.9998 101.622C61.809 101.82 61.6735 102.069 61.6079 102.343C61.4608 102.729 61.4608 103.159 61.6079 103.545L61.8692 103.854C62.181 104.239 62.5439 104.575 62.9469 104.85L63.6 105.16L63.8285 105.331C64.4411 105.762 65.0855 106.141 65.7554 106.465C66.1487 106.674 66.5982 106.734 67.0289 106.637C67.1262 106.654 67.2255 106.654 67.3228 106.637C67.5859 106.629 67.8401 106.535 68.0506 106.369C68.2612 106.203 68.4176 105.973 68.4985 105.709C68.6009 105.461 68.6277 105.186 68.575 104.921C68.5224 104.657 68.393 104.416 68.2046 104.232Z" fill="#EF3340"/>
<path d="M75.4333 256.767C75.3738 255.746 75.1065 254.751 74.6496 253.848C74.6648 253.63 74.6648 253.412 74.6496 253.195C74.6496 253.195 74.6496 253.195 74.6496 253.023C74.5519 252.136 74.3319 251.268 73.9965 250.447C73.5742 249.342 72.9148 248.354 72.0697 247.562C71.9976 247.435 71.8966 247.328 71.7758 247.253C71.4942 247.085 71.176 246.998 70.8526 247C70.5292 247.002 70.2118 247.092 69.9317 247.262C69.6515 247.432 69.4182 247.675 69.2549 247.969C69.0915 248.262 69.0037 248.596 69 248.936C69.2393 250.858 69.7455 252.733 70.5022 254.5C70.8251 255.369 71.1958 256.218 71.6125 257.042C71.6125 257.248 71.6125 257.454 71.8738 257.626V258.107C71.8738 258.107 71.8738 258.485 71.8738 258.553C71.8694 258.812 71.9145 259.068 72.0064 259.308C72.0984 259.548 72.2354 259.765 72.4091 259.948C72.5829 260.131 72.7899 260.275 73.0177 260.372C73.2455 260.468 73.4895 260.516 73.7352 260.511C74.2263 260.502 74.6949 260.293 75.0421 259.928C75.3894 259.563 75.5882 259.07 75.5966 258.553C75.5917 257.954 75.537 257.356 75.4333 256.767Z" fill="#EF3340"/>
<path d="M27.8146 165.446C27.881 165.164 27.881 164.869 27.8146 164.587C27.737 164.143 27.5937 163.714 27.39 163.317C27.1203 162.103 26.4775 161.016 25.5613 160.225C25.3054 159.796 24.9726 159.422 24.5815 159.126C24.3611 159.009 24.1098 158.972 23.8672 159.022C23.6247 159.071 23.4049 159.205 23.2426 159.401C23.0858 159.598 23 159.848 23 160.105C23 160.362 23.0858 160.611 23.2426 160.809V161.015C23.2426 161.015 23.2426 161.015 23.2426 161.221C23.2426 161.427 23.2426 161.427 23.2426 161.53V161.84C23.2426 161.565 23.2426 161.633 23.2426 161.84C23.215 163.045 23.5092 164.235 24.0917 165.274C24.296 165.632 24.5657 165.944 24.8852 166.192C25.2047 166.439 25.5676 166.618 25.9531 166.717L26.3777 166.889H26.6063L27.4553 167.37C27.555 167.426 27.668 167.45 27.7807 167.44C27.8934 167.431 28.001 167.387 28.0906 167.314C28.1802 167.242 28.248 167.144 28.286 167.032C28.3239 166.92 28.3303 166.799 28.3044 166.683C28.227 166.238 28.06 165.817 27.8146 165.446Z" fill="#EF3340"/>
<path d="M64.2522 143.669C60.7393 143.262 57.2164 144.337 54.4553 146.657C54.2399 146.889 54.1014 147.189 54.0602 147.51C54.019 147.832 54.0774 148.159 54.2267 148.443C54.378 148.733 54.6197 148.96 54.911 149.085C55.2024 149.21 55.5257 149.226 55.8269 149.13H56.1535L56.8392 148.821C57.3721 148.855 57.9065 148.855 58.4394 148.821C58.9615 148.748 59.4756 148.621 59.9742 148.443L60.856 148.065L61.4764 147.756C61.7021 147.719 61.9219 147.65 62.1296 147.55C62.3468 147.423 62.5103 147.215 62.5868 146.966H64.089C64.4614 146.966 64.8186 146.811 65.0819 146.534C65.3453 146.257 65.4932 145.881 65.4932 145.489C65.5305 145.283 65.5277 145.072 65.4848 144.867C65.442 144.662 65.36 144.469 65.244 144.299C65.1279 144.129 64.9801 143.985 64.8096 143.877C64.6392 143.768 64.4495 143.697 64.2522 143.669Z" fill="#EF3340"/>
<path d="M173.023 272.851C173.442 272.42 173.707 271.85 173.774 271.237C173.765 270.905 173.634 270.591 173.408 270.36C173.183 270.129 172.88 270 172.565 270C171.847 270 171.161 270.687 170.671 271.168L169.626 272.301C169.3 272.679 168.94 273.091 168.581 273.435C168.222 273.778 167.83 274.191 167.438 274.568C167.156 274.912 167 275.351 167 275.805C167 276.259 167.156 276.698 167.438 277.042C167.695 277.415 168.074 277.675 168.503 277.77C168.932 277.865 169.379 277.789 169.757 277.557L171.161 276.595C171.526 276.347 171.866 276.059 172.173 275.736L172.663 275.084C172.848 274.789 172.939 274.44 172.925 274.088C172.94 273.962 172.94 273.835 172.925 273.71V273.366C173.08 273.09 173.254 272.825 173.447 272.576L173.023 272.851Z" fill="#EF3340"/>
<path d="M158.738 147.975C158.628 147.738 158.456 147.537 158.242 147.398C158.028 147.258 157.781 147.184 157.53 147.185C157.53 147.185 157.726 147.185 157.53 147.185H157.203L156.485 146.945H156.158L155.44 146.533L153.84 145.64L153.121 145.227L152.533 144.953C152.533 144.953 152.076 144.781 152.337 144.953C152.165 144.921 151.988 144.921 151.815 144.953L150.803 144.128C150.644 144.04 150.466 143.996 150.287 144C150.107 144.005 149.932 144.058 149.778 144.155C149.624 144.251 149.496 144.388 149.406 144.552C149.317 144.716 149.269 144.901 149.268 145.09C149.056 144.936 148.815 144.832 148.561 144.784C148.308 144.737 148.048 144.748 147.798 144.815C146.329 145.124 146.198 146.739 146.165 148.01C146.133 149.281 146.165 151.445 146.002 152.99C145.984 153.397 146.087 153.799 146.296 154.141C146.506 154.483 146.811 154.748 147.17 154.899C147.529 155.05 147.924 155.08 148.3 154.984C148.676 154.888 149.014 154.672 149.268 154.364C149.492 154.101 149.689 153.813 149.855 153.505C150.039 153.28 150.163 153.008 150.215 152.715C150.422 152.06 150.542 151.378 150.574 150.689C150.574 149.761 150.574 148.834 150.574 147.872C150.365 147.642 150.212 147.364 150.127 147.059C150.042 146.754 150.027 146.432 150.084 146.12L150.705 146.773C150.801 147.067 150.999 147.313 151.26 147.46L151.75 147.838C151.861 147.972 151.981 148.099 152.109 148.216C153.074 149.17 154.293 149.793 155.603 150.002C155.722 150.022 155.843 150.022 155.962 150.002C156.322 150.002 156.648 150.174 157.007 150.208C157.329 150.264 157.659 150.248 157.975 150.159C158.29 150.07 158.584 149.911 158.836 149.693C158.953 149.582 159.045 149.445 159.105 149.292C159.164 149.139 159.19 148.974 159.181 148.809C159.172 148.644 159.127 148.483 159.05 148.339C158.973 148.195 158.867 148.07 158.738 147.975Z" fill="#EF3340"/>
<path d="M209.793 198.661C209.745 198.532 209.67 198.415 209.574 198.32C209.478 198.225 209.363 198.154 209.237 198.112C209.156 197.914 209.033 197.738 208.878 197.597C208.631 197.367 208.342 197.192 208.029 197.081C207.779 197.003 207.516 196.981 207.257 197.016C206.998 197.052 206.75 197.144 206.527 197.287C205.637 197.776 204.967 198.616 204.666 199.623C204.47 200.104 204.339 200.585 204.176 201.066C203.881 201.25 203.644 201.52 203.494 201.843C203.343 202.167 203.285 202.529 203.327 202.886C203.134 203.318 203.023 203.784 203 204.26V204.81C203.059 205.069 203.183 205.306 203.359 205.497C203.613 205.854 203.967 206.118 204.372 206.253C204.791 206.357 205.231 206.32 205.629 206.148C206.028 205.975 206.364 205.675 206.592 205.291L206.952 204.741C206.966 204.604 206.966 204.466 206.952 204.329C207.213 203.967 207.453 203.589 207.67 203.195C208.027 202.488 208.333 201.753 208.584 200.997C208.747 200.58 208.944 200.177 209.172 199.795H209.368C209.548 199.682 209.687 199.51 209.764 199.304C209.841 199.099 209.851 198.873 209.793 198.661Z" fill="#EF3340"/>
<path d="M181.883 80.3426C180.772 80.1021 179.662 79.7243 178.617 79.4152C177.974 79.2284 177.319 79.0906 176.658 79.0029H175.776C175.469 78.9847 175.163 79.0512 174.888 79.1958C174.613 79.3404 174.379 79.5581 174.208 79.8273C174.171 79.9968 174.171 80.1731 174.208 80.3426C173.871 80.3926 173.562 80.57 173.34 80.8418C173.117 81.1135 172.997 81.4611 173 81.8196C173.008 82.2268 173.166 82.6148 173.44 82.9028C173.713 83.1908 174.083 83.3565 174.47 83.3653C175.678 83.3653 176.886 83.3653 178.094 83.3653H181.687C182.053 83.3686 182.409 83.2307 182.685 82.9776C182.962 82.7245 183.141 82.3737 183.189 81.9913C183.209 81.594 183.085 81.2035 182.843 80.8979C182.601 80.5922 182.258 80.3939 181.883 80.3426Z" fill="#EF3340"/>
<path d="M108.989 168.627C109.128 168.449 109.203 168.226 109.203 167.996C109.203 167.766 109.128 167.543 108.989 167.365C108.851 167.187 108.658 167.065 108.444 167.02C108.23 166.974 108.007 167.008 107.814 167.115H107.618H107.291C106.929 167.051 106.557 167.132 106.249 167.342C105.941 167.552 105.718 167.875 105.626 168.249C105.626 168.249 105.626 168.524 105.626 168.661C105.577 169.037 105.577 169.419 105.626 169.795C105.626 170.173 105.626 170.55 105.626 170.894C105.364 172.027 104.548 173.092 105.332 174.329C105.455 174.531 105.618 174.703 105.809 174.833C106.001 174.963 106.217 175.049 106.442 175.084C106.66 175.113 106.881 175.091 107.09 175.019C107.298 174.948 107.49 174.83 107.65 174.672C107.764 174.587 107.864 174.483 107.944 174.363C108.134 174.237 108.292 174.066 108.406 173.863C108.519 173.659 108.585 173.431 108.597 173.195V172.749C108.76 172.295 108.869 171.822 108.924 171.34C108.989 170.655 108.989 169.965 108.924 169.279V168.97L108.989 168.627Z" fill="#EF3340"/>
<path d="M211.132 163.342C211.132 163.342 211.29 163.242 211.132 163.342V163.342Z" fill="#EF3340"/>
<path d="M213.383 160.115C212.683 159.962 211.96 159.962 211.26 160.115L210.607 160.39C210.276 160.199 209.895 160.122 209.52 160.171C209.144 160.221 208.794 160.393 208.517 160.665L208.223 160.871L207.537 161.283H207.374H207.178L206.394 161.558C206.035 161.661 205.712 161.874 205.467 162.17C205.222 162.465 205.065 162.83 205.016 163.219C204.967 163.608 205.029 164.003 205.193 164.355C205.356 164.707 205.615 165.001 205.937 165.199C206.384 165.426 206.89 165.486 207.374 165.371C207.515 165.39 207.658 165.39 207.799 165.371L208.19 165.199C208.662 165.11 209.115 164.935 209.529 164.684C209.945 164.44 210.311 164.113 210.607 163.722L211.162 163.275L211.881 162.726L212.24 162.52H212.403L213.285 162.245C213.503 162.19 213.697 162.057 213.834 161.87C213.971 161.682 214.042 161.451 214.036 161.214C214.057 160.981 214.005 160.747 213.887 160.548C213.769 160.35 213.592 160.197 213.383 160.115Z" fill="#EF3340"/>
<path d="M6.08601 188.35C5.89331 188.203 5.66884 188.109 5.43284 188.075C5.12439 187.975 4.79422 187.975 4.48577 188.075C3.76782 188.464 3.15963 189.044 2.72229 189.758C2.43201 190.125 2.16996 190.516 1.93857 190.926H1.57939C1.3503 190.963 1.13187 191.054 0.939874 191.19C0.747878 191.327 0.587104 191.507 0.46908 191.716C0.379277 191.893 0.302818 192.077 0.24046 192.266C0.0137054 192.744 -0.0552271 193.288 0.044529 193.812C0.124464 194.169 0.245027 194.515 0.403703 194.842C0.536678 195.084 0.720726 195.29 0.941568 195.445C1.16241 195.6 1.41418 195.699 1.67736 195.735C1.9123 195.851 2.16871 195.912 2.42839 195.912C2.68807 195.912 2.94458 195.851 3.17953 195.735C3.24623 195.635 3.32289 195.543 3.40815 195.46C4.26612 194.843 4.97148 194.018 5.46553 193.056C5.9796 192.124 6.41661 191.147 6.77177 190.136C6.85416 189.868 6.85416 189.58 6.77177 189.312C6.73203 189.108 6.64986 188.916 6.53129 188.75C6.41272 188.584 6.26072 188.447 6.08601 188.35Z" fill="#EF3340"/>
<path d="M115.678 91.641C115.8 91.3185 115.849 90.9704 115.82 90.6246C115.792 90.2788 115.688 89.9447 115.515 89.6488C115.365 89.4362 115.146 89.2879 114.9 89.2311C114.654 89.1743 114.397 89.2128 114.176 89.3397C113.958 89.3387 113.744 89.398 113.556 89.5114C113.444 89.3982 113.324 89.2949 113.196 89.2023C112.915 89.0338 112.588 88.9678 112.267 89.0147C111.946 89.0616 111.649 89.2187 111.422 89.4616C111.195 89.7045 111.05 90.0196 111.011 90.3578C110.972 90.6961 111.039 91.0385 111.204 91.3319L111.466 91.7441C111.455 91.8238 111.455 91.9048 111.466 91.9845V92.1906V92.3967C111.455 92.5339 111.455 92.6717 111.466 92.8089C111.451 92.9573 111.451 93.107 111.466 93.2554C111.431 94.2341 111.564 95.2114 111.857 96.1407C111.947 96.3334 112.069 96.5079 112.217 96.656C112.216 97.5467 112.314 98.4344 112.511 99.3009C112.616 99.7213 112.747 100.134 112.902 100.537C113.119 101.072 113.483 101.527 113.947 101.843C114.601 102.392 115.45 101.637 115.482 100.915C115.548 100.448 115.548 99.9738 115.482 99.507C115.448 99.1988 115.448 98.8876 115.482 98.5795C115.433 97.7445 115.433 96.9071 115.482 96.0721C115.501 95.9584 115.501 95.8422 115.482 95.7286V95.5568C115.781 94.276 115.847 92.9477 115.678 91.641Z" fill="#EF3340"/>
<path d="M150.388 108.879C150.254 108.444 150.02 108.05 149.707 107.732C149.393 107.415 149.01 107.183 148.592 107.059C148.173 106.97 147.741 106.982 147.328 107.095C146.915 107.208 146.532 107.419 146.208 107.711C145.335 108.389 144.612 109.256 144.085 110.253C143.857 110.665 143.693 111.077 143.497 111.489L143.073 112.52V112.829C142.976 113.177 142.976 113.546 143.073 113.894C143.192 114.315 143.431 114.687 143.759 114.959C144.092 115.241 144.506 115.398 144.934 115.405C145.451 115.398 145.944 115.175 146.306 114.787C146.498 114.558 146.663 114.304 146.796 114.031L146.992 113.653L147.775 113.07C148.073 112.967 148.358 112.829 148.624 112.657C148.99 112.436 149.33 112.171 149.637 111.867C149.961 111.56 150.236 111.201 150.453 110.803C150.641 110.172 150.618 109.493 150.388 108.879Z" fill="#EF3340"/>
<path d="M172.665 224.362C172.296 224.125 171.873 224 171.441 224C171.009 224 170.585 224.125 170.216 224.362C170.006 224.515 169.809 224.687 169.628 224.877C169.302 224.861 168.977 224.938 168.689 225.102C168.401 225.265 168.161 225.508 167.995 225.805C167.603 226.423 167.212 227.041 166.852 227.659C166.493 228.278 166.493 228.553 166.297 229.033C166.202 229.219 166.125 229.415 166.069 229.617C166.055 229.743 166.055 229.87 166.069 229.995C166.004 230.234 165.985 230.484 166.012 230.731C166.039 230.978 166.113 231.217 166.228 231.434C166.343 231.651 166.498 231.842 166.684 231.996C166.869 232.15 167.082 232.264 167.309 232.331C167.573 232.402 167.849 232.408 168.115 232.349C168.382 232.289 168.631 232.165 168.844 231.987C168.844 231.987 169.073 231.987 169.171 231.987C169.444 231.774 169.695 231.532 169.922 231.266C170.065 231.076 170.186 230.868 170.281 230.648C170.494 230.214 170.679 229.767 170.836 229.308C171.098 228.621 171.294 227.969 171.522 227.282C171.557 227.1 171.557 226.913 171.522 226.732L171.751 226.492H171.947C172.215 226.592 172.511 226.576 172.768 226.447C173.025 226.318 173.223 226.087 173.318 225.805C173.414 225.522 173.398 225.212 173.276 224.941C173.153 224.67 172.934 224.462 172.665 224.362Z" fill="#EF3340"/>
<path d="M9.17172 300.239C8.86553 299.142 8.278 298.156 7.47362 297.388C7.30566 297.223 7.10098 297.105 6.87845 297.045C6.65591 296.985 6.42261 296.985 6.19996 297.044C5.98274 297.111 5.78501 297.233 5.62512 297.401C5.46523 297.57 5.34838 297.778 5.28558 298.006C5.1484 298.511 5.0609 299.029 5.02437 299.552C4.99188 300.135 4.99188 300.72 5.02437 301.304C4.99286 301.692 4.99286 302.083 5.02437 302.472C5.09413 302.821 5.21528 303.157 5.38355 303.468C5.48619 303.834 5.69609 304.158 5.9833 304.392C6.27052 304.626 6.62054 304.76 6.98379 304.773C7.16431 304.775 7.34125 304.72 7.49235 304.616C7.64345 304.512 7.76187 304.364 7.83279 304.189C8.12238 304.197 8.40371 304.086 8.61661 303.88C9 303.375 9.25263 302.774 9.34991 302.136C9.4472 301.498 9.38577 300.845 9.17172 300.239Z" fill="#EF3340"/>
<path d="M248.922 5.49215C248.846 4.57669 248.572 3.69173 248.12 2.90517C247.668 2.11862 247.051 1.45138 246.316 0.954645C245.581 0.457914 244.747 0.144908 243.88 0.0396222C243.012 -0.0656632 242.132 0.0395472 241.309 0.347247C238.725 1.66757 236.62 3.8379 235.313 6.52943C234.721 7.23739 234.193 8.00131 233.735 8.81145C232.234 11.9667 230.561 15.0282 228.725 17.9809C226.753 20.8023 224.781 23.6237 222.848 26.5696C222.138 27.1505 221.467 27.7728 220.757 28.2707C216.812 31.0921 214.959 35.0753 211.369 38.0626C208.164 40.353 205.316 43.1524 202.927 46.3608C197.547 48.0399 192.552 50.8644 188.253 54.659C185.679 57.1257 182.38 58.5901 178.904 58.8081C176.134 58.8488 173.368 59.0566 170.62 59.4305C166.202 59.7209 161.942 56.4846 157.879 54.8664C155.046 53.5468 152.149 52.3834 149.201 51.3812C146.475 50.9319 143.711 50.7928 140.956 50.9663C137.564 50.9663 134.842 49.1407 131.568 48.8502C126.795 48.4768 123.402 52.4184 119.734 54.9909C117.13 56.775 114.093 57.2729 111.489 59.14C109.008 61.442 106.281 63.4331 103.363 65.0732C102.89 65.0732 103.048 66.1935 103.6 66.069C107.9 65.1977 110.582 60.7167 114.566 58.9326C116.809 58.1053 118.964 57.0345 120.996 55.7378C123.215 53.7151 125.716 52.0637 128.412 50.8418C131.16 50.2987 134.002 50.7216 136.499 52.0451C139.272 52.5905 142.081 52.9096 144.901 52.9993C151.489 53.9121 158.195 58.3102 164.112 61.2975C168.964 63.787 173.934 62.9157 179.022 64.2434C181.112 64.6165 183.253 64.5053 185.297 63.9177C187.341 63.33 189.238 62.2801 190.856 60.8411C194.288 58.5176 197.168 55.8622 200.56 53.8291C200.212 56.9077 200.278 60.0226 200.758 63.0817C201.968 68.7121 201.183 74.6138 198.549 79.6781C195.748 85.2794 193.302 91.0881 190.383 96.6064C189.057 98.779 187.581 100.845 185.965 102.789C184.903 104.763 184.207 106.931 183.914 109.178C183.914 109.884 183.48 110.63 183.243 111.336C181.77 113.855 180.541 116.524 179.575 119.302L179.338 120.049C178.704 120.92 177.864 121.6 176.902 122.022C175.94 122.445 174.889 122.594 173.855 122.455C166.021 122.286 158.228 123.695 150.897 126.604C150.345 126.314 149.753 126.065 149.201 125.733C142.303 122.291 134.817 120.344 127.189 120.007C119.813 119.136 116.736 122.663 112.791 128.803C112.306 129.924 111.606 130.926 110.736 131.749C109.865 132.573 108.843 133.198 107.733 133.588C106.623 133.977 105.448 134.121 104.282 134.012C103.116 133.903 101.984 133.542 100.957 132.953C97.5347 131.841 93.9995 131.159 90.4249 130.919C90.2987 130.955 90.187 131.033 90.1074 131.141C90.0278 131.25 89.9846 131.384 89.9846 131.521C89.9846 131.658 90.0278 131.792 90.1074 131.901C90.187 132.009 90.2987 132.088 90.4249 132.123C93.7136 132.988 96.932 134.125 100.05 135.525C102.101 136.757 104.397 137.467 106.756 137.599C111.45 137.351 114.211 133.45 116.578 129.301C117.383 127.508 118.674 126.004 120.287 124.978C121.901 123.953 123.767 123.45 125.651 123.534C129.023 123.889 132.369 124.471 135.67 125.277C139.248 125.614 142.757 126.509 146.084 127.932L146.558 128.223L143.362 129.384C139.473 130.252 135.916 132.317 133.146 135.317C132.306 136.622 131.592 138.012 131.016 139.467C129.526 142.171 127.62 144.597 125.375 146.645C121.627 150.794 121.667 156.602 115.907 158.843C110.148 161.083 104.073 158.843 98.4326 158.428C93.0885 157.894 87.7001 158.131 82.4172 159.133C79.7175 160.079 77.0817 161.216 74.5278 162.536C72.3188 163.448 69.9519 163.158 67.7035 163.863C64.5083 164.859 61.6287 166.311 58.2757 167.017C55.9239 167.385 53.6452 168.156 51.5302 169.299C46.6964 171.891 42.1574 175.05 38 178.717C41.9592 175.694 46.171 173.056 50.5835 170.834C55.475 167.929 61.392 167.722 66.6384 165.772C69.0052 164.859 71.3326 165.067 73.7388 164.403C75.7 163.62 77.6221 162.734 79.498 161.747C85.5469 159.932 91.8943 159.493 98.1169 160.461C106.006 160.876 116.026 164.859 122.14 157.308C123.217 155.823 124.069 154.171 124.665 152.412C126.067 149.823 127.944 147.552 130.187 145.732C133.264 142.703 135.118 137.973 138.944 136.064C143.595 134.063 148.435 132.589 153.382 131.666H153.619C159.77 133.573 166.194 134.318 172.593 133.865C174.408 133.962 176.213 133.533 177.812 132.626C179.412 131.719 180.745 130.368 181.665 128.72C181.665 129.177 181.429 129.55 181.35 130.007C180.166 136.521 181.35 146.105 176.932 151.25C175.03 153.257 173.301 155.437 171.764 157.764C169.984 160.467 167.545 162.617 164.703 163.988C160.491 166.731 157.186 170.773 155.236 175.564C155.188 175.688 155.184 175.827 155.222 175.955C155.26 176.083 155.34 176.193 155.447 176.266C155.554 176.34 155.682 176.372 155.809 176.357C155.936 176.343 156.054 176.282 156.143 176.186C157.935 173.581 159.885 171.1 161.981 168.759C164.013 166.92 166.284 165.397 168.727 164.237C170.88 162.78 172.656 160.784 173.894 158.428C175.551 155.69 178.036 153.864 179.693 151.209C182.888 146.064 182.296 138.471 183.046 132.579C183.795 126.687 186.991 121.46 188.292 115.983C189.63 114.146 191.29 112.596 193.184 111.419C196.103 109.676 198.706 107.477 201.586 105.651C203.761 104.448 205.525 102.563 206.635 100.258C209.002 94.7393 206.635 89.221 206.635 83.6612C206.597 83.1918 206.597 82.7199 206.635 82.2505C206.962 82.5746 207.362 82.8058 207.797 82.9223C208.232 83.0388 208.688 83.0368 209.122 82.9163C209.557 82.7959 209.955 82.5611 210.279 82.2341C210.603 81.9071 210.842 81.4987 210.974 81.0473C212.118 77.811 211.566 74.4917 212.868 71.4214C214.235 68.1149 215.955 64.9829 217.996 62.0859C222.374 55.6284 226.039 48.6686 228.923 41.3404C232.551 34.1526 236.622 27.2226 241.112 20.5949C242.184 17.9986 243.725 15.6456 245.648 13.6659C246.78 12.6817 247.668 11.4245 248.238 10.0014C248.808 8.57821 249.043 7.03123 248.922 5.49215ZM162.139 129.592H161.232C164.998 128.39 168.945 127.939 172.869 128.264C173.776 128.264 174.604 128.513 175.354 128.554C171.764 130.795 165.492 130.09 162.139 129.592ZM195.353 101.046C195.708 100.507 196.024 99.9672 196.34 99.4278C198.588 95.5276 200.481 91.42 202.533 87.3954C202.467 89.4443 202.243 91.4841 201.862 93.4946C200.797 97.6022 198.115 99.1373 195.156 101.046H195.353ZM207.898 56.0282C207.951 54.4872 208.334 52.9788 209.017 51.6142C209.7 50.2497 210.665 49.0641 211.842 48.1449C212.513 47.896 212.71 47.564 212.671 48.4768C211.053 51.1737 209.475 53.4972 207.7 56.0282H207.898Z" fill="#000120"/>
</svg>
