<svg width="80" height="80" viewBox="0 0 80 80" fill="none" xmlns="http://www.w3.org/2000/svg">
<g clip-path="url(#clip0_195_46)">
<circle cx="40" cy="40" r="63" stroke="#EF3340" stroke-width="4"/>
<path d="M78.49 36.435L43.56 1.51003C43.0818 1.03154 42.5139 0.651967 41.8889 0.392996C41.264 0.134026 40.5941 0.000732422 39.9175 0.000732422C39.241 0.000732422 38.5711 0.134026 37.9461 0.392996C37.3211 0.651967 36.7533 1.03154 36.275 1.51003L29.025 8.76003L38.225 17.96C39.3101 17.5896 40.4774 17.5316 41.5938 17.7928C42.7101 18.0539 43.7306 18.6237 44.5387 19.437C45.3468 20.2503 45.91 21.2744 46.164 22.3925C46.4179 23.5105 46.3525 24.6774 45.975 25.76L54.84 34.63C56.1516 34.1682 57.5813 34.1668 58.8938 34.6261C60.2062 35.0853 61.3232 35.9778 62.0607 37.1565C62.7983 38.3353 63.1124 39.7301 62.9514 41.1112C62.7904 42.4924 62.1639 43.7775 61.175 44.755C60.174 45.7623 58.8542 46.3907 57.4413 46.5329C56.0284 46.6752 54.6099 46.3225 53.4281 45.535C52.2463 44.7476 51.3746 43.5742 50.9619 42.2155C50.5491 40.8567 50.6209 39.3967 51.165 38.085L42.9 29.815V51.58C44.1563 52.2019 45.1615 53.2355 45.7481 54.5087C46.3347 55.7818 46.4672 57.2176 46.1236 58.5766C45.7799 59.9356 44.9809 61.1357 43.8597 61.977C42.7384 62.8183 41.3627 63.2499 39.9618 63.1999C38.5609 63.1499 37.2195 62.6212 36.1612 61.7021C35.1028 60.7829 34.3914 59.5288 34.1456 58.1488C33.8998 56.7687 34.1344 55.3461 34.8103 54.118C35.4862 52.89 36.5626 51.9307 37.86 51.4V29.435C37.1115 29.1283 36.431 28.6764 35.8579 28.1055C35.2848 27.5346 34.8304 26.8558 34.5209 26.1084C34.2113 25.3611 34.0527 24.5598 34.0543 23.7508C34.0559 22.9419 34.2176 22.1412 34.53 21.395L25.465 12.325L1.51504 36.275C1.03655 36.7533 0.656972 37.3211 0.398001 37.9461C0.13903 38.5711 0.0057373 39.241 0.0057373 39.9175C0.0057373 40.5941 0.13903 41.2639 0.398001 41.8889C0.656972 42.5139 1.03655 43.0818 1.51504 43.56L36.445 78.49C36.9233 78.9685 37.4911 79.3481 38.1161 79.6071C38.7411 79.866 39.411 79.9993 40.0875 79.9993C40.7641 79.9993 41.434 79.866 42.0589 79.6071C42.6839 79.3481 43.2518 78.9685 43.73 78.49L78.495 43.725C78.9735 43.2468 79.3531 42.6789 79.6121 42.0539C79.871 41.4289 80.0043 40.7591 80.0043 40.0825C80.0043 39.406 79.871 38.7361 79.6121 38.1111C79.3531 37.4861 78.9735 36.9183 78.495 36.44" fill="#EF3340"/>
</g>
<defs>
<clipPath id="clip0_195_46">
<rect width="80" height="80" fill="white"/>
</clipPath>
</defs>
</svg>
