<svg width="32" height="32" viewBox="0 0 32 32" fill="none" xmlns="http://www.w3.org/2000/svg">
<path d="M28.0387 8.46002C28.3444 7.47401 28.4425 6.43537 28.3267 5.40958C28.211 4.3838 27.8839 3.39312 27.3662 2.50002C27.2785 2.34796 27.1522 2.22171 27.0001 2.13393C26.8481 2.04616 26.6756 1.99998 26.5 2.00002C25.3352 1.99758 24.186 2.2676 23.1442 2.7885C22.1024 3.3094 21.1969 4.06674 20.5 5.00002H17.5C16.8031 4.06674 15.8976 3.3094 14.8558 2.7885C13.814 2.2676 12.6648 1.99758 11.5 2.00002C11.3244 1.99998 11.1519 2.04616 10.9999 2.13393C10.8478 2.22171 10.7215 2.34796 10.6337 2.50002C10.1161 3.39312 9.78903 4.3838 9.67329 5.40958C9.55754 6.43537 9.65559 7.47401 9.96125 8.46002C9.34341 9.53841 9.01245 10.7572 9 12V13C9.0021 14.692 9.61634 16.3261 10.7293 17.6006C11.8422 18.875 13.3787 19.7038 15.055 19.9338C14.3708 20.8093 13.9994 21.8888 14 23V24H11C10.2044 24 9.44129 23.6839 8.87868 23.1213C8.31607 22.5587 8 21.7957 8 21C8 20.3434 7.87067 19.6932 7.6194 19.0866C7.36812 18.48 6.99983 17.9288 6.53553 17.4645C6.07124 17.0002 5.52005 16.6319 4.91342 16.3806C4.30679 16.1293 3.65661 16 3 16C2.73478 16 2.48043 16.1054 2.29289 16.2929C2.10536 16.4804 2 16.7348 2 17C2 17.2652 2.10536 17.5196 2.29289 17.7071C2.48043 17.8947 2.73478 18 3 18C3.79565 18 4.55871 18.3161 5.12132 18.8787C5.68393 19.4413 6 20.2044 6 21C6 22.3261 6.52678 23.5979 7.46447 24.5356C8.40215 25.4732 9.67392 26 11 26H14V28C14 28.2652 14.1054 28.5196 14.2929 28.7071C14.4804 28.8947 14.7348 29 15 29C15.2652 29 15.5196 28.8947 15.7071 28.7071C15.8946 28.5196 16 28.2652 16 28V23C16 22.2044 16.3161 21.4413 16.8787 20.8787C17.4413 20.3161 18.2044 20 19 20C19.7956 20 20.5587 20.3161 21.1213 20.8787C21.6839 21.4413 22 22.2044 22 23V28C22 28.2652 22.1054 28.5196 22.2929 28.7071C22.4804 28.8947 22.7348 29 23 29C23.2652 29 23.5196 28.8947 23.7071 28.7071C23.8946 28.5196 24 28.2652 24 28V23C24.0006 21.8888 23.6292 20.8093 22.945 19.9338C24.6213 19.7038 26.1578 18.875 27.2707 17.6006C28.3837 16.3261 28.9979 14.692 29 13V12C28.9875 10.7572 28.6566 9.53841 28.0387 8.46002ZM27 13C27 14.3261 26.4732 15.5979 25.5355 16.5356C24.5979 17.4732 23.3261 18 22 18H16C14.6739 18 13.4021 17.4732 12.4645 16.5356C11.5268 15.5979 11 14.3261 11 13V12C11.0123 11 11.3116 10.0247 11.8625 9.19002C11.9652 9.05467 12.0317 8.89538 12.0558 8.7272C12.0798 8.55902 12.0606 8.38748 12 8.22877C11.7395 7.55701 11.6142 6.84046 11.6311 6.12018C11.6481 5.39989 11.807 4.69003 12.0988 4.03127C12.9171 4.11931 13.7052 4.39041 14.4046 4.82448C15.104 5.25855 15.6966 5.84446 16.1388 6.53877C16.2288 6.67965 16.3528 6.79569 16.4994 6.87627C16.6459 6.95685 16.8103 6.99939 16.9775 7.00002H21.0212C21.1891 7.00002 21.3543 6.95777 21.5015 6.87716C21.6487 6.79656 21.7733 6.68018 21.8638 6.53877C22.3058 5.84439 22.8985 5.25844 23.5978 4.82436C24.2972 4.39029 25.0853 4.11922 25.9037 4.03127C26.1951 4.69019 26.3536 5.40014 26.3701 6.12043C26.3866 6.84071 26.2609 7.55718 26 8.22877C25.9396 8.38596 25.9193 8.55576 25.9412 8.72275C25.963 8.88974 26.0262 9.04864 26.125 9.18502C26.6813 10.0197 26.9851 10.9971 27 12V13Z" fill="white"/>
</svg>
