<svg width="40" height="40" viewBox="0 0 40 40" fill="none" xmlns="http://www.w3.org/2000/svg">
<path d="M38.8625 16.395C39.096 17.7373 39.2122 19.0975 39.21 20.46C39.21 26.545 37.035 31.69 33.25 35.1725H33.255C29.945 38.23 25.395 40 20 40C14.6957 40 9.60859 37.8928 5.85786 34.1421C2.10714 30.3914 0 25.3043 0 20C0 14.6956 2.10714 9.60857 5.85786 5.85784C9.60859 2.10711 14.6957 -2.56967e-05 20 -2.56967e-05C24.9643 -0.0553105 29.7581 1.80952 33.38 5.20497L27.67 10.915C25.6055 8.9481 22.8511 7.87076 20 7.91497C14.7825 7.91497 10.35 11.435 8.77 16.175C7.93374 18.659 7.93374 21.3485 8.77 23.8325H8.7775C10.365 28.565 14.79 32.085 20.0075 32.085C22.7025 32.085 25.0175 31.395 26.8125 30.175H26.805C27.8475 29.4847 28.7392 28.5903 29.4263 27.5457C30.1133 26.5011 30.5815 25.3281 30.8025 24.0975H20V16.3975L38.8625 16.395Z" fill="#EF3340"/>
</svg>
