<svg width="564" height="500" viewBox="0 0 564 500" fill="none" xmlns="http://www.w3.org/2000/svg">
<g id="logo">
<path id="Vector" d="M208.271 244.812C208.871 242.415 209.17 238.971 209.17 234.477C209.469 229.984 209.32 225.191 208.72 220.098C208.421 214.706 207.821 209.163 206.922 203.472C206.023 197.781 205.124 192.538 204.225 187.745C203.625 184.15 202.127 181.753 199.729 180.556C197.631 179.057 196.283 177.41 195.683 175.613C195.683 174.114 196.732 173.216 198.83 172.917C201.228 172.317 203.026 172.018 204.225 172.018C206.922 172.018 210.818 172.467 215.913 173.366C221.308 173.966 225.204 175.912 227.602 179.208C234.496 178.309 242.588 177.41 251.878 176.511C261.47 175.314 271.509 174.114 281.999 172.917V148.203C274.507 149.401 267.912 150.299 262.218 150.899C256.824 151.498 250.68 152.546 243.786 154.044C236.892 155.542 230.299 155.841 224.005 154.943C218.011 154.044 212.766 152.546 208.271 150.449C204.074 148.053 200.927 145.357 198.83 142.361C196.732 139.366 196.432 136.669 197.931 134.273C201.527 134.872 205.423 135.321 209.619 135.621C214.115 135.92 218.46 136.07 222.657 136.07C226.853 136.07 230.749 135.92 234.345 135.621C238.241 135.321 241.388 135.022 243.786 134.722L281.55 130.678C280.95 124.387 279.902 118.995 278.403 114.502C277.204 110.008 274.957 104.316 271.659 97.4265C271.059 96.2283 271.059 95.1797 271.659 94.281C272.558 93.0828 274.206 92.4836 276.605 92.4836C280.5 92.4836 284.398 92.933 288.293 93.8317C292.189 94.7304 295.637 95.9286 298.633 97.4265C301.931 98.6247 304.628 99.9727 306.725 101.471C308.823 102.968 309.872 104.466 309.872 105.964C309.872 108.361 309.124 111.206 307.625 114.502C306.426 117.797 305.826 121.541 305.826 125.735V127.083L318.414 124.387C325.007 122.889 330.852 121.541 335.947 120.343C341.043 118.845 347.485 118.096 355.278 118.096C358.875 118.096 362.321 118.845 365.618 120.343C369.215 121.841 372.063 123.638 374.16 125.735C376.558 127.533 378.056 129.48 378.656 131.577C379.555 133.674 379.105 135.321 377.307 136.52C373.711 138.916 367.266 140.114 357.976 140.114C348.985 139.815 338.494 140.564 326.506 142.361C318.115 143.859 311.071 144.758 305.377 145.057V170.221C315.566 168.722 324.708 167.524 332.8 166.626C340.892 165.428 346.737 164.379 350.333 163.48C351.832 162.881 354.53 161.533 358.425 159.436C362.321 157.04 365.169 155.841 366.967 155.841C368.765 155.841 371.312 156.59 374.61 158.088C378.206 159.586 381.652 161.383 384.95 163.48C388.546 165.577 391.543 167.824 393.941 170.221C396.339 172.618 397.538 174.714 397.538 176.511C397.538 178.908 396.189 182.503 393.491 187.296C390.794 191.789 389.146 195.534 388.546 198.529C387.047 206.319 386.148 214.556 385.849 223.243C385.849 231.631 385.55 240.168 384.95 248.856C384.95 254.848 383.751 259.94 381.353 264.134C378.955 268.328 376.707 270.425 374.61 270.425C370.714 270.425 367.266 268.028 364.27 263.235C361.572 258.142 359.025 252.9 356.627 247.508C355.128 245.711 355.429 243.314 357.526 240.319C359.624 237.324 360.972 232.381 361.572 225.49C362.172 221.296 362.771 216.503 363.371 211.111C363.971 205.42 364.27 200.477 364.27 196.283C363.67 192.688 363.22 189.243 362.921 185.948C362.622 182.652 360.224 181.304 355.728 181.904L305.826 187.296V203.922C311.821 203.023 317.065 202.274 321.561 201.675C326.356 201.075 329.653 200.776 331.451 200.776C338.345 200.776 343.74 201.825 347.636 203.922C351.832 206.018 353.631 207.815 353.031 209.314C352.431 210.812 347.485 212.459 338.195 214.257C329.204 216.054 318.414 217.701 305.826 219.199V231.781C311.821 230.882 317.065 230.134 321.561 229.534C326.356 228.935 329.653 228.636 331.451 228.636C338.345 228.636 343.74 229.833 347.636 232.23C351.832 234.327 353.631 235.975 353.031 237.173C352.431 238.672 347.485 240.469 338.195 242.565C328.904 244.363 318.115 246.01 305.826 247.508C305.527 251.703 305.377 255.297 305.377 258.292C305.377 261.288 305.226 263.835 304.927 265.931C304.628 269.526 303.279 272.672 300.881 275.368C298.784 277.765 296.536 279.562 294.138 280.76C291.739 281.958 289.492 282.557 287.394 282.557C285.297 282.557 284.247 281.958 284.247 280.76C283.948 278.363 283.647 274.469 283.348 269.077C283.348 263.685 283.348 257.243 283.348 249.755C277.953 250.355 272.709 250.804 267.613 251.103C262.818 251.402 258.323 251.703 254.126 252.002C249.631 252.002 245.585 250.953 241.988 248.856C238.391 246.459 236.892 244.662 237.492 243.464C238.991 241.667 242.737 240.168 248.731 238.971C254.726 237.773 259.371 237.173 262.668 237.173C265.066 236.874 267.912 236.574 271.21 236.275C274.806 235.975 278.702 235.526 282.898 234.926V221.895C277.504 222.495 272.259 222.944 267.164 223.243C262.369 223.542 258.022 223.693 254.126 223.693C249.631 223.693 245.585 222.644 241.988 220.547C238.391 218.451 236.892 216.654 237.492 215.155C238.991 213.358 242.737 212.01 248.731 211.111C254.726 209.913 259.371 209.314 262.668 209.314C265.066 209.015 267.912 208.714 271.21 208.415C274.806 208.116 278.553 207.667 282.449 207.067V189.992C272.259 191.19 262.518 192.389 253.227 193.587C243.937 194.485 236.144 195.384 229.85 196.283C230.45 209.763 230.749 222.194 230.749 233.578C231.048 244.962 231.798 255.895 232.997 266.381C232.997 267.578 232.846 269.376 232.547 271.773C232.547 274.17 232.248 276.565 231.648 278.962C231.349 281.059 230.749 283.007 229.85 284.804C228.951 286.302 227.901 287.051 226.703 287.051C222.807 287.051 218.761 285.253 214.565 281.658C210.368 277.765 206.922 273.121 204.225 267.729C203.026 265.332 203.175 262.636 204.674 259.641C206.472 256.645 207.671 251.703 208.271 244.812ZM279.751 339.624C280.351 341.721 280.051 344.118 278.852 346.814C277.953 349.51 276.605 352.056 274.806 354.453C273.008 356.549 270.911 358.497 268.512 360.294C266.114 361.792 263.866 362.541 261.769 362.541C259.371 362.242 257.273 361.042 255.475 358.946C253.976 356.85 252.478 354.453 250.979 351.757C249.781 348.761 248.581 345.765 247.383 342.77C246.184 339.774 244.985 337.377 243.786 335.58C241.988 333.183 240.039 330.338 237.942 327.042C235.844 323.747 234.795 320.902 234.795 318.505C232.997 319.105 231.198 319.554 229.4 319.853C227.602 319.853 225.954 320.003 224.455 320.302C214.864 322.399 206.023 322.848 197.931 321.65C189.838 320.453 182.945 318.655 177.251 316.258C171.856 313.562 167.96 310.567 165.562 307.271C163.164 303.676 162.865 300.681 164.663 298.284C168.859 298.884 173.954 299.333 179.948 299.632C185.943 299.931 191.936 300.082 197.931 300.082C203.925 299.783 209.469 299.482 214.565 299.183C219.66 298.884 223.405 298.583 225.804 298.284C249.181 296.487 270.61 294.391 290.091 291.993C309.573 289.596 325.007 287.5 336.397 285.703C335.498 282.108 334.299 278.513 332.8 274.918C331.602 271.324 330.253 267.43 328.754 263.235C327.556 260.838 328.754 259.641 332.351 259.641C340.144 259.341 347.186 260.24 353.48 262.337C360.073 264.433 363.371 267.43 363.371 271.324V279.861C369.964 278.663 376.858 277.913 384.051 277.614C391.244 277.315 397.837 277.315 403.831 277.614C408.927 277.913 413.423 279.261 417.318 281.658C421.515 284.056 424.961 286.752 427.658 289.747C430.356 292.443 432.004 295.139 432.604 297.835C433.503 300.232 433.204 301.729 431.704 302.328C429.607 303.526 426.011 304.126 420.915 304.126C415.819 304.126 409.975 303.975 403.382 303.676C397.088 303.077 390.194 302.627 382.702 302.328C375.21 302.029 367.866 302.178 360.673 302.778C360.374 309.368 360.224 315.209 360.224 320.302C360.523 325.395 360.824 330.487 361.123 335.58C361.422 340.673 361.572 346.214 361.572 352.206C361.572 358.198 361.422 365.237 361.123 373.325C360.523 379.915 359.475 385.757 357.976 390.85C356.477 395.943 354.829 399.387 353.031 401.185C350.333 403.582 346.887 405.078 342.691 405.678C338.795 406.577 335.797 406.426 333.699 405.229C332.501 404.33 330.703 402.533 328.305 399.837C325.906 396.841 322.91 393.546 319.313 389.951C315.717 386.356 311.52 382.761 306.725 379.167C302.23 375.273 297.134 371.977 291.44 369.281C289.941 368.681 288.743 367.933 287.844 367.034C287.244 366.136 287.994 365.686 290.091 365.686C291.89 365.985 295.037 366.286 299.532 366.585C304.028 366.884 308.674 367.185 313.469 367.484C318.264 367.484 322.611 367.333 326.506 367.034C330.703 366.735 333.25 366.136 334.149 365.237C335.648 363.739 336.547 361.343 336.846 358.047C337.446 354.752 337.745 351.008 337.745 346.814C338.045 344.118 338.195 341.572 338.195 339.175C338.494 336.778 338.645 334.082 338.645 331.087C338.944 328.091 339.094 324.645 339.094 320.752C339.094 316.557 338.944 311.315 338.645 305.025C318.864 307.121 301.481 309.219 286.495 311.315C271.509 313.113 258.172 314.91 246.484 316.708C249.181 317.307 251.878 318.206 254.576 319.404C257.572 320.302 260.27 321.351 262.668 322.549C267.764 325.544 271.81 328.69 274.806 331.985C278.104 334.98 279.751 337.528 279.751 339.624ZM81.0436 230.882C76.548 230.583 72.2022 229.235 68.0063 226.838C63.8103 224.441 60.2137 221.745 57.2167 218.75C54.2196 215.755 52.1216 212.758 50.9228 209.763C49.724 206.768 49.724 204.371 50.9228 202.574C52.1216 202.873 54.2196 203.173 57.2167 203.472C60.2137 203.472 63.5106 203.623 67.1071 203.922C71.0033 203.922 75.1993 203.922 79.6949 203.922C84.1906 203.922 88.5363 203.771 92.7323 203.472C97.8275 202.873 102.173 202.423 105.77 202.124C109.366 201.825 112.663 201.376 115.66 200.776C115.361 183.701 115.061 168.124 114.761 154.044C114.761 139.965 114.461 129.33 113.862 122.141C113.262 115.25 111.764 110.008 109.366 106.413C106.969 102.519 106.369 99.9727 107.568 98.7745C108.767 97.2766 111.314 96.6776 115.211 96.9771C119.107 97.2766 123.153 98.3252 127.349 100.123C131.845 101.62 135.741 103.867 139.038 106.863C142.334 109.559 143.983 112.554 143.983 115.85C143.383 121.841 142.185 127.533 140.386 132.925C138.888 138.317 138.138 143.559 138.138 148.652V194.485C140.536 193.886 143.234 193.137 146.231 192.239C149.228 191.34 152.824 190.591 157.02 189.992C162.115 189.093 167.061 189.093 171.856 189.992C176.951 190.891 181.147 192.389 184.444 194.485C187.741 196.283 189.838 198.529 190.738 201.225C191.936 203.623 191.187 205.869 188.49 207.966C187.591 208.565 186.242 209.015 184.444 209.314C182.945 209.613 180.398 210.062 176.801 210.662C173.205 210.961 168.259 211.711 161.965 212.908C155.971 213.807 148.029 215.306 138.138 217.402C138.138 231.781 138.138 246.609 138.138 261.887C138.138 277.165 137.989 291.694 137.689 305.474C137.689 318.954 137.539 331.087 137.239 341.871C137.239 352.655 137.089 360.593 136.79 365.686C136.79 375.273 136.34 382.912 135.441 388.603C134.842 394.294 133.343 398.788 130.945 402.083C129.447 403.281 127.649 402.982 125.551 401.185C123.453 399.387 121.505 397.291 119.706 394.894C118.507 393.395 117.159 391.449 115.66 389.052C114.162 386.356 112.663 383.66 111.165 380.964C109.966 378.268 108.917 375.572 108.018 372.876C107.118 370.18 106.819 367.933 107.118 366.136C107.118 362.84 108.467 357.448 111.165 349.959C114.162 342.471 115.96 334.382 116.559 325.694C116.559 322.998 116.559 318.355 116.559 311.765C116.559 304.874 116.559 296.786 116.559 287.5C116.559 278.214 116.409 268.028 116.11 256.944C116.11 245.861 116.11 234.477 116.11 222.794C106.519 225.49 99.4758 227.438 94.9802 228.636C90.7842 229.833 86.1388 230.583 81.0436 230.882ZM419.566 120.792C420.465 123.788 420.765 126.933 420.465 130.229C420.166 133.224 419.416 136.07 418.218 138.766C417.019 141.462 415.52 143.709 413.722 145.507C411.924 147.004 409.975 147.753 407.878 147.753C405.78 147.753 403.831 147.004 402.033 145.507C400.235 143.709 398.587 141.612 397.088 139.216C395.589 136.819 394.091 134.273 392.592 131.577C391.093 128.881 389.745 126.634 388.546 124.837C387.348 123.039 385.698 121.092 383.601 118.995C381.803 116.599 380.155 114.352 378.656 112.255C377.157 109.858 375.958 107.761 375.059 105.964C374.16 104.167 374.01 102.968 374.61 102.369C376.707 100.871 380.454 101.021 385.849 102.819C391.244 104.316 396.038 105.814 400.235 107.312C406.529 110.008 411.175 112.704 414.171 115.4C417.168 117.797 418.966 119.594 419.566 120.792Z" fill="#EF3340"/>
<g class="headline">
<path d="M492.215 163.44C492.215 162.843 492.513 162.48 493.111 162.352C494.049 162.181 494.775 161.861 495.287 161.392C495.799 160.923 496.119 160.112 496.247 158.96C496.545 156.613 496.695 153.84 496.695 150.64V146.288C494.775 146.16 492.855 146.096 490.935 146.096H481.975C480.012 146.096 478.028 146.16 476.023 146.288V150.64C476.023 153.84 476.172 156.613 476.471 158.96C476.641 160.112 476.961 160.923 477.431 161.392C477.943 161.861 478.668 162.181 479.607 162.352C480.204 162.48 480.503 162.843 480.503 163.44C480.503 163.739 480.289 163.888 479.863 163.888C479.351 163.888 478.455 163.845 477.175 163.76C475.98 163.632 474.743 163.568 473.463 163.568C472.097 163.568 470.732 163.632 469.367 163.76C468.172 163.845 467.276 163.888 466.679 163.888C466.295 163.888 466.103 163.739 466.103 163.44C466.103 162.843 466.401 162.48 466.999 162.352C467.98 162.181 468.769 161.861 469.367 161.392C469.964 160.88 470.327 160.069 470.455 158.96C470.753 156.613 470.903 153.84 470.903 150.64V139.76C470.903 136.731 470.775 134.427 470.519 132.848C470.22 131.013 469.047 129.947 466.999 129.648C466.401 129.52 466.103 129.179 466.103 128.624C466.103 128.283 466.359 128.112 466.871 128.112C467.468 128.112 468.492 128.155 469.943 128.24C471.095 128.368 472.268 128.432 473.463 128.432C474.572 128.432 475.66 128.368 476.727 128.24C478.092 128.155 479.095 128.112 479.735 128.112C480.247 128.112 480.503 128.283 480.503 128.624C480.503 129.264 480.204 129.605 479.607 129.648C477.772 129.904 476.705 130.971 476.407 132.848C476.151 134.427 476.023 136.731 476.023 139.76V143.344C478.028 143.472 480.012 143.536 481.975 143.536H490.935C492.855 143.536 494.775 143.472 496.695 143.344V139.76C496.695 136.731 496.567 134.427 496.311 132.848C496.012 131.013 494.945 129.947 493.111 129.648C492.513 129.52 492.215 129.179 492.215 128.624C492.215 128.283 492.471 128.112 492.983 128.112C493.623 128.112 494.625 128.155 495.991 128.24C497.1 128.368 498.188 128.432 499.255 128.432C500.449 128.432 501.623 128.368 502.775 128.24C504.225 128.155 505.249 128.112 505.847 128.112C506.359 128.112 506.615 128.283 506.615 128.624C506.615 129.264 506.316 129.605 505.719 129.648C503.671 129.947 502.497 131.013 502.199 132.848C501.943 134.427 501.815 136.731 501.815 139.76V150.64C501.815 153.84 501.964 156.613 502.263 158.96C502.391 160.069 502.753 160.88 503.351 161.392C503.948 161.861 504.737 162.181 505.719 162.352C506.316 162.48 506.615 162.843 506.615 163.44C506.615 163.739 506.401 163.888 505.975 163.888C505.42 163.888 504.545 163.845 503.351 163.76C502.028 163.632 500.663 163.568 499.255 163.568C498.017 163.568 496.78 163.632 495.543 163.76C494.263 163.845 493.345 163.888 492.791 163.888C492.407 163.888 492.215 163.739 492.215 163.44ZM478.978 234.44C478.978 233.843 479.276 233.48 479.874 233.352C480.855 233.181 481.644 232.861 482.242 232.392C482.839 231.88 483.202 231.069 483.33 229.96C483.628 227.613 483.778 224.84 483.778 221.64V210.76C483.778 207.731 483.65 205.427 483.394 203.848C483.095 202.013 481.922 200.947 479.874 200.648C479.276 200.52 478.978 200.179 478.978 199.624C478.978 199.283 479.234 199.112 479.746 199.112C480.343 199.112 481.367 199.155 482.818 199.24C483.97 199.368 485.143 199.432 486.338 199.432C487.532 199.432 488.706 199.368 489.858 199.24C491.308 199.155 492.332 199.112 492.93 199.112C493.442 199.112 493.698 199.283 493.698 199.624C493.698 200.264 493.399 200.605 492.802 200.648C490.754 200.947 489.58 202.013 489.282 203.848C489.026 205.427 488.898 207.731 488.898 210.76V221.64C488.898 224.84 489.047 227.613 489.346 229.96C489.474 231.069 489.836 231.88 490.434 232.392C491.031 232.861 491.82 233.181 492.802 233.352C493.399 233.48 493.698 233.843 493.698 234.44C493.698 234.739 493.484 234.888 493.058 234.888C492.503 234.888 491.628 234.845 490.434 234.76C489.111 234.632 487.746 234.568 486.338 234.568C484.972 234.568 483.607 234.632 482.242 234.76C481.047 234.845 480.151 234.888 479.554 234.888C479.17 234.888 478.978 234.739 478.978 234.44ZM470.54 305.44C470.54 304.843 470.839 304.48 471.436 304.352C472.418 304.181 473.207 303.861 473.804 303.392C474.402 302.88 474.764 302.069 474.892 300.96C475.191 298.613 475.34 295.84 475.34 292.64V281.76C475.34 278.731 475.212 276.427 474.956 274.848C474.658 273.013 473.484 271.947 471.436 271.648C470.839 271.52 470.54 271.179 470.54 270.624C470.54 270.283 470.796 270.112 471.308 270.112C471.906 270.112 472.93 270.155 474.38 270.24C475.532 270.368 476.663 270.432 477.772 270.432C479.18 270.432 481.42 270.325 484.492 270.112C486.455 269.941 487.799 269.856 488.524 269.856C491.724 269.856 494.263 270.539 496.14 271.904C498.018 273.269 498.956 275.381 498.956 278.24C498.956 280.971 498.188 283.253 496.652 285.088C495.116 286.88 492.919 288.16 490.06 288.928C490.53 289.141 490.956 289.461 491.34 289.888C491.724 290.272 492.194 290.848 492.748 291.616L500.044 301.92C501.196 303.584 502.775 304.416 504.78 304.416C505.164 304.416 505.356 304.565 505.356 304.864C505.356 305.291 505.1 305.568 504.588 305.696C503.948 305.867 502.86 305.952 501.324 305.952C499.831 305.952 498.679 305.888 497.868 305.76C497.1 305.589 496.439 305.291 495.884 304.864C495.33 304.395 494.732 303.648 494.092 302.624L487.948 292.512C487.266 291.403 486.69 290.677 486.22 290.336C485.794 289.952 485.09 289.76 484.108 289.76H484.172H483.404C482.978 289.76 482.722 289.568 482.636 289.184V288.992C482.636 288.651 482.786 288.48 483.084 288.48C489.954 288.48 493.388 285.515 493.388 279.584C493.388 277.28 492.684 275.509 491.276 274.272C489.868 272.992 487.906 272.352 485.388 272.352C484.023 272.352 483.042 272.416 482.444 272.544C481.847 272.629 481.442 272.843 481.228 273.184C481.015 273.525 480.844 274.08 480.716 274.848C480.588 275.701 480.482 276.747 480.396 277.984C480.354 279.221 480.332 280.48 480.332 281.76V292.64C480.332 295.883 480.46 298.464 480.716 300.384C480.887 301.792 481.271 302.752 481.868 303.264C482.466 303.733 483.426 304.096 484.748 304.352C485.346 304.48 485.644 304.843 485.644 305.44C485.644 305.739 485.431 305.888 485.004 305.888C484.492 305.888 483.596 305.845 482.316 305.76C480.78 305.632 479.266 305.568 477.772 305.568C476.45 305.568 475.148 305.632 473.868 305.76C472.588 305.845 471.671 305.888 471.116 305.888C470.732 305.888 470.54 305.739 470.54 305.44Z" fill="#000120"/>
<path d="M467.736 359.096C467.736 355.768 468.568 352.696 470.232 349.88C471.896 347.021 474.136 344.76 476.952 343.096C479.811 341.389 482.947 340.536 486.36 340.536C490.158 340.536 493.464 341.304 496.28 342.84C499.096 344.376 501.251 346.509 502.744 349.24C504.238 351.971 504.984 355.085 504.984 358.584C504.984 362.083 504.131 365.261 502.424 368.12C500.76 370.979 498.499 373.24 495.64 374.904C492.782 376.525 489.688 377.336 486.36 377.336C482.563 377.336 479.256 376.568 476.44 375.032C473.624 373.496 471.47 371.363 469.976 368.632C468.483 365.859 467.736 362.68 467.736 359.096ZM487.384 374.968C490.883 374.968 493.699 373.667 495.832 371.064C497.966 368.461 499.032 364.579 499.032 359.416C499.032 354.381 497.902 350.371 495.64 347.384C493.379 344.397 490.115 342.904 485.848 342.904C482.051 342.904 479.064 344.184 476.888 346.744C474.755 349.304 473.688 353.272 473.688 358.648C473.688 362.147 474.286 365.133 475.48 367.608C476.718 370.04 478.36 371.875 480.408 373.112C482.499 374.349 484.824 374.968 487.384 374.968Z" fill="#EF3340"/>
</g>
</g>
</svg>
