<svg width="277" height="331" viewBox="0 0 277 331" fill="none" xmlns="http://www.w3.org/2000/svg" class="sakuraFooter3">
<g id="sakura3">
<path id="Vector" d="M271.833 87.5571C271.833 87.5571 271.928 87.4579 271.833 87.5571V87.5571Z" fill="#EF3340"/>
<g class="sakura3folhas1">
<path id="Vector_2" d="M123.768 105.393H122.887C122.807 105.151 122.678 104.93 122.509 104.746C122.34 104.563 122.134 104.42 121.907 104.328L120.96 104.157C120.663 103.987 120.336 103.882 120 103.846C119.663 103.811 119.324 103.846 119 103.951C117.368 103.951 115.735 104.225 114.102 104.225C113.729 104.243 113.377 104.408 113.116 104.689C112.855 104.97 112.706 105.344 112.698 105.737C112.698 106.132 112.845 106.511 113.107 106.793C113.369 107.076 113.727 107.239 114.102 107.248H114.82C115.376 109.172 117.792 109.378 119.392 109.275C121.01 109.146 122.615 108.882 124.193 108.485C124.536 108.375 124.831 108.139 125.023 107.82C125.215 107.501 125.293 107.121 125.242 106.747C125.19 106.374 125.014 106.032 124.743 105.783C124.473 105.535 124.127 105.397 123.768 105.393Z" fill="#EF3340"/>
<path id="Vector_3" d="M222.491 127.787C221.725 126.899 220.759 126.226 219.683 125.829L219.063 125.383H218.703C218.551 125.271 218.387 125.178 218.213 125.108L217.822 124.867C217.324 124.487 216.757 124.218 216.156 124.077C215.908 124.024 215.653 124.024 215.405 124.077C215.203 124.014 214.989 124.007 214.783 124.055C214.578 124.103 214.387 124.205 214.229 124.352C214.032 124.575 213.907 124.858 213.871 125.16C213.836 125.463 213.893 125.769 214.033 126.035C214.519 126.802 215.248 127.362 216.091 127.615H216.287L216.907 127.924C217.128 128.105 217.369 128.255 217.626 128.371L218.279 128.611L218.703 128.989C219.361 129.563 220.099 130.027 220.891 130.363C221.219 130.476 221.574 130.467 221.896 130.338C222.218 130.208 222.488 129.966 222.661 129.651C222.833 129.337 222.898 128.97 222.843 128.612C222.788 128.253 222.618 127.926 222.361 127.684L222.491 127.787Z" fill="#EF3340"/>
<path id="Vector_4" d="M244.726 71.6304C244.721 70.5986 244.474 69.5842 244.008 68.6764C243.863 68.4386 243.658 68.2481 243.416 68.1266C243.173 68.0052 242.903 67.9577 242.637 67.9894C242.371 68.0253 242.122 68.1419 241.919 68.325C241.715 68.5081 241.568 68.7496 241.494 69.0199C241.184 69.9559 240.965 70.9226 240.84 71.9051V72.3174C240.84 72.764 240.84 72.7639 240.84 73.2104C240.84 73.8287 240.84 74.4127 240.84 74.9966C240.84 75.2921 240.924 75.581 241.081 75.8259C241.238 76.0708 241.461 76.2606 241.722 76.3706C241.975 76.4999 242.262 76.5397 242.538 76.484C242.815 76.4283 243.067 76.2801 243.257 76.0614C243.639 75.6009 243.928 75.0632 244.106 74.4813C244.191 74.2497 244.246 74.0071 244.269 73.76C244.385 73.6501 244.484 73.5228 244.563 73.3822C244.715 72.813 244.771 72.2199 244.726 71.6304Z" fill="#EF3340"/>
<path id="Vector_5" d="M207.534 156.297C207.618 155.878 207.672 155.453 207.697 155.026C207.745 154.408 207.745 153.788 207.697 153.171C207.697 152.793 207.697 152.415 207.697 152.037V151.419C207.697 151 207.539 150.598 207.257 150.302C206.975 150.005 206.593 149.839 206.195 149.839C205.796 149.839 205.414 150.005 205.132 150.302C204.851 150.598 204.692 151 204.692 151.419C204.692 152.553 204.692 153.686 204.692 154.854C204.59 155.996 204.59 157.146 204.692 158.289V158.529C204.722 158.901 204.877 159.249 205.131 159.509C205.386 159.77 205.72 159.925 206.075 159.946C206.429 159.966 206.778 159.852 207.058 159.623C207.338 159.395 207.53 159.067 207.599 158.701V158.426C207.658 157.716 207.636 157.001 207.534 156.297Z" fill="#EF3340"/>
<path id="Vector_6" d="M276.668 94.4613C276.757 94.2687 276.804 94.0573 276.804 93.843C276.804 93.6287 276.757 93.4173 276.668 93.2248C276.668 93.2248 276.668 92.9156 276.439 92.7782V92.5377L276.243 91.8508C276.243 91.3356 276.015 90.8203 275.851 90.3051C275.766 89.8015 275.583 89.3217 275.313 88.8961C275.044 88.4705 274.693 88.1083 274.284 87.832H274.121V87.6259C274.006 87.4343 273.847 87.2764 273.658 87.167C273.47 87.0575 273.258 87.0002 273.043 87.0002C272.828 87.0002 272.616 87.0575 272.427 87.167C272.239 87.2764 272.08 87.4343 271.965 87.6259C271.825 87.8121 271.715 88.0209 271.639 88.2441C271.574 88.5726 271.574 88.9118 271.639 89.2403C271.726 89.6165 271.869 89.9759 272.063 90.3051L272.814 91.3355V91.5073C272.883 91.6274 272.959 91.7422 273.043 91.8508V92.1256C272.995 92.6855 272.995 93.2487 273.043 93.8086C273.121 94.2312 273.264 94.6374 273.467 95.0109C273.474 95.3282 273.565 95.6374 273.729 95.904C273.729 95.904 274.186 96.5222 273.892 96.1101C274.062 96.4136 274.34 96.6343 274.663 96.7243C274.987 96.8143 275.332 96.7663 275.623 96.5909C275.982 96.3817 276.262 96.0494 276.416 95.6495C276.571 95.2495 276.59 94.8059 276.472 94.3926L276.668 94.4613Z" fill="#EF3340"/>
<g id="Group">
<path id="Vector_7" d="M236.009 175.266C235.958 175.094 235.873 174.935 235.761 174.799C235.648 174.663 235.51 174.553 235.356 174.476C235.089 174.391 234.805 174.391 234.539 174.476C234.279 174.524 234.039 174.656 233.853 174.854C233.55 175.283 233.287 175.744 233.07 176.228C232.899 176.431 232.746 176.649 232.612 176.88L231.829 177.636C231.724 177.781 231.652 177.949 231.618 178.128C231.584 178.306 231.589 178.49 231.633 178.667L231.437 178.976C231.208 179.285 230.98 179.56 230.784 179.869C230.586 180.188 230.432 180.535 230.326 180.899C230.268 181.184 230.293 181.481 230.398 181.751C230.502 182.021 230.683 182.251 230.914 182.411C231.155 182.54 231.428 182.589 231.696 182.553C231.964 182.516 232.215 182.394 232.417 182.205L232.71 181.827V181.655C232.71 181.655 232.71 181.655 232.874 181.655C233.037 181.655 233.364 181.002 233.592 180.693C233.821 180.384 233.886 180.247 234.049 180.006L234.278 179.663C234.67 179.113 235.094 178.563 235.454 177.98C235.837 177.32 236.082 176.582 236.172 175.816C236.149 175.624 236.094 175.437 236.009 175.266Z" fill="#EF3340"/>
</g>
<path id="Vector_8" d="M173.209 113.491C173.118 113.259 172.965 113.06 172.767 112.919C172.569 112.779 172.337 112.703 172.098 112.701C171.533 112.666 170.976 112.849 170.531 113.216L170.302 113.388H170.139C169.682 113.629 169.257 113.938 168.833 114.212H168.408C167.832 114.289 167.283 114.514 166.808 114.865C166.601 115.024 166.424 115.222 166.285 115.449C166.166 115.469 166.045 115.469 165.926 115.449C165.613 115.45 165.307 115.545 165.044 115.724C164.854 115.881 164.71 116.09 164.626 116.328C164.542 116.567 164.523 116.825 164.57 117.074C164.618 117.323 164.73 117.553 164.894 117.74C165.059 117.926 165.269 118.06 165.502 118.128C165.784 118.162 166.069 118.162 166.351 118.128C167.404 118.09 168.439 117.821 169.388 117.338C170.342 116.931 171.2 116.309 171.902 115.518C172.243 115.25 172.57 114.964 172.882 114.659C173.022 114.507 173.126 114.321 173.183 114.118C173.24 113.914 173.248 113.699 173.209 113.491Z" fill="#EF3340"/>
<path id="Vector_9" d="M184.546 106.69C184.447 106.287 184.2 105.941 183.86 105.728C183.669 105.644 183.464 105.601 183.256 105.601C183.049 105.601 182.843 105.644 182.652 105.728C182.28 105.855 181.958 106.109 181.738 106.45C181.723 106.586 181.723 106.725 181.738 106.862C181.738 106.862 181.738 107.033 181.738 107.102C181.722 107.331 181.722 107.56 181.738 107.789V107.343C181.645 107.783 181.503 108.209 181.313 108.613C181.201 108.957 181.135 109.315 181.117 109.678C181.128 110.159 181.276 110.626 181.542 111.018C181.68 111.244 181.876 111.425 182.106 111.54C182.337 111.655 182.594 111.701 182.848 111.671C183.145 111.627 183.42 111.482 183.632 111.258C183.877 111.175 184.093 111.016 184.25 110.801C184.408 110.587 184.499 110.327 184.513 110.056V109.197C184.696 108.808 184.793 108.381 184.799 107.948C184.804 107.514 184.718 107.084 184.546 106.69Z" fill="#EF3340"/>
<path id="Vector_10" d="M144.425 85.3758C144.21 85.3254 143.987 85.3254 143.772 85.3758C143.722 85.3486 143.666 85.3345 143.609 85.3345C143.552 85.3345 143.496 85.3486 143.446 85.3758H142.662C142.681 85.2969 142.681 85.2142 142.662 85.1353C142.616 84.8226 142.466 84.5373 142.239 84.3298C142.011 84.1224 141.722 84.0062 141.421 84.0018C140.609 83.9821 139.8 84.1219 139.037 84.414L138.286 84.6201H137.796H137.176C136.864 84.6201 136.565 84.7504 136.344 84.9823C136.124 85.2142 136 85.5287 136 85.8567C136 86.1847 136.124 86.4991 136.344 86.731C136.565 86.9629 136.864 87.0932 137.176 87.0932H137.796H137.959C139.173 87.2108 140.396 87.0102 141.519 86.5092H143.021V86.8527L142.662 87.6084C142.127 88.3479 141.759 89.2052 141.584 90.1159C141.566 90.2986 141.566 90.4828 141.584 90.6655C141.562 90.8461 141.603 91.0289 141.699 91.1803C141.795 91.3318 141.94 91.4417 142.107 91.4899V91.6959C141.688 92.4533 141.516 93.3338 141.617 94.2034C141.658 94.3623 141.729 94.5109 141.826 94.6405C141.923 94.77 142.043 94.878 142.18 94.958C142.317 95.038 142.468 95.0884 142.623 95.1063C142.779 95.1242 142.936 95.1092 143.086 95.0622C143.328 94.9777 143.539 94.817 143.691 94.6019C143.843 94.3868 143.928 94.1278 143.936 93.8599C143.954 93.7809 143.954 93.6985 143.936 93.6195C143.936 93.6195 143.936 93.6195 143.936 93.4134C143.936 93.1042 143.936 93.2073 143.936 93.4134C143.936 93.4134 143.936 93.7225 143.936 93.4134V93.2073L144.131 92.8295C144.459 92.2324 144.721 91.5987 144.915 90.9403C145.338 89.6247 145.537 88.241 145.503 86.8527C145.542 86.6793 145.543 86.4989 145.508 86.3247C145.472 86.1505 145.4 85.9868 145.297 85.8455C145.194 85.7041 145.062 85.5887 144.911 85.5074C144.761 85.4262 144.595 85.3812 144.425 85.3758Z" fill="#EF3340"/>
<path id="Vector_11" d="M88.1027 128.49L87.9627 128.406L88.1749 128.052C88.3089 127.799 88.3493 127.508 88.2885 127.235C88.2276 126.962 88.0697 126.726 87.8449 126.572C87.6051 126.438 87.3203 126.405 87.0486 126.48C86.7769 126.556 86.5389 126.733 86.3832 126.976C85.8586 127.887 85.2338 128.735 84.5219 129.505C84.3097 129.858 84.0975 130.211 83.7276 130.51C83.5811 130.687 83.4617 130.886 83.3739 131.099C83.0909 131.57 82.8257 132.012 82.5604 132.453C82.4066 132.726 82.3601 133.045 82.4308 133.342C82.5015 133.638 82.6838 133.89 82.939 134.043C83.1937 134.186 83.4964 134.221 83.7852 134.141C84.074 134.061 84.327 133.873 84.4921 133.614C84.7928 133.113 85.0934 132.612 85.3941 132.112L85.8185 131.405L85.9953 131.111L86.4993 130.652C86.6938 130.328 86.8884 130.004 87.0829 129.68L87.3466 129.558C87.3466 129.558 87.4866 129.642 87.3466 129.558C87.4807 129.655 87.6491 129.691 87.8148 129.659C87.9804 129.627 88.1298 129.529 88.2301 129.388C88.3303 129.246 88.3732 129.072 88.3493 128.903C88.3255 128.735 88.2368 128.586 88.1027 128.49Z" fill="#EF3340"/>
<path id="Vector_12" d="M92.8245 86.1996C92.697 86.0715 92.5274 86 92.3511 86C92.1747 86 92.0051 86.0715 91.8776 86.1996C91.5126 86.467 91.1307 86.708 90.7346 86.9209H90.5713L90.1468 87.1957C89.5113 87.6143 88.9005 88.0731 88.318 88.5697H88.1221L87.7955 88.8101L86.9791 89.5314C86.7089 89.7559 86.4854 90.0364 86.3225 90.3555C86.1596 90.6745 86.0607 91.0254 86.032 91.3863C86.0039 91.5337 86.0039 91.6854 86.032 91.8327C85.9837 92.0198 85.9902 92.218 86.0508 92.4011C86.1113 92.5842 86.2231 92.7437 86.3714 92.8589C86.5197 92.974 86.6976 93.0393 86.8818 93.0462C87.066 93.0531 87.2479 93.0013 87.4036 92.8975C87.887 92.5855 88.3174 92.1908 88.6772 91.7297C89.1327 91.419 89.5495 91.0498 89.9182 90.6306C90.6693 89.8749 91.2897 88.9818 92.0408 88.1918C92.143 88.0654 92.2167 87.9163 92.2563 87.7557C92.2959 87.5951 92.3004 87.4271 92.2694 87.2644L92.792 86.8178C92.8456 86.7257 92.8767 86.6209 92.8824 86.513C92.8881 86.4051 92.8682 86.2974 92.8245 86.1996Z" fill="#EF3340"/>
<path id="Vector_13" d="M256.135 130.744C256.257 130.616 256.343 130.456 256.385 130.28C256.427 130.105 256.422 129.921 256.371 129.747C256.321 129.574 256.227 129.419 256.099 129.298C255.971 129.177 255.814 129.095 255.645 129.061C255.645 129.061 255.645 128.821 255.645 128.717C255.645 128.614 255.645 128.408 255.645 128.271C255.645 127.934 255.518 127.611 255.291 127.372C255.065 127.134 254.757 127 254.437 127C254.116 127 253.809 127.134 253.583 127.372C253.356 127.611 253.229 127.934 253.229 128.271C253.229 128.271 253.229 128.477 253.229 128.271V128.546C253.179 128.83 253.179 129.121 253.229 129.404C253.229 129.817 253.229 130.229 253.229 130.675C253.229 131.122 253.229 132.358 253.229 133.217C253.229 134.076 253.229 134.866 253.229 135.69C253.267 136.01 253.267 136.333 253.229 136.652C253.105 137.1 253.029 137.561 253 138.026C253.01 138.245 253.068 138.458 253.17 138.649C253.272 138.839 253.415 139.003 253.588 139.125C253.777 139.236 253.991 139.295 254.208 139.295C254.425 139.295 254.639 139.236 254.829 139.125C255.537 138.425 255.998 137.492 256.135 136.48C256.342 135.51 256.452 134.52 256.462 133.526C256.478 133.378 256.478 133.228 256.462 133.08C256.462 133.08 256.462 132.874 256.462 132.771C256.462 132.668 256.462 132.427 256.462 132.221C256.445 131.935 256.445 131.648 256.462 131.362C256.282 131.207 256.165 130.986 256.135 130.744Z" fill="#EF3340"/>
</g>
<g class="sakura3folhas2">
<g id="Group_2">
<path id="Vector_14" d="M130.462 158.152C130.407 157.928 130.309 157.719 130.174 157.536C130.039 157.353 129.871 157.2 129.679 157.087C129.279 156.862 128.813 156.8 128.372 156.916C128.134 156.977 127.903 157.069 127.687 157.19C127.555 157.25 127.434 157.331 127.327 157.431C126.892 157.744 126.478 158.089 126.086 158.461L125.597 158.942C125.263 159.062 124.961 159.262 124.715 159.526C124.546 159.754 124.414 160.009 124.323 160.282C123.945 160.65 123.625 161.079 123.376 161.553C123.345 161.734 123.345 161.921 123.376 162.102C123.396 162.476 123.521 162.834 123.735 163.133C123.941 163.402 124.222 163.597 124.538 163.689C124.854 163.782 125.19 163.767 125.499 163.648C125.628 163.6 125.749 163.531 125.858 163.442C126.06 163.5 126.271 163.514 126.479 163.485C126.686 163.455 126.886 163.382 127.066 163.27C127.864 162.756 128.618 162.17 129.319 161.518C129.718 161.14 130.06 160.7 130.332 160.213C130.498 159.939 130.62 159.637 130.691 159.32C130.688 158.919 130.61 158.522 130.462 158.152Z" fill="#EF3340"/>
</g>
<path id="Vector_15" d="M76.3503 175.213C76.3503 173.908 76.1217 172.637 76.0891 171.366C76.075 171.002 75.9489 170.653 75.7298 170.37C75.6547 170.132 75.5103 169.924 75.317 169.776C75.1237 169.628 74.8912 169.548 74.6522 169.546C74.4394 169.551 74.2327 169.622 74.0584 169.751C73.884 169.879 73.7497 170.059 73.6724 170.267C73.5257 170.405 73.409 170.575 73.3301 170.764C73.2512 170.954 73.212 171.159 73.2153 171.366C73.2153 172.431 73.2153 173.53 73.2153 174.629C73.1838 175.167 73.1838 175.706 73.2153 176.244C73.2153 176.244 73.2153 176.416 73.2153 176.484C73.2153 176.553 73.2153 177.343 73.2153 177.755C73.2 177.823 73.2 177.894 73.2153 177.961C73.0695 178.109 72.9635 178.294 72.908 178.498C72.8525 178.702 72.8495 178.919 72.8992 179.125C72.949 179.331 73.0499 179.519 73.1914 179.671C73.333 179.822 73.5102 179.932 73.7051 179.988C73.9691 180.082 74.2435 180.139 74.5215 180.16C74.7589 180.151 74.9905 180.081 75.1957 179.955C75.4009 179.829 75.5732 179.651 75.6972 179.438C76.3223 178.134 76.5503 176.659 76.3503 175.213Z" fill="#EF3340"/>
<path id="Vector_16" d="M45.8512 232.385C45.7648 232.138 45.6209 231.917 45.4327 231.743C45.2445 231.569 45.0179 231.448 44.7736 231.389C44.3567 231.27 43.9168 231.27 43.4999 231.389C43.1627 231.497 42.835 231.635 42.5202 231.802C42.0006 232.101 41.4988 232.434 41.018 232.798C40.5934 233.107 40.2016 233.45 39.8097 233.794C38.9129 234.12 38.1134 234.689 37.4911 235.442C37.3333 235.602 37.2084 235.795 37.1242 236.007C37.0399 236.22 36.9981 236.449 37.0013 236.679C36.9856 237.069 37.1143 237.451 37.3605 237.744C37.6052 238.072 37.9515 238.3 38.3392 238.388C38.7269 238.476 39.1316 238.418 39.4831 238.225H39.8751C40.1719 238.297 40.4821 238.281 40.7707 238.178C41.0593 238.075 41.3147 237.889 41.5079 237.641C41.6976 237.37 41.8107 237.049 41.8344 236.713C43.4012 236.318 44.7737 235.327 45.6879 233.931C45.822 233.702 45.9062 233.445 45.9344 233.178C45.9626 232.91 45.9342 232.64 45.8512 232.385Z" fill="#EF3340"/>
<path id="Vector_17" d="M117.953 218.576C118.005 218.44 118.003 218.287 117.948 218.152C117.893 218.016 117.789 217.91 117.659 217.855C117.529 217.8 117.384 217.802 117.255 217.86C117.127 217.918 117.025 218.027 116.973 218.164C116.749 217.951 116.459 217.829 116.157 217.821H115.732H115.537C115.282 217.828 115.033 217.901 114.811 218.033C114.589 218.164 114.401 218.351 114.263 218.576C113.749 219.403 113.476 220.37 113.479 221.359C113.479 221.839 113.479 222.32 113.479 222.801C113.497 222.926 113.497 223.054 113.479 223.179C113.346 223.476 113.194 223.763 113.022 224.038C113.032 224.129 113.032 224.221 113.022 224.313C112.691 224.518 112.419 224.815 112.238 225.171C112.078 225.476 111.994 225.819 111.994 226.167C111.994 226.516 112.078 226.858 112.238 227.163C112.361 227.386 112.532 227.576 112.736 227.719C112.94 227.861 113.172 227.953 113.415 227.986C113.658 228.019 113.905 227.993 114.137 227.91C114.369 227.827 114.58 227.689 114.753 227.507C115.044 227.251 115.298 226.95 115.504 226.614C115.683 226.453 115.809 226.237 115.863 225.996C116.121 225.524 116.339 225.03 116.516 224.519C117.145 223.728 117.602 222.801 117.855 221.805C118.019 221.013 118.019 220.193 117.855 219.401C117.692 219.229 117.855 218.92 117.953 218.576Z" fill="#EF3340"/>
<path id="Vector_18" d="M175.439 239.544C175.296 239.196 175.04 238.913 174.718 238.743C174.396 238.574 174.027 238.529 173.676 238.617C173.144 238.781 172.62 238.975 172.109 239.2C171.798 239.283 171.492 239.386 171.194 239.51L169.823 240.128H169.594H169.137C168.243 240.414 167.387 240.818 166.59 241.33C166.176 241.339 165.783 241.515 165.49 241.823C165.198 242.13 165.03 242.544 165.022 242.979C164.993 243.149 164.993 243.324 165.022 243.494C164.988 243.807 165.057 244.122 165.218 244.387C165.366 244.631 165.568 244.834 165.807 244.977C166.046 245.121 166.315 245.201 166.59 245.212C167.86 245.183 169.104 244.83 170.214 244.181C171.17 243.716 172.098 243.189 172.99 242.601C173.265 242.406 173.48 242.131 173.611 241.811L174.721 241.261C175.003 241.098 175.227 240.841 175.356 240.53C175.486 240.22 175.515 239.874 175.439 239.544Z" fill="#EF3340"/>
<g id="Group_3">
<path id="Vector_19" d="M225.01 235.179C224.696 235 224.328 234.953 223.982 235.049C223.636 235.144 223.338 235.375 223.149 235.695L222.855 236.072L222.528 236.553L221.842 237.515L221.548 237.961C221.284 238.211 221.044 238.488 220.83 238.786C219.773 239.591 218.903 240.636 218.283 241.843C218.205 241.973 218.139 242.111 218.087 242.255C217.951 242.67 217.969 243.124 218.136 243.526C218.304 243.928 218.608 244.25 218.99 244.427C219.372 244.604 219.803 244.624 220.199 244.483C220.594 244.341 220.924 244.049 221.124 243.663L221.581 243.011C221.682 242.888 221.791 242.773 221.908 242.667C222.332 242.152 222.789 241.706 223.214 241.225C223.736 240.601 224.196 239.922 224.585 239.198C224.977 238.511 225.206 237.721 225.598 237.068C225.749 236.734 225.772 236.352 225.663 236C225.553 235.649 225.32 235.355 225.01 235.179Z" fill="#EF3340"/>
</g>
<path id="Vector_20" d="M149.44 163.674C149.236 163.315 148.905 163.055 148.519 162.952C148.134 162.849 147.725 162.911 147.383 163.125C146.632 163.674 145.913 164.19 145.129 164.705C144.801 164.757 144.481 164.861 144.182 165.014L143.333 165.598C143.024 165.804 142.696 165.976 142.353 166.113C142.158 166.227 141.994 166.39 141.874 166.588C141.754 166.786 141.683 167.013 141.668 167.247C141.321 167.386 141.038 167.659 140.874 168.009C140.71 168.359 140.679 168.762 140.786 169.136C140.875 169.461 141.058 169.748 141.309 169.957C141.561 170.167 141.869 170.288 142.19 170.304H142.843C144.711 169.738 146.402 168.659 147.742 167.178C147.938 166.975 148.064 166.709 148.101 166.422L148.885 165.838C149.226 165.623 149.474 165.278 149.578 164.874C149.681 164.471 149.632 164.04 149.44 163.674Z" fill="#EF3340"/>
</g>
<path class="sakura3-galho" id="Vector_21" d="M255.957 10.4274C245.977 12.9584 236.234 14.867 228.147 21.796C226.423 23.0189 225.003 24.6599 224.008 26.5806C223.012 28.5013 222.47 30.6455 222.427 32.8326C222.651 34.7008 223.02 36.5465 223.532 38.3509C223.676 40.6221 224.087 42.8658 224.755 45.0309C225.228 46.1927 226.017 47.5619 226.727 49.18C226.727 49.8024 226.727 50.4663 226.727 51.0886C226.591 51.5121 226.405 51.9162 226.175 52.2918C224.773 54.1332 223.141 55.7662 221.323 57.1463C218.649 56.8022 215.935 57.1733 213.433 58.2251C210.12 60.0092 210.751 62.7476 209.094 65.8179C205.998 70.5487 202.324 74.8312 198.168 78.5556C197.752 79.0602 197.471 79.6716 197.353 80.3276C197.235 80.9836 197.285 81.6607 197.497 82.2899C196.355 83.8436 195.029 85.2379 193.552 86.439C190.878 87.7808 187.877 88.2297 184.953 87.7252C181.876 87.7252 178.799 87.7252 175.762 87.7252C169.461 87.931 163.159 87.36 156.985 86.024C154.066 85.1527 152.409 82.7048 150.082 80.8377C148.26 79.3779 146.238 78.2168 144.086 77.3939C142.18 76.616 140.137 76.2766 138.096 76.3982C136.055 76.5199 134.062 77.0999 132.252 78.0992C129.441 79.6103 126.458 80.7396 123.376 81.4601C120.26 81.9995 117.262 81.2526 114.146 81.4601C112.495 81.7103 110.922 82.3619 109.553 83.363C108.184 84.3641 107.055 85.6872 106.256 87.2273C105.901 87.6837 106.611 88.1401 106.966 87.8082C109.269 85.2362 112.381 83.6294 115.724 83.2856C118.367 83.2856 120.891 83.7835 123.613 83.2856C127.554 82.1931 131.417 80.8066 135.171 79.1365C142.705 76.896 147.281 82.4143 152.37 87.0613C155.534 89.2402 159.117 90.657 162.863 91.2104C168.009 92.6642 173.312 93.4172 178.641 93.451C183.565 94.1386 188.562 93.9704 193.434 92.953C196.187 91.7273 198.456 89.5451 199.864 86.7709C199.786 87.459 199.654 88.139 199.469 88.8039C199.217 89.5934 199.007 90.3967 198.838 91.2104C197.655 92.3432 196.76 93.7696 196.235 95.3595C195.722 99.1233 195.802 102.95 196.471 106.687C196.708 111.417 196.471 116.147 196.787 120.877C197.126 122.819 197.271 124.794 197.221 126.768C196.708 129.258 194.972 129.673 193.276 129.839C193.54 129.55 193.877 129.345 194.247 129.25C194.617 129.155 195.006 129.172 195.367 129.299C195.643 129.299 195.761 128.926 195.367 128.843C194.065 128.552 194.183 128.843 193.079 129.133C191.107 129.714 189.134 129.88 186.965 130.461C182.961 131.761 179.141 133.617 175.604 135.979L174.736 136.56C172.895 137.81 171.142 139.196 169.49 140.709C168.492 141.428 167.543 142.218 166.649 143.074C165.303 144.816 163.796 146.414 162.153 147.846C158.445 150.211 152.251 149.173 148.109 148.675C143.968 148.178 139.944 146.393 135.763 145.771C131.564 145.367 127.332 145.89 123.337 147.306C119.827 148.228 116.376 149.378 113.002 150.75C109.455 153.062 106.15 155.76 103.14 158.799C99.7477 161.33 95.4873 162.243 92.5683 165.562C91.389 167.017 90.4068 168.637 89.6493 170.375C88.0162 173.448 85.2932 175.715 82.0755 176.682C78.3597 178.775 74.7993 181.161 71.4248 183.818C68.4269 185.644 64.4822 185.146 62.076 187.967C61.9713 188.077 61.9126 188.227 61.9126 188.382C61.9126 188.538 61.9713 188.687 62.076 188.797C62.1806 188.907 62.3225 188.969 62.4704 188.969C62.6184 188.969 62.7602 188.907 62.8648 188.797C65.5078 186.391 69.9652 186.889 72.9632 184.648C74.7383 183.403 76.3163 181.868 78.0914 180.499C80.3735 179.122 82.7781 177.982 85.2707 177.097C87.9345 175.94 90.0788 173.759 91.2666 170.998C94.0279 165.562 97.5386 164.11 102.312 161.372C106.059 159.214 108.465 155.397 112.134 153.074C116.662 150.762 121.465 149.102 126.414 148.136C135.92 145.73 145.269 150.626 154.894 150.874C157.144 151.047 159.404 150.78 161.561 150.086C160.515 151.846 159.604 153.691 158.839 155.604C158.11 157.9 157.868 160.336 158.129 162.741C158.142 165.323 157.877 167.898 157.34 170.417C156.591 174.566 157.064 182.864 153.198 184.441C151.462 185.271 149.451 185.81 147.636 186.557C145.822 187.304 144.165 187.345 142.469 187.884C139.037 188.963 137.814 193.237 135.447 195.685C135.053 196.1 135.644 196.681 136.078 196.307C137.248 195.07 138.257 193.675 139.076 192.158C139.757 190.849 140.749 189.748 141.956 188.963C142.784 188.548 143.297 188.756 144.086 188.548C147.764 187.077 151.533 185.871 155.368 184.939C155.489 184.932 155.605 184.884 155.698 184.802C155.79 184.719 155.855 184.607 155.881 184.482C156.985 178.424 158.642 172.491 159.391 166.351C159.303 162.87 159.595 159.389 160.259 155.978C161.34 153.171 162.758 150.522 164.48 148.095C166.965 146.062 169.213 143.24 171.58 141.207C173.209 139.494 174.993 137.951 176.906 136.602C178.987 135.627 181.137 134.823 183.335 134.195C185.328 133.257 187.369 132.44 189.45 131.747C191.515 131.417 193.595 131.209 195.682 131.125C202.428 130.004 199.903 119.673 200.022 114.528C200.022 110.379 200.022 106.23 200.022 102.081C200.022 96.3968 203.177 94.4053 206.254 90.3391C209.207 85.6757 212.504 81.264 216.116 77.145L217.615 75.7758C216.075 78.458 214.68 81.2283 213.433 84.074C212.368 87.5592 214.143 90.0072 214.656 93.368C215.303 99.5404 217.772 105.344 221.717 109.964C222.478 110.626 223.202 111.333 223.887 112.08C224.515 113.201 224.926 114.442 225.096 115.731C225.265 117.02 225.189 118.332 224.873 119.59C224.131 123.706 223.604 127.861 223.295 132.038C223.098 141.041 223.295 150.128 223.532 159.131C223.532 163.28 223.532 167.429 223.532 171.579C223.35 174.023 222.441 176.346 220.932 178.215C219.424 180.085 217.393 181.407 215.13 181.993C211.382 183.528 207.911 184.316 204.597 186.142C204.568 186.106 204.531 186.078 204.49 186.059C204.45 186.039 204.405 186.029 204.361 186.029C204.316 186.029 204.272 186.039 204.231 186.059C204.19 186.078 204.154 186.106 204.124 186.142L203.808 186.557C202.66 187.216 201.576 187.995 200.574 188.88C195.603 193.029 191.343 199.419 184.795 201.328C181.791 201.641 178.913 202.755 176.432 204.564C173.474 207.053 170.594 209.335 167.438 211.493C163.494 214.356 158.523 217.841 157.971 223.359C157.971 224.065 158.918 224.023 158.997 223.359C159.825 216.098 168.267 212.862 173.158 209.086C175.918 206.294 179.252 204.207 182.902 202.987C185.727 202.418 188.412 201.246 190.791 199.543C194.736 196.722 197.852 192.78 201.599 189.669C200.352 191.698 199.522 193.979 199.162 196.365C198.802 198.752 198.92 201.191 199.509 203.527C199.934 204.95 200.461 206.337 201.087 207.676C201.698 209.259 201.698 211.03 201.087 212.613C199.909 215.854 198.273 218.889 196.235 221.617C195.998 221.949 196.511 222.28 196.747 221.949C199.627 218.007 204.006 212.489 201.678 207.261C200.008 203.985 199.334 200.248 199.745 196.556C200.244 193.64 201.378 190.884 203.059 188.507C203.414 188.258 203.73 187.926 204.085 187.718C209.568 184.15 216.234 184.358 221.362 179.877C225.307 176.309 224.755 172.118 224.755 166.932C224.755 157.97 224.952 148.966 224.755 139.962C224.425 134.967 224.571 129.949 225.189 124.984C225.905 121.396 226.248 117.738 226.214 114.072C226.214 109.01 222.27 105.774 220.692 101.002C219.587 97.1021 219.035 93.1605 218.088 89.2603C217.634 87.9572 217.512 86.5519 217.733 85.1837C217.955 83.8155 218.512 82.5319 219.35 81.4601C220.141 80.0378 220.726 78.4996 221.086 76.896C221.954 73.1204 224.202 71.3777 225.741 68.1829C225.977 67.8925 226.254 67.6435 226.53 67.3531C229.092 64.7846 230.665 61.3136 230.948 57.6027C230.967 57.3958 230.967 57.1873 230.948 56.9803C231.712 56.1095 232.338 55.1148 232.802 54.0345C235.563 47.313 231.066 39.4297 235.839 33.289C240.612 27.1483 252.052 24.9908 258.994 22.5428C260.126 21.8022 261.001 20.6998 261.493 19.3974C261.985 18.0949 262.067 16.661 261.727 15.3059C261.388 13.9508 260.644 12.7459 259.605 11.8679C258.567 10.9899 257.288 10.4851 255.957 10.4274ZM219.035 69.1372C216.116 71.8342 212.881 74.2406 210.12 77.145L208.936 78.5556L209.568 77.4769C212.842 71.6267 218.64 67.9755 223.492 63.6189L225.307 62.0837C223.601 64.7827 221.481 67.1661 219.035 69.1372Z" fill="#000120"/>
</g>
</svg>
