<svg width="287" height="460" viewBox="0 0 287 460" fill="none" xmlns="http://www.w3.org/2000/svg" class="sakura-1">
<g id="sakura1">
<g class="sakura1folhas1">
<path id="Vector" d="M107.102 199.889C107.102 199.388 106.913 198.908 106.576 198.553C106.239 198.199 105.782 198 105.306 198C104.83 198 104.373 198.199 104.036 198.553C103.699 198.908 103.51 199.388 103.51 199.889C103.51 200.267 103.51 200.645 103.51 201.023V201.538C103.326 202.18 103.108 202.811 102.857 203.427C102.239 204.823 101.948 206.354 102.008 207.892C102.001 208.23 102.086 208.562 102.255 208.85C102.423 209.137 102.667 209.368 102.957 209.513C103.246 209.658 103.57 209.712 103.888 209.668C104.207 209.625 104.506 209.485 104.751 209.266C104.953 209.382 105.175 209.452 105.404 209.473C105.776 209.432 106.128 209.277 106.416 209.026C106.761 208.426 107.024 207.779 107.2 207.102C107.102 204.526 107.037 202.122 107.102 199.889Z" fill="#EF3340"/>
<path id="Vector_2" d="M157.269 137.835C157.269 137.114 157.269 136.427 157.269 135.706C157.269 134.263 157.269 132.82 157.269 131.412C157.31 131.037 157.275 130.657 157.166 130.298C157.057 129.938 156.878 129.606 156.639 129.325C156.4 129.043 156.107 128.818 155.78 128.664C155.452 128.51 155.097 128.43 154.739 128.43C154.38 128.43 154.025 128.51 153.697 128.664C153.37 128.818 153.077 129.043 152.838 129.325C152.599 129.606 152.42 129.938 152.311 130.298C152.202 130.657 152.167 131.037 152.208 131.412C152.208 132.065 152.208 132.717 152.208 133.37C152.208 134.023 152.208 133.954 152.044 134.229C151.721 135.495 151.557 136.799 151.554 138.11C151.554 138.35 151.554 138.591 151.554 138.831C151.554 139.072 151.554 139.106 151.554 139.312C151.209 139.811 151.023 140.413 151.023 141.03C151.023 141.647 151.209 142.248 151.554 142.747C151.716 143.078 151.969 143.351 152.28 143.529C152.591 143.707 152.946 143.782 153.299 143.745C153.651 143.708 153.985 143.56 154.256 143.321C154.527 143.082 154.724 142.762 154.82 142.404C155.367 142.385 155.895 142.185 156.328 141.834C156.762 141.483 157.08 140.997 157.237 140.446C157.392 139.584 157.403 138.701 157.269 137.835Z" fill="#EF3340"/>
<path id="Vector_3" d="M123.437 133.819C123.143 133.372 122.948 132.857 122.654 132.41L122.131 131.689L121.641 131.002C121.641 131.002 121.282 130.521 121.184 130.384C121.086 130.246 120.727 129.491 120.27 129.319C119.807 129.131 119.295 129.131 118.833 129.319C118.216 128.333 117.403 127.501 116.449 126.88C116.051 126.636 115.594 126.522 115.134 126.553C114.675 126.583 114.234 126.757 113.869 127.052C113.506 127.349 113.233 127.751 113.082 128.208C112.932 128.665 112.91 129.158 113.02 129.628C113.381 130.682 113.864 131.686 114.457 132.616C114.947 133.441 115.469 134.265 115.894 135.124V135.399V135.776L116.188 136.36C116.384 136.738 116.579 137.15 116.808 137.528C117.075 138.013 117.381 138.472 117.722 138.902C118.168 139.453 118.778 139.828 119.453 139.967C119.682 140.025 119.921 140.027 120.151 139.972C120.381 139.918 120.596 139.808 120.779 139.652C120.963 139.496 121.109 139.297 121.208 139.072C121.306 138.847 121.354 138.6 121.347 138.353H121.739C122.153 138.299 122.541 138.117 122.856 137.829C123.17 137.541 123.395 137.161 123.503 136.738C123.684 136.273 123.772 135.774 123.761 135.271C123.749 134.769 123.639 134.274 123.437 133.819Z" fill="#EF3340"/>
<path id="Vector_4" d="M100.611 64.5347C100.029 64.2025 99.4289 63.9043 98.815 63.6416C98.643 63.3485 98.4027 63.1065 98.1171 62.9382C97.8314 62.7699 97.5096 62.681 97.1822 62.6798H96.823C96.5654 62.3519 96.2561 62.0731 95.9086 61.8555C94.8155 61.2918 93.5895 61.0768 92.3817 61.2371L91.1081 60.6189C89.8911 59.9945 88.5051 59.8366 87.1893 60.1723C86.8081 60.2921 86.4674 60.5238 86.207 60.8402C85.9467 61.1566 85.7777 61.5445 85.7198 61.9585C85.6646 62.3756 85.7282 62.8005 85.9026 63.1795C86.077 63.5586 86.3542 63.8748 86.6994 64.0881C88.6749 65.2 90.8003 65.9877 93.0022 66.4239L93.4267 66.6299C95.5493 67.7291 98.9457 70.0648 101.068 67.8321C101.283 67.6016 101.444 67.3222 101.539 67.0156C101.634 66.709 101.66 66.3835 101.616 66.0644C101.571 65.7453 101.458 65.4412 101.284 65.1759C101.109 64.9105 100.879 64.6911 100.611 64.5347Z" fill="#EF3340"/>
<path id="Vector_5" d="M114.687 149.314C114.388 149.034 114.03 148.833 113.642 148.73C113.37 148.697 113.096 148.697 112.825 148.73H112.433H112.107C111.874 148.703 111.638 148.732 111.417 148.815C111.196 148.898 110.996 149.034 110.833 149.211C110.775 149.318 110.697 149.411 110.605 149.486C110.457 149.54 110.315 149.609 110.18 149.692H108.449C108.146 149.692 107.855 149.819 107.641 150.044C107.427 150.27 107.306 150.575 107.306 150.894C107.325 151.125 107.417 151.343 107.568 151.512L107.241 151.753C106.903 152.129 106.715 152.627 106.715 153.144C106.715 153.661 106.903 154.159 107.241 154.535C107.488 154.9 107.845 155.166 108.253 155.291C108.783 155.412 109.336 155.339 109.821 155.085C110.627 154.651 111.383 154.121 112.074 153.505L112.564 153.196C112.957 153.045 113.361 152.93 113.772 152.852H113.25C113.706 152.861 114.157 152.743 114.556 152.509C114.8 152.366 115.008 152.163 115.161 151.918C115.315 151.673 115.41 151.392 115.438 151.1C115.476 150.759 115.426 150.414 115.294 150.099C115.162 149.785 114.952 149.514 114.687 149.314Z" fill="#EF3340"/>
<path id="Vector_6" d="M173.5 93.1722C173.564 92.7398 173.564 92.2994 173.5 91.867C173.5 91.283 173.304 90.7678 173.206 90.1839V89.5313V89.2565C173.222 88.9476 173.222 88.6379 173.206 88.329C173.286 88.2081 173.329 88.0642 173.329 87.9169C173.329 87.7695 173.286 87.6256 173.206 87.5047C173.18 86.9215 172.942 86.371 172.541 85.9679C172.139 85.5648 171.605 85.3401 171.05 85.3407C170.476 85.3406 169.924 85.5784 169.515 86.0026C169.105 86.4268 168.871 87.0033 168.862 87.6077C168.862 88.6382 168.862 89.6343 168.862 90.6648C168.846 90.9164 168.846 91.1688 168.862 91.4205V94.0653C168.871 94.6729 169.104 95.2531 169.512 95.6828C169.921 96.1125 170.473 96.3578 171.05 96.3667C171.472 96.3417 171.879 96.1978 172.23 95.95C172.58 95.7022 172.861 95.3597 173.042 94.9584C173.354 94.6992 173.591 94.3544 173.728 93.9622V93.1722H173.5Z" fill="#EF3340"/>
<path id="Vector_7" d="M233.524 172.185C233.328 171.573 233.029 171.003 232.642 170.502L232.185 170.158C231.97 169.967 231.74 169.795 231.499 169.643C231.045 169.334 230.532 169.135 229.997 169.059L229.376 168.75C229.271 168.529 229.114 168.339 228.919 168.2C228.472 167.945 228.002 167.738 227.515 167.582C225.998 166.621 224.285 166.056 222.518 165.933C222.223 165.948 221.938 166.055 221.702 166.242C221.537 166.148 221.383 166.033 221.245 165.899C221.024 165.694 220.739 165.58 220.445 165.58C220.15 165.58 219.865 165.694 219.645 165.899C219.443 166.128 219.33 166.428 219.33 166.74C219.33 167.053 219.443 167.353 219.645 167.582C220.235 168.264 220.992 168.763 221.833 169.025C223.136 170.036 224.627 170.75 226.209 171.12L226.731 171.292H227.025C227.505 171.492 227.974 171.722 228.429 171.979C229.344 172.372 230.152 172.997 230.78 173.799C231.793 175.104 234.111 173.696 233.524 172.185Z" fill="#EF3340"/>
<path id="Vector_8" d="M176.731 186.205C176.459 185.605 176.013 185.111 175.457 184.796C174.889 184.489 174.266 184.314 173.628 184.281C173.271 184.227 172.908 184.227 172.55 184.281H172.355H171.734C171.477 184.125 171.179 184.061 170.885 184.098C170.591 184.135 170.316 184.272 170.101 184.487C169.905 184.718 169.782 185.006 169.747 185.314C169.712 185.621 169.767 185.932 169.905 186.205C170.052 186.382 170.217 186.543 170.395 186.685C170.652 186.961 170.965 187.172 171.31 187.304C171.963 188.22 172.708 189.06 173.53 189.811C173.846 190.134 174.266 190.318 174.706 190.326C175.147 190.325 175.57 190.14 175.881 189.811C176.088 189.571 176.224 189.272 176.273 188.953C176.413 188.89 176.538 188.796 176.639 188.677C176.741 188.559 176.816 188.418 176.861 188.266C177.074 187.587 177.027 186.848 176.731 186.205Z" fill="#EF3340"/>
</g>
<g class="sakura1folhas2">
<path id="Vector_9" d="M234.486 256.271C234.192 255.824 233.997 255.309 233.703 254.862L233.18 254.141L232.69 253.454C232.69 253.454 232.331 252.973 232.233 252.836C232.135 252.698 231.776 251.943 231.319 251.771C230.856 251.583 230.344 251.583 229.882 251.771C229.265 250.785 228.452 249.953 227.498 249.332C227.1 249.088 226.643 248.974 226.183 249.005C225.724 249.035 225.283 249.209 224.918 249.504C224.555 249.801 224.282 250.203 224.132 250.66C223.981 251.117 223.959 251.61 224.069 252.08C224.43 253.134 224.913 254.138 225.506 255.068C225.996 255.893 226.518 256.717 226.943 257.576V257.851V258.229L227.237 258.813C227.433 259.19 227.629 259.603 227.857 259.98C228.124 260.465 228.43 260.925 228.772 261.354C229.217 261.905 229.827 262.281 230.502 262.419C230.732 262.477 230.97 262.479 231.2 262.424C231.43 262.37 231.645 262.26 231.828 262.104C232.012 261.948 232.158 261.749 232.257 261.524C232.355 261.299 232.403 261.053 232.396 260.805H232.788C233.202 260.751 233.59 260.569 233.905 260.281C234.219 259.993 234.444 259.614 234.552 259.19C234.733 258.725 234.821 258.226 234.81 257.723C234.798 257.221 234.688 256.726 234.486 256.271Z" fill="#EF3340"/>
<path id="Vector_10" d="M181.899 305.878C181.931 305.478 181.931 305.076 181.899 304.676C181.928 304.31 181.928 303.942 181.899 303.576C181.741 303.178 181.544 302.798 181.311 302.443C181.17 302.178 180.973 301.95 180.735 301.778C180.497 301.605 180.225 301.492 179.939 301.447C179.65 301.177 179.281 301.02 178.894 301C178.608 300.995 178.326 301.072 178.078 301.223C177.831 301.375 177.627 301.595 177.49 301.859C177.384 302.091 177.296 302.332 177.229 302.58V302.958C177.229 303.233 177.229 303.508 177.229 303.783L177.425 303.302C177.139 303.861 176.993 304.487 177 305.122C177 305.122 177 305.363 177 305.5C177 306.359 177 307.217 177 308.076C177.009 308.656 177.232 309.21 177.622 309.621C178.012 310.031 178.539 310.266 179.09 310.274H179.515C180.005 310.352 180.506 310.237 180.921 309.952C181.336 309.667 181.638 309.232 181.768 308.729C181.784 308.546 181.784 308.362 181.768 308.179C181.768 307.389 181.899 306.565 181.899 305.878Z" fill="#EF3340"/>
<path id="Vector_11" d="M232.971 310.609C232.673 310.329 232.314 310.128 231.926 310.025C231.655 309.992 231.381 309.992 231.11 310.025H230.718H230.391C230.158 309.998 229.922 310.027 229.702 310.11C229.481 310.193 229.281 310.329 229.118 310.506C229.06 310.613 228.982 310.706 228.889 310.781C228.742 310.835 228.6 310.904 228.465 310.987H226.734C226.431 310.987 226.14 311.114 225.926 311.339C225.711 311.564 225.591 311.87 225.591 312.189C225.609 312.42 225.701 312.638 225.852 312.807L225.526 313.048C225.188 313.424 225 313.922 225 314.439C225 314.956 225.188 315.454 225.526 315.83C225.773 316.194 226.129 316.461 226.538 316.586C227.068 316.706 227.62 316.634 228.106 316.38C228.912 315.946 229.668 315.416 230.359 314.8L230.849 314.491C231.241 314.34 231.646 314.225 232.057 314.147H231.534C231.991 314.156 232.442 314.038 232.841 313.804C233.085 313.661 233.292 313.458 233.446 313.213C233.599 312.968 233.694 312.687 233.722 312.395C233.76 312.054 233.711 311.709 233.578 311.394C233.446 311.08 233.237 310.809 232.971 310.609Z" fill="#EF3340"/>
<path id="Vector_12" d="M133.198 339.756C132.972 339.451 132.666 339.223 132.317 339.1C131.968 338.978 131.593 338.967 131.238 339.069C130.623 339.244 130.038 339.522 129.507 339.893C128.861 340.335 128.239 340.817 127.646 341.336C127.091 341.783 126.601 342.229 126.111 342.71C125.621 343.191 125.393 343.534 125.001 343.912C124.698 344.117 124.45 344.401 124.282 344.737C124.047 345.179 123.955 345.689 124.02 346.191C124.085 346.693 124.303 347.159 124.642 347.519C124.913 347.785 125.236 347.984 125.589 348.103C125.867 348.184 126.159 348.205 126.445 348.163C126.731 348.122 127.007 348.02 127.254 347.862L127.711 347.519L128.103 347.175C128.259 347.027 128.391 346.853 128.495 346.66C128.936 346.616 129.362 346.463 129.736 346.214C130.307 345.877 130.816 345.435 131.238 344.908C132.008 343.963 132.717 342.964 133.361 341.92C133.536 341.581 133.613 341.197 133.584 340.813C133.555 340.429 133.421 340.062 133.198 339.756Z" fill="#EF3340"/>
<path id="Vector_13" d="M216.859 348.294L216.467 347.778C216.445 347.712 216.445 347.639 216.467 347.572V347.401C216.467 347.16 216.467 347.401 216.467 347.401C216.513 347.081 216.455 346.754 216.304 346.473C216.121 346.168 215.844 345.938 215.52 345.82C215.285 345.752 215.037 345.752 214.802 345.82C214.634 345.341 214.366 344.906 214.018 344.549C213.664 344.22 213.216 344.027 212.744 344C212.362 344.012 211.995 344.157 211.699 344.412C211.494 344.588 211.327 344.807 211.209 345.056C211.09 345.304 211.024 345.577 211.013 345.855C211.013 345.855 211.013 345.855 211.013 346.027C210.998 346.106 210.998 346.188 211.013 346.267C210.996 346.392 210.996 346.52 211.013 346.645C211.054 346.777 211.109 346.903 211.177 347.023C211.569 348.019 211.895 349.049 212.385 350.011C212.658 350.558 213.01 351.056 213.43 351.488C213.732 351.748 214.048 351.989 214.377 352.209L214.606 352.484C214.792 352.677 215.02 352.822 215.269 352.905C215.519 352.989 215.784 353.009 216.043 352.965C216.302 352.93 216.551 352.835 216.771 352.687C216.992 352.538 217.178 352.34 217.316 352.106C217.649 351.506 217.784 350.808 217.702 350.118C217.619 349.429 217.323 348.788 216.859 348.294Z" fill="#EF3340"/>
<g id="Group">
<path id="Vector_14" d="M169.191 214.023C169.055 213.349 168.824 212.701 168.505 212.099C168.321 211.774 168.113 211.464 167.885 211.172C167.885 210.622 167.689 210.038 167.623 209.523V209.97C167.603 209.585 167.502 209.21 167.33 208.871L167.558 209.386C167.545 209.26 167.545 209.133 167.558 209.008C167.461 208.569 167.226 208.178 166.891 207.898C166.556 207.618 166.141 207.466 165.713 207.466C165.285 207.466 164.87 207.618 164.535 207.898C164.2 208.178 163.965 208.569 163.868 209.008C163.852 209.145 163.852 209.283 163.868 209.42C163.868 209.42 163.868 209.695 163.868 209.832V209.42C163.493 209.703 163.209 210.098 163.052 210.554C162.857 211.342 162.857 212.17 163.052 212.958C163.102 213.203 163.167 213.444 163.247 213.679C163.368 214.104 163.544 214.508 163.77 214.882C164.215 215.602 164.792 216.221 165.468 216.702C165.7 217.089 165.999 217.427 166.35 217.698C166.642 217.858 166.967 217.941 167.297 217.941C167.626 217.941 167.951 217.858 168.244 217.698C168.549 217.587 168.823 217.396 169.04 217.144C169.257 216.892 169.41 216.586 169.485 216.256C169.516 215.499 169.416 214.742 169.191 214.023Z" fill="#EF3340"/>
</g>
<path id="Vector_15" d="M124.102 295.889C124.102 295.388 123.913 294.908 123.576 294.553C123.239 294.199 122.782 294 122.306 294C121.83 294 121.373 294.199 121.036 294.553C120.699 294.908 120.51 295.388 120.51 295.889C120.51 296.267 120.51 296.645 120.51 297.023V297.538C120.326 298.18 120.108 298.811 119.857 299.427C119.239 300.823 118.948 302.354 119.008 303.892C119.001 304.23 119.086 304.562 119.255 304.85C119.423 305.137 119.667 305.368 119.957 305.513C120.246 305.658 120.57 305.712 120.888 305.668C121.207 305.625 121.506 305.485 121.751 305.266C121.953 305.382 122.175 305.452 122.404 305.473C122.776 305.432 123.128 305.277 123.416 305.026C123.761 304.426 124.024 303.779 124.2 303.102C124.102 300.526 124.037 298.122 124.102 295.889Z" fill="#EF3340"/>
<path id="Vector_16" d="M108.681 255.923C108.456 255.618 108.149 255.39 107.8 255.268C107.452 255.145 107.077 255.135 106.722 255.236C106.106 255.411 105.522 255.69 104.991 256.061C104.344 256.503 103.723 256.984 103.13 257.503C102.575 257.95 102.085 258.396 101.595 258.877C101.105 259.358 100.876 259.702 100.484 260.079C100.181 260.285 99.934 260.568 99.7661 260.904C99.5311 261.346 99.4391 261.856 99.5038 262.358C99.5686 262.86 99.7867 263.326 100.125 263.686C100.396 263.952 100.72 264.151 101.072 264.27C101.351 264.351 101.642 264.372 101.929 264.331C102.215 264.289 102.49 264.187 102.738 264.03L103.195 263.686L103.587 263.343C103.743 263.194 103.875 263.02 103.979 262.827C104.42 262.784 104.845 262.631 105.22 262.381C105.791 262.044 106.3 261.602 106.722 261.076C107.491 260.13 108.201 259.132 108.845 258.087C109.019 257.749 109.097 257.364 109.068 256.98C109.039 256.596 108.905 256.229 108.681 255.923Z" fill="#EF3340"/>
<path id="Vector_17" d="M147.474 261.966L147.082 261.451C147.06 261.384 147.06 261.311 147.082 261.245V261.073C147.082 260.832 147.082 261.073 147.082 261.073C147.128 260.753 147.07 260.427 146.919 260.145C146.736 259.84 146.459 259.61 146.135 259.493C145.9 259.424 145.652 259.424 145.417 259.493C145.249 259.013 144.981 258.579 144.633 258.222C144.279 257.893 143.831 257.699 143.359 257.672C142.977 257.685 142.61 257.83 142.314 258.085C142.109 258.26 141.942 258.479 141.823 258.728C141.705 258.977 141.639 259.249 141.628 259.527C141.628 259.527 141.628 259.527 141.628 259.699C141.613 259.778 141.613 259.86 141.628 259.939C141.611 260.065 141.611 260.192 141.628 260.317C141.669 260.449 141.724 260.576 141.792 260.695C142.184 261.691 142.51 262.722 143 263.683C143.273 264.23 143.625 264.729 144.045 265.16C144.347 265.42 144.663 265.661 144.992 265.882L145.221 266.156C145.407 266.35 145.635 266.494 145.884 266.578C146.134 266.661 146.399 266.682 146.658 266.637C146.917 266.603 147.166 266.508 147.386 266.359C147.607 266.21 147.793 266.012 147.931 265.779C148.264 265.179 148.399 264.48 148.317 263.791C148.234 263.102 147.938 262.46 147.474 261.966Z" fill="#EF3340"/>
</g>
<path class="sakura1-galho" id="Vector_18" d="M0.030899 5.49215C0.106995 4.57669 0.38147 3.69173 0.833252 2.90517C1.28503 2.11862 1.90213 1.45138 2.63718 0.954645C3.37222 0.457914 4.20566 0.144908 5.07359 0.0396222C5.94153 -0.0656632 6.82086 0.0395472 7.64412 0.347247C10.2286 1.66757 12.3336 3.8379 13.6401 6.52943C14.2317 7.23739 14.7599 8.00131 15.218 8.81145C16.719 11.9667 18.3916 15.0282 20.2277 17.9809C22.2 20.8023 24.1723 23.6237 26.1052 26.5696C26.8152 27.1505 27.486 27.7728 28.196 28.2707C32.1407 31.0921 33.9946 35.0753 37.5842 38.0626C40.789 40.353 43.6368 43.1524 46.0259 46.3608C51.4063 48.0399 56.4011 50.8644 60.7001 54.659C63.2738 57.1257 66.5734 58.5901 70.049 58.8081C72.8194 58.8488 75.5852 59.0566 78.3329 59.4305C82.7509 59.7209 87.0111 56.4846 91.0741 54.8664C93.9073 53.5468 96.8041 52.3834 99.7525 51.3812C102.478 50.9319 105.243 50.7928 107.997 50.9663C111.389 50.9663 114.111 49.1407 117.385 48.8502C122.158 48.4768 125.551 52.4184 129.219 54.9909C131.823 56.775 134.86 57.2729 137.464 59.14C139.945 61.442 142.672 63.4331 145.59 65.0732C146.063 65.0732 145.905 66.1935 145.353 66.069C141.053 65.1977 138.371 60.7167 134.387 58.9326C132.144 58.1053 129.989 57.0345 127.957 55.7378C125.739 53.7151 123.237 52.0637 120.541 50.8418C117.793 50.2987 114.951 50.7216 112.454 52.0451C109.681 52.5905 106.872 52.9096 104.052 52.9993C97.4646 53.9121 90.7586 58.3102 84.8416 61.2975C79.9896 63.787 75.0193 62.9157 69.9307 64.2434C67.8416 64.6165 65.7003 64.5053 63.6562 63.9177C61.6122 63.33 59.7149 62.2801 58.0966 60.8411C54.6648 58.5176 51.7852 55.8622 48.3928 53.8291C48.7413 56.9077 48.6748 60.0226 48.1954 63.0817C46.9849 68.7121 47.7704 74.6138 50.4045 79.6781C53.2052 85.2794 55.6509 91.0881 58.57 96.6064C59.8957 98.779 61.3724 100.845 62.988 102.789C64.05 104.763 64.7461 106.931 65.0393 109.178C65.0393 109.884 65.4732 110.63 65.7099 111.336C67.1829 113.855 68.4119 116.524 69.3784 119.302L69.6152 120.049C70.2489 120.92 71.0889 121.6 72.0511 122.022C73.0133 122.445 74.064 122.594 75.0982 122.455C82.9324 122.286 90.7251 123.695 98.0563 126.604C98.6086 126.314 99.2002 126.065 99.7525 125.733C106.65 122.291 114.136 120.344 121.764 120.007C129.14 119.136 132.217 122.663 136.162 128.803C136.647 129.924 137.347 130.926 138.217 131.749C139.088 132.573 140.11 133.198 141.22 133.588C142.331 133.977 143.505 134.121 144.671 134.012C145.837 133.903 146.969 133.542 147.996 132.953C151.418 131.841 154.954 131.159 158.528 130.919C158.654 130.955 158.766 131.033 158.846 131.141C158.925 131.25 158.968 131.384 158.968 131.521C158.968 131.658 158.925 131.792 158.846 131.901C158.766 132.009 158.654 132.088 158.528 132.123C155.24 132.988 152.021 134.125 148.903 135.525C146.852 136.757 144.556 137.467 142.197 137.599C137.503 137.351 134.742 133.45 132.375 129.301C131.57 127.508 130.279 126.004 128.666 124.978C127.052 123.953 125.186 123.45 123.302 123.534C119.93 123.889 116.584 124.471 113.283 125.277C109.706 125.614 106.196 126.509 102.869 127.932L102.395 128.223L105.591 129.384C109.48 130.252 113.037 132.317 115.807 135.317C116.647 136.622 117.361 138.012 117.938 139.467C119.427 142.171 121.334 144.597 123.578 146.645C127.326 150.794 127.286 156.602 133.046 158.843C138.805 161.083 144.88 158.843 150.521 158.428C155.865 157.894 161.253 158.131 166.536 159.133C169.236 160.079 171.871 161.216 174.425 162.536C176.634 163.448 179.001 163.158 181.25 163.863C184.445 164.859 187.324 166.311 190.677 167.017C193.029 167.385 195.308 168.156 197.423 169.299C202.257 171.891 206.796 175.05 210.953 178.717C206.994 175.694 202.782 173.056 198.37 170.834C193.478 167.929 187.561 167.722 182.315 165.772C179.948 164.859 177.621 165.067 175.214 164.403C173.253 163.62 171.331 162.734 169.455 161.747C163.406 159.932 157.059 159.493 150.836 160.461C142.947 160.876 132.927 164.859 126.813 157.308C125.736 155.823 124.884 154.171 124.288 152.412C122.886 149.823 121.009 147.552 118.766 145.732C115.689 142.703 113.835 137.973 110.009 136.064C105.358 134.063 100.519 132.589 95.5711 131.666H95.3345C89.1832 133.573 82.759 134.318 76.3605 133.865C74.5456 133.962 72.7402 133.533 71.1407 132.626C69.5411 131.719 68.2084 130.368 67.2877 128.72C67.2877 129.177 67.5245 129.55 67.6033 130.007C68.7868 136.521 67.6033 146.105 72.0214 151.25C73.9228 153.257 75.6521 155.437 77.1889 157.764C78.9695 160.467 81.4083 162.617 84.2499 163.988C88.4618 166.731 91.7675 170.773 93.7171 175.564C93.7646 175.688 93.7696 175.827 93.7311 175.955C93.6926 176.083 93.6131 176.193 93.5061 176.266C93.3991 176.34 93.2713 176.372 93.1444 176.357C93.0174 176.343 92.8992 176.282 92.8098 176.186C91.0178 173.581 89.0678 171.1 86.9718 168.759C84.9406 166.92 82.6689 165.397 80.2263 164.237C78.0732 162.78 76.2976 160.784 75.0587 158.428C73.402 155.69 70.9168 153.864 69.26 151.209C66.0648 146.064 66.6567 138.471 65.9072 132.579C65.1577 126.687 61.9624 121.46 60.6607 115.983C59.3234 114.146 57.6628 112.596 55.7693 111.419C52.8502 109.676 50.2467 107.477 47.3671 105.651C45.1925 104.448 43.4278 102.563 42.3179 100.258C39.9511 94.7393 42.3179 89.221 42.3179 83.6612C42.356 83.1918 42.356 82.7199 42.3179 82.2505C41.9913 82.5746 41.5914 82.8058 41.1562 82.9223C40.721 83.0388 40.2649 83.0368 39.8307 82.9163C39.3965 82.7959 38.9986 82.5611 38.6745 82.2341C38.3505 81.9071 38.111 81.4987 37.9787 81.0473C36.8348 77.811 37.3871 74.4917 36.0854 71.4214C34.7184 68.1149 32.9978 64.9829 30.9572 62.0859C26.5796 55.6284 22.9138 48.6686 20.0305 41.3404C16.4026 34.1526 12.3309 27.2226 7.84142 20.5949C6.76909 17.9986 5.22845 15.6456 3.30493 13.6659C2.17351 12.6817 1.28497 11.4245 0.71492 10.0014C0.144867 8.57821 -0.089798 7.03123 0.030899 5.49215ZM86.8139 129.592H87.7213C83.955 128.39 80.0081 127.939 76.0844 128.264C75.1771 128.264 74.3487 128.513 73.5992 128.554C77.1889 130.795 83.461 130.09 86.8139 129.592ZM53.5997 101.046C53.2446 100.507 52.929 99.9672 52.6135 99.4278C50.365 95.5276 48.4716 91.42 46.4204 87.3954C46.4856 89.4443 46.7098 91.4841 47.0909 93.4946C48.156 97.6022 50.8384 99.1373 53.797 101.046H53.5997ZM41.0556 56.0282C41.0017 54.4872 40.6192 52.9788 39.9364 51.6142C39.2536 50.2497 38.288 49.0641 37.1109 48.1449C36.4403 47.896 36.2431 47.564 36.2825 48.4768C37.8999 51.1737 39.4778 53.4972 41.2529 56.0282H41.0556Z" fill="#000120"/>
</g>
</svg>
