<svg width="340" height="480" viewBox="0 0 340 480" fill="none" xmlns="http://www.w3.org/2000/svg" class="sakura-2">
<g id="sakura">
<g id="Group 43">
<g class="sakura2folhas1">
<path id="Vector" d="M159.204 104.232C159.088 103.932 158.896 103.671 158.649 103.476L157.147 102.412L156.233 101.759C156.018 101.43 155.766 101.13 155.482 100.866C155.255 100.631 154.95 100.499 154.632 100.499C154.315 100.499 154.01 100.631 153.783 100.866C153.677 101.014 153.59 101.176 153.522 101.347C153.331 101.396 153.152 101.49 153 101.622C152.809 101.82 152.673 102.069 152.608 102.343C152.461 102.729 152.461 103.159 152.608 103.545L152.869 103.854C153.181 104.239 153.544 104.575 153.947 104.85L154.6 105.16L154.828 105.331C155.441 105.762 156.085 106.141 156.755 106.465C157.149 106.674 157.598 106.734 158.029 106.637C158.126 106.654 158.225 106.654 158.323 106.637C158.586 106.629 158.84 106.535 159.051 106.369C159.261 106.203 159.418 105.973 159.498 105.709C159.601 105.461 159.628 105.186 159.575 104.921C159.522 104.657 159.393 104.416 159.204 104.232Z" fill="#EF3340"/>
<path id="Vector_2" d="M155.252 143.669C151.739 143.262 148.217 144.337 145.455 146.657C145.24 146.889 145.102 147.189 145.06 147.51C145.019 147.832 145.077 148.159 145.227 148.443C145.378 148.733 145.62 148.96 145.911 149.085C146.202 149.21 146.526 149.226 146.827 149.13H147.154L147.839 148.821C148.372 148.855 148.907 148.855 149.439 148.821C149.962 148.748 150.476 148.621 150.974 148.443L151.856 148.065L152.477 147.756C152.702 147.719 152.922 147.65 153.13 147.55C153.347 147.423 153.51 147.215 153.587 146.966H155.089C155.462 146.966 155.819 146.811 156.082 146.534C156.345 146.257 156.493 145.881 156.493 145.489C156.531 145.283 156.528 145.072 156.485 144.867C156.442 144.662 156.36 144.469 156.244 144.299C156.128 144.129 155.98 143.985 155.81 143.877C155.639 143.768 155.45 143.697 155.252 143.669Z" fill="#EF3340"/>
<path id="Vector_3" d="M249.738 147.975C249.628 147.738 249.456 147.537 249.242 147.398C249.028 147.258 248.781 147.184 248.53 147.185C248.53 147.185 248.726 147.185 248.53 147.185H248.203L247.485 146.945H247.158L246.44 146.533L244.84 145.64L244.121 145.227L243.533 144.953C243.533 144.953 243.076 144.781 243.337 144.953C243.165 144.921 242.988 144.921 242.815 144.953L241.803 144.128C241.644 144.04 241.466 143.996 241.287 144C241.107 144.005 240.932 144.058 240.778 144.155C240.624 144.251 240.496 144.388 240.406 144.552C240.317 144.716 240.269 144.901 240.268 145.09C240.056 144.936 239.815 144.832 239.561 144.784C239.308 144.737 239.048 144.748 238.798 144.815C237.329 145.124 237.198 146.739 237.165 148.01C237.133 149.281 237.165 151.445 237.002 152.99C236.984 153.397 237.087 153.799 237.296 154.141C237.506 154.483 237.811 154.748 238.17 154.899C238.529 155.05 238.924 155.08 239.3 154.984C239.676 154.888 240.014 154.672 240.268 154.364C240.492 154.101 240.689 153.813 240.855 153.505C241.039 153.28 241.163 153.008 241.215 152.715C241.422 152.06 241.542 151.378 241.574 150.689C241.574 149.761 241.574 148.834 241.574 147.872C241.365 147.642 241.212 147.364 241.127 147.059C241.042 146.754 241.027 146.432 241.084 146.12L241.705 146.773C241.801 147.067 241.999 147.313 242.26 147.46L242.75 147.838C242.861 147.972 242.981 148.099 243.109 148.216C244.074 149.17 245.293 149.793 246.603 150.002C246.722 150.022 246.843 150.022 246.962 150.002C247.322 150.002 247.648 150.174 248.007 150.208C248.329 150.264 248.659 150.248 248.975 150.159C249.29 150.07 249.584 149.911 249.836 149.693C249.953 149.582 250.045 149.445 250.105 149.292C250.164 149.139 250.19 148.974 250.181 148.809C250.172 148.644 250.127 148.483 250.05 148.339C249.973 148.195 249.867 148.07 249.738 147.975Z" fill="#EF3340"/>
<path id="Vector_4" d="M272.883 80.3426C271.772 80.1021 270.662 79.7243 269.617 79.4152C268.974 79.2284 268.319 79.0906 267.658 79.0029H266.776C266.469 78.9847 266.163 79.0512 265.888 79.1958C265.613 79.3404 265.379 79.5581 265.208 79.8273C265.171 79.9968 265.171 80.1731 265.208 80.3426C264.871 80.3926 264.562 80.57 264.34 80.8418C264.117 81.1135 263.997 81.4611 264 81.8196C264.008 82.2268 264.166 82.6148 264.44 82.9028C264.713 83.1908 265.083 83.3565 265.47 83.3653C266.678 83.3653 267.886 83.3653 269.094 83.3653H272.687C273.053 83.3686 273.409 83.2307 273.685 82.9776C273.962 82.7245 274.141 82.3737 274.189 81.9913C274.209 81.594 274.085 81.2035 273.843 80.8979C273.601 80.5922 273.258 80.3939 272.883 80.3426Z" fill="#EF3340"/>
<path id="Vector_5" d="M199.989 168.627C200.128 168.449 200.203 168.226 200.203 167.996C200.203 167.766 200.128 167.543 199.989 167.365C199.851 167.187 199.658 167.065 199.444 167.02C199.23 166.974 199.007 167.008 198.814 167.115H198.618H198.291C197.929 167.051 197.557 167.132 197.249 167.342C196.941 167.552 196.718 167.875 196.626 168.249C196.626 168.249 196.626 168.524 196.626 168.661C196.577 169.037 196.577 169.419 196.626 169.795C196.626 170.173 196.626 170.55 196.626 170.894C196.364 172.027 195.548 173.092 196.332 174.329C196.455 174.531 196.618 174.703 196.809 174.833C197.001 174.963 197.217 175.049 197.442 175.084C197.66 175.113 197.881 175.091 198.09 175.019C198.298 174.948 198.49 174.83 198.65 174.672C198.764 174.587 198.864 174.483 198.944 174.363C199.134 174.237 199.292 174.066 199.406 173.863C199.519 173.659 199.585 173.431 199.597 173.195V172.749C199.76 172.295 199.869 171.822 199.924 171.34C199.989 170.655 199.989 169.965 199.924 169.279V168.97L199.989 168.627Z" fill="#EF3340"/>
<path id="Vector_6" d="M302.132 163.342C302.132 163.342 302.29 163.242 302.132 163.342V163.342Z" fill="#EF3340"/>
<path id="Vector_7" d="M304.383 160.115C303.683 159.962 302.96 159.962 302.26 160.115L301.607 160.39C301.276 160.199 300.895 160.122 300.52 160.171C300.144 160.221 299.794 160.393 299.517 160.665L299.223 160.871L298.537 161.283H298.374H298.178L297.394 161.558C297.035 161.661 296.712 161.874 296.467 162.17C296.222 162.465 296.065 162.83 296.016 163.219C295.967 163.608 296.029 164.003 296.193 164.355C296.356 164.707 296.615 165.001 296.937 165.199C297.384 165.426 297.89 165.486 298.374 165.371C298.515 165.39 298.658 165.39 298.799 165.371L299.19 165.199C299.662 165.11 300.115 164.935 300.529 164.684C300.945 164.44 301.311 164.113 301.607 163.722L302.162 163.275L302.881 162.726L303.24 162.52H303.403L304.285 162.245C304.503 162.19 304.697 162.057 304.834 161.87C304.971 161.682 305.042 161.451 305.036 161.214C305.057 160.981 305.005 160.747 304.887 160.548C304.769 160.35 304.592 160.197 304.383 160.115Z" fill="#EF3340"/>
<path id="Vector_8" d="M206.678 91.641C206.8 91.3185 206.849 90.9704 206.82 90.6246C206.792 90.2788 206.688 89.9447 206.515 89.6488C206.365 89.4362 206.146 89.2879 205.9 89.2311C205.654 89.1743 205.397 89.2128 205.176 89.3397C204.958 89.3387 204.744 89.398 204.556 89.5114C204.444 89.3982 204.324 89.2949 204.196 89.2023C203.915 89.0338 203.588 88.9678 203.267 89.0147C202.946 89.0616 202.649 89.2187 202.422 89.4616C202.195 89.7045 202.05 90.0196 202.011 90.3578C201.972 90.6961 202.039 91.0385 202.204 91.3319L202.466 91.7441C202.455 91.8238 202.455 91.9048 202.466 91.9845V92.1906V92.3967C202.455 92.5339 202.455 92.6717 202.466 92.8089C202.451 92.9573 202.451 93.107 202.466 93.2554C202.431 94.2341 202.564 95.2114 202.857 96.1407C202.947 96.3334 203.069 96.5079 203.217 96.656C203.216 97.5467 203.314 98.4344 203.511 99.3009C203.616 99.7213 203.747 100.134 203.902 100.537C204.119 101.072 204.483 101.527 204.947 101.843C205.601 102.392 206.45 101.637 206.482 100.915C206.548 100.448 206.548 99.9738 206.482 99.507C206.448 99.1988 206.448 98.8876 206.482 98.5795C206.433 97.7445 206.433 96.9071 206.482 96.0721C206.501 95.9584 206.501 95.8422 206.482 95.7286V95.5568C206.781 94.276 206.847 92.9477 206.678 91.641Z" fill="#EF3340"/>
<path id="Vector_9" d="M241.388 108.879C241.254 108.444 241.02 108.05 240.707 107.732C240.393 107.415 240.01 107.183 239.592 107.059C239.173 106.97 238.741 106.982 238.328 107.095C237.915 107.208 237.532 107.419 237.208 107.711C236.335 108.389 235.612 109.256 235.085 110.253C234.857 110.665 234.693 111.077 234.497 111.489L234.073 112.52V112.829C233.976 113.177 233.976 113.546 234.073 113.894C234.192 114.315 234.431 114.687 234.759 114.959C235.092 115.241 235.506 115.398 235.934 115.405C236.451 115.398 236.944 115.175 237.306 114.787C237.498 114.558 237.663 114.304 237.796 114.031L237.992 113.653L238.775 113.07C239.073 112.967 239.358 112.829 239.624 112.657C239.99 112.436 240.33 112.171 240.637 111.867C240.961 111.56 241.236 111.201 241.453 110.803C241.641 110.172 241.618 109.493 241.388 108.879Z" fill="#EF3340"/>
<path id="Vector_10" d="M263.665 224.362C263.296 224.125 262.873 224 262.441 224C262.009 224 261.585 224.125 261.216 224.362C261.006 224.515 260.809 224.687 260.628 224.877C260.302 224.861 259.977 224.938 259.689 225.102C259.401 225.265 259.161 225.508 258.995 225.805C258.603 226.423 258.212 227.041 257.852 227.659C257.493 228.278 257.493 228.553 257.297 229.033C257.202 229.219 257.125 229.415 257.069 229.617C257.055 229.743 257.055 229.87 257.069 229.995C257.004 230.234 256.985 230.484 257.012 230.731C257.039 230.978 257.113 231.217 257.228 231.434C257.343 231.651 257.498 231.842 257.684 231.996C257.869 232.15 258.082 232.264 258.309 232.331C258.573 232.402 258.849 232.408 259.115 232.349C259.382 232.289 259.631 232.165 259.844 231.987C259.844 231.987 260.073 231.987 260.171 231.987C260.444 231.774 260.695 231.532 260.922 231.266C261.065 231.076 261.186 230.868 261.281 230.648C261.494 230.214 261.679 229.767 261.836 229.308C262.098 228.621 262.294 227.969 262.522 227.282C262.557 227.1 262.557 226.913 262.522 226.732L262.751 226.492H262.947C263.215 226.592 263.511 226.576 263.768 226.447C264.025 226.318 264.223 226.087 264.318 225.805C264.414 225.522 264.398 225.212 264.276 224.941C264.153 224.67 263.934 224.462 263.665 224.362Z" fill="#EF3340"/>
</g>
<g class="sakura2folhas2">
<path id="Vector_11" d="M141.649 323.832C141.714 323.399 141.714 322.959 141.649 322.526C141.649 321.942 141.453 321.427 141.355 320.843V320.191V319.916C141.371 319.607 141.371 319.297 141.355 318.988C141.435 318.867 141.478 318.724 141.478 318.576C141.478 318.429 141.435 318.285 141.355 318.164C141.33 317.581 141.092 317.03 140.69 316.627C140.289 316.224 139.755 315.999 139.2 316C138.625 316 138.074 316.238 137.664 316.662C137.255 317.086 137.02 317.663 137.012 318.267C137.012 319.298 137.012 320.294 137.012 321.324C136.996 321.576 136.996 321.828 137.012 322.08V324.725C137.02 325.332 137.254 325.912 137.662 326.342C138.071 326.772 138.622 327.017 139.2 327.026C139.622 327.001 140.029 326.857 140.38 326.609C140.73 326.362 141.011 326.019 141.192 325.618C141.503 325.358 141.741 325.014 141.878 324.622V323.832H141.649Z" fill="#EF3340"/>
<path id="Vector_12" d="M131.912 266.545C132.127 266.163 132.19 265.705 132.086 265.274C131.982 264.843 131.72 264.473 131.357 264.244H130.965L130.083 264.038C129.605 264.002 129.125 264.002 128.646 264.038C128.19 263.987 127.73 263.987 127.275 264.038H126.85C126.569 264.034 126.291 264.097 126.037 264.221C125.782 264.346 125.558 264.53 125.38 264.759C125.212 265.003 125.1 265.286 125.054 265.584C124.978 265.927 124.982 266.285 125.068 266.627C125.153 266.968 125.317 267.282 125.544 267.542C125.913 267.909 126.345 268.201 126.817 268.4C127.461 269.061 128.161 269.659 128.907 270.186C129.227 270.373 129.587 270.471 129.952 270.471C130.318 270.471 130.678 270.373 130.997 270.186C131.311 269.992 131.572 269.716 131.755 269.386C131.938 269.055 132.037 268.68 132.042 268.297C132.039 267.852 131.961 267.41 131.814 266.992L131.912 266.545Z" fill="#EF3340"/>
<path id="Vector_13" d="M154.944 214.664C154.848 214.407 154.772 214.143 154.715 213.874C154.797 213.501 154.797 213.113 154.715 212.74C154.715 212.122 154.454 211.538 154.356 210.954C154.118 209.591 153.642 208.287 152.951 207.107C152.717 206.684 152.356 206.354 151.925 206.168C151.494 205.981 151.017 205.949 150.568 206.076C150.124 206.22 149.734 206.506 149.453 206.894C149.172 207.282 149.014 207.753 149 208.24C149 209.752 149 211.298 149 212.843C149.016 213.412 149.238 213.952 149.621 214.354C150.003 214.756 150.517 214.99 151.057 215.007L151.678 214.835L151.939 215.11C152.138 215.422 152.357 215.721 152.592 216.003C152.795 216.227 153.066 216.369 153.357 216.407C153.649 216.444 153.944 216.374 154.192 216.209C154.468 216.082 154.693 215.859 154.829 215.577C154.966 215.296 155.007 214.973 154.944 214.664Z" fill="#EF3340"/>
<path id="Vector_14" d="M210.05 238.237C210.035 237.843 209.904 237.464 209.676 237.151C209.448 236.837 209.134 236.605 208.777 236.486L207.699 236.245C207.17 236.143 206.636 236.074 206.099 236.039C205.177 235.975 204.25 236.068 203.356 236.314C202.937 236.455 202.572 236.732 202.311 237.104C202.061 237.071 201.809 237.071 201.56 237.104C201.097 237.248 200.705 237.576 200.467 238.018C200.23 238.46 200.165 238.982 200.286 239.474C200.381 239.79 200.551 240.076 200.779 240.304C201.008 240.532 201.287 240.696 201.592 240.779L202.67 241.02H202.18C202.814 241.116 203.438 241.277 204.042 241.501C204.628 241.921 205.265 242.256 205.936 242.497C206.36 242.609 206.807 242.576 207.212 242.403C207.617 242.231 207.959 241.926 208.189 241.535C208.357 241.274 208.478 240.983 208.548 240.676C208.941 240.65 209.311 240.47 209.583 240.171C209.855 239.872 210.01 239.476 210.018 239.062C210.081 238.792 210.093 238.512 210.05 238.237Z" fill="#EF3340"/>
<path id="Vector_15" d="M220.245 212.03C220.785 211.533 221.16 210.897 221.326 210.201L221.319 209.973L221.645 209.375L222.467 208.109L223.189 206.977C223.479 206.808 223.71 206.563 223.856 206.272C224.432 205.226 225.092 204.223 225.83 203.273C226.124 202.774 226.419 202.276 226.678 201.745C227.086 200.916 227.191 199.982 226.978 199.09C226.978 199.09 226.972 198.894 226.762 198.77C226.884 198.251 226.805 197.708 226.541 197.241C226.278 196.773 225.846 196.411 225.325 196.221C224.804 196.031 224.228 196.025 223.701 196.204C223.175 196.383 222.733 196.736 222.455 197.198C221.237 199.176 220.228 201.263 219.443 203.428L219.454 203.82L219.227 204.284C218.999 204.716 218.771 205.147 218.508 205.547C218.004 206.32 217.546 207.118 217.135 207.94C216.488 209.298 215.858 211.244 217.262 212.248C217.699 212.569 218.245 212.725 218.796 212.684C219.347 212.644 219.864 212.411 220.245 212.03Z" fill="#EF3340"/>
<path id="Vector_16" d="M95.7103 241.771C95.7962 241.76 95.8773 241.723 95.9443 241.666C96.0113 241.608 96.0614 241.532 96.0887 241.445C96.1161 241.359 96.1196 241.266 96.0988 241.178C96.0781 241.09 96.034 241.009 95.9715 240.946C96.0024 240.707 96.0024 240.464 95.9715 240.225C95.9553 239.58 95.7749 238.951 95.449 238.404C95.3938 238.295 95.3147 238.2 95.2183 238.129C95.1218 238.057 95.0107 238.01 94.8939 237.992C94.8853 237.461 94.6785 236.954 94.3181 236.581C93.9577 236.209 93.4725 236 92.9671 236C92.4642 236.009 91.9837 236.22 91.6251 236.591C91.2664 236.962 91.0571 237.464 91.0404 237.992C91.0404 239.95 91.0404 241.908 91.0404 243.866C91.0404 244.828 91.0404 245.789 91.0404 246.751C90.9085 247.928 91.1012 249.121 91.5955 250.186C91.7485 250.442 91.9605 250.652 92.2118 250.798C92.4631 250.944 92.7454 251.02 93.0324 251.02C93.3194 251.02 93.6018 250.944 93.8531 250.798C94.1043 250.652 94.3163 250.442 94.4693 250.186C94.9488 249.227 95.1423 248.137 95.0245 247.06C95.2665 246.894 95.4632 246.663 95.5949 246.392C95.7266 246.121 95.7888 245.819 95.7755 245.515C95.7755 244.793 95.7756 244.106 95.5796 243.385C95.3837 242.664 95.5796 242.664 95.5796 242.286C95.5796 241.908 95.5796 242.286 95.5796 242.286C95.5984 242.108 95.6425 241.934 95.7103 241.771Z" fill="#EF3340"/>
<g id="Group">
<path id="Vector_17" d="M189.286 339.557C189.15 338.883 188.919 338.235 188.6 337.633C188.415 337.309 188.208 336.999 187.979 336.706C187.979 336.156 187.783 335.573 187.718 335.057V335.504C187.697 335.119 187.597 334.744 187.424 334.405L187.653 334.92C187.639 334.794 187.639 334.668 187.653 334.542C187.556 334.104 187.321 333.712 186.986 333.432C186.651 333.152 186.236 333 185.808 333C185.38 333 184.964 333.152 184.629 333.432C184.294 333.712 184.059 334.104 183.963 334.542C183.947 334.679 183.947 334.817 183.963 334.954C183.963 334.954 183.963 335.229 183.963 335.366V334.954C183.588 335.237 183.304 335.632 183.146 336.088C182.951 336.876 182.951 337.704 183.146 338.492C183.196 338.737 183.262 338.978 183.342 339.214C183.463 339.638 183.638 340.042 183.865 340.416C184.309 341.136 184.887 341.755 185.563 342.236C185.795 342.624 186.094 342.962 186.445 343.232C186.737 343.392 187.062 343.475 187.392 343.475C187.721 343.475 188.046 343.392 188.339 343.232C188.644 343.121 188.918 342.93 189.134 342.678C189.351 342.426 189.504 342.12 189.58 341.79C189.61 341.033 189.511 340.276 189.286 339.557Z" fill="#EF3340"/>
</g>
<path id="Vector_18" d="M204.994 299.117C204.723 298.517 204.277 298.024 203.721 297.708C203.153 297.401 202.529 297.226 201.892 297.193C201.534 297.139 201.172 297.139 200.814 297.193H200.618H199.998C199.741 297.037 199.443 296.973 199.149 297.01C198.854 297.047 198.579 297.184 198.365 297.399C198.169 297.63 198.045 297.918 198.01 298.226C197.975 298.533 198.031 298.844 198.169 299.117C198.316 299.294 198.48 299.455 198.659 299.598C198.916 299.873 199.228 300.084 199.573 300.216C200.227 301.132 200.971 301.973 201.794 302.723C202.109 303.046 202.53 303.23 202.97 303.239C203.411 303.237 203.834 303.052 204.145 302.723C204.352 302.483 204.488 302.185 204.537 301.865C204.676 301.802 204.801 301.708 204.903 301.589C205.004 301.471 205.08 301.33 205.125 301.178C205.338 300.499 205.291 299.76 204.994 299.117Z" fill="#EF3340"/>
<path id="Vector_19" d="M166.433 256.767C166.374 255.746 166.107 254.751 165.65 253.848C165.665 253.63 165.665 253.412 165.65 253.195C165.65 253.195 165.65 253.195 165.65 253.023C165.552 252.136 165.332 251.268 164.996 250.447C164.574 249.342 163.915 248.354 163.07 247.562C162.998 247.435 162.897 247.328 162.776 247.253C162.494 247.085 162.176 246.998 161.853 247C161.529 247.002 161.212 247.092 160.932 247.262C160.652 247.432 160.418 247.675 160.255 247.969C160.092 248.262 160.004 248.596 160 248.936C160.239 250.858 160.745 252.733 161.502 254.5C161.825 255.369 162.196 256.218 162.613 257.042C162.613 257.248 162.613 257.454 162.874 257.626V258.107C162.874 258.107 162.874 258.485 162.874 258.553C162.869 258.812 162.914 259.068 163.006 259.308C163.098 259.548 163.235 259.765 163.409 259.948C163.583 260.131 163.79 260.275 164.018 260.372C164.246 260.468 164.49 260.516 164.735 260.511C165.226 260.502 165.695 260.293 166.042 259.928C166.389 259.563 166.588 259.07 166.597 258.553C166.592 257.954 166.537 257.356 166.433 256.767Z" fill="#EF3340"/>
<path id="Vector_20" d="M118.815 165.446C118.881 165.164 118.881 164.869 118.815 164.587C118.737 164.143 118.594 163.714 118.39 163.317C118.12 162.103 117.478 161.016 116.561 160.225C116.305 159.796 115.973 159.422 115.582 159.126C115.361 159.009 115.11 158.972 114.867 159.022C114.625 159.071 114.405 159.205 114.243 159.401C114.086 159.598 114 159.848 114 160.105C114 160.362 114.086 160.611 114.243 160.809V161.015C114.243 161.015 114.243 161.015 114.243 161.221C114.243 161.427 114.243 161.427 114.243 161.53V161.84C114.243 161.565 114.243 161.633 114.243 161.84C114.215 163.045 114.509 164.235 115.092 165.274C115.296 165.632 115.566 165.944 115.885 166.192C116.205 166.439 116.568 166.618 116.953 166.717L117.378 166.889H117.606L118.455 167.37C118.555 167.426 118.668 167.45 118.781 167.44C118.893 167.431 119.001 167.387 119.091 167.314C119.18 167.242 119.248 167.144 119.286 167.032C119.324 166.92 119.33 166.799 119.304 166.683C119.227 166.238 119.06 165.817 118.815 165.446Z" fill="#EF3340"/>
<path id="Vector_21" d="M264.023 272.851C264.442 272.42 264.707 271.85 264.774 271.237C264.765 270.905 264.634 270.591 264.408 270.36C264.183 270.129 263.88 270 263.565 270C262.847 270 262.161 270.687 261.671 271.168L260.626 272.301C260.3 272.679 259.94 273.091 259.581 273.435C259.222 273.778 258.83 274.191 258.438 274.568C258.156 274.912 258 275.351 258 275.805C258 276.259 258.156 276.698 258.438 277.042C258.695 277.415 259.074 277.675 259.503 277.77C259.932 277.865 260.379 277.789 260.757 277.557L262.161 276.595C262.526 276.347 262.866 276.059 263.173 275.736L263.663 275.084C263.848 274.789 263.939 274.44 263.925 274.088C263.94 273.962 263.94 273.835 263.925 273.71V273.366C264.08 273.09 264.254 272.825 264.447 272.576L264.023 272.851Z" fill="#EF3340"/>
<path id="Vector_22" d="M300.793 198.661C300.745 198.532 300.67 198.415 300.574 198.32C300.478 198.225 300.363 198.154 300.237 198.112C300.156 197.914 300.033 197.738 299.878 197.597C299.631 197.367 299.342 197.192 299.029 197.081C298.779 197.003 298.516 196.981 298.257 197.016C297.998 197.052 297.75 197.144 297.527 197.287C296.637 197.776 295.967 198.616 295.666 199.623C295.47 200.104 295.339 200.585 295.176 201.066C294.881 201.25 294.644 201.52 294.494 201.843C294.343 202.167 294.285 202.529 294.327 202.886C294.134 203.318 294.023 203.784 294 204.26V204.81C294.059 205.069 294.183 205.306 294.359 205.497C294.613 205.854 294.967 206.118 295.372 206.253C295.791 206.357 296.231 206.32 296.629 206.148C297.028 205.975 297.364 205.675 297.592 205.291L297.952 204.741C297.966 204.604 297.966 204.466 297.952 204.329C298.213 203.967 298.453 203.589 298.67 203.195C299.027 202.488 299.333 201.753 299.584 200.997C299.747 200.58 299.944 200.177 300.172 199.795H300.368C300.548 199.682 300.687 199.51 300.764 199.304C300.841 199.099 300.851 198.873 300.793 198.661Z" fill="#EF3340"/>
<g id="Group_2">
<path id="Vector_23" d="M97.086 188.35C96.8933 188.203 96.6688 188.109 96.4328 188.075C96.1244 187.975 95.7942 187.975 95.4858 188.075C94.7678 188.464 94.1596 189.044 93.7223 189.758C93.432 190.125 93.17 190.516 92.9386 190.926H92.5794C92.3503 190.963 92.1319 191.054 91.9399 191.19C91.7479 191.327 91.5871 191.507 91.4691 191.716C91.3793 191.893 91.3028 192.077 91.2405 192.266C91.0137 192.744 90.9448 193.288 91.0445 193.812C91.1245 194.169 91.245 194.515 91.4037 194.842C91.5367 195.084 91.7207 195.29 91.9416 195.445C92.1624 195.6 92.4142 195.699 92.6774 195.735C92.9123 195.851 93.1687 195.912 93.4284 195.912C93.6881 195.912 93.9446 195.851 94.1795 195.735C94.2462 195.635 94.3229 195.543 94.4082 195.46C95.2661 194.843 95.9715 194.018 96.4655 193.056C96.9796 192.124 97.4166 191.147 97.7718 190.136C97.8542 189.868 97.8542 189.58 97.7718 189.312C97.732 189.108 97.6499 188.916 97.5313 188.75C97.4127 188.584 97.2607 188.447 97.086 188.35Z" fill="#EF3340"/>
</g>
<path id="Vector_24" d="M100.172 300.239C99.8655 299.142 99.278 298.156 98.4736 297.388C98.3057 297.223 98.101 297.105 97.8784 297.045C97.6559 296.985 97.4226 296.985 97.2 297.044C96.9827 297.111 96.785 297.233 96.6251 297.401C96.4652 297.57 96.3484 297.778 96.2856 298.006C96.1484 298.511 96.0609 299.029 96.0244 299.552C95.9919 300.135 95.9919 300.72 96.0244 301.304C95.9929 301.692 95.9929 302.083 96.0244 302.472C96.0941 302.821 96.2153 303.157 96.3835 303.468C96.4862 303.834 96.6961 304.158 96.9833 304.392C97.2705 304.626 97.6205 304.76 97.9838 304.773C98.1643 304.775 98.3413 304.72 98.4924 304.616C98.6434 304.512 98.7619 304.364 98.8328 304.189C99.1224 304.197 99.4037 304.086 99.6166 303.88C100 303.375 100.253 302.774 100.35 302.136C100.447 301.498 100.386 300.845 100.172 300.239Z" fill="#EF3340"/>
</g>
<path class="sakura2-galho" id="Vector_25" d="M339.922 5.49215C339.846 4.57669 339.572 3.69173 339.12 2.90517C338.668 2.11862 338.051 1.45138 337.316 0.954645C336.581 0.457914 335.747 0.144908 334.88 0.0396222C334.012 -0.0656632 333.132 0.0395472 332.309 0.347247C329.725 1.66757 327.62 3.8379 326.313 6.52943C325.721 7.23739 325.193 8.00131 324.735 8.81145C323.234 11.9667 321.561 15.0282 319.725 17.9809C317.753 20.8023 315.781 23.6237 313.848 26.5696C313.138 27.1505 312.467 27.7728 311.757 28.2707C307.812 31.0921 305.959 35.0753 302.369 38.0626C299.164 40.353 296.316 43.1524 293.927 46.3608C288.547 48.0399 283.552 50.8644 279.253 54.659C276.679 57.1257 273.38 58.5901 269.904 58.8081C267.134 58.8488 264.368 59.0566 261.62 59.4305C257.202 59.7209 252.942 56.4846 248.879 54.8664C246.046 53.5468 243.149 52.3834 240.201 51.3812C237.475 50.9319 234.711 50.7928 231.956 50.9663C228.564 50.9663 225.842 49.1407 222.568 48.8502C217.795 48.4768 214.402 52.4184 210.734 54.9909C208.13 56.775 205.093 57.2729 202.489 59.14C200.008 61.442 197.281 63.4331 194.363 65.0732C193.89 65.0732 194.048 66.1935 194.6 66.069C198.9 65.1977 201.582 60.7167 205.566 58.9326C207.809 58.1053 209.964 57.0345 211.996 55.7378C214.215 53.7151 216.716 52.0637 219.412 50.8418C222.16 50.2987 225.002 50.7216 227.499 52.0451C230.272 52.5905 233.081 52.9096 235.901 52.9993C242.489 53.9121 249.195 58.3102 255.112 61.2975C259.964 63.787 264.934 62.9157 270.022 64.2434C272.112 64.6165 274.253 64.5053 276.297 63.9177C278.341 63.33 280.238 62.2801 281.856 60.8411C285.288 58.5176 288.168 55.8622 291.56 53.8291C291.212 56.9077 291.278 60.0226 291.758 63.0817C292.968 68.7121 292.183 74.6138 289.549 79.6781C286.748 85.2794 284.302 91.0881 281.383 96.6064C280.057 98.779 278.581 100.845 276.965 102.789C275.903 104.763 275.207 106.931 274.914 109.178C274.914 109.884 274.48 110.63 274.243 111.336C272.77 113.855 271.541 116.524 270.575 119.302L270.338 120.049C269.704 120.92 268.864 121.6 267.902 122.022C266.94 122.445 265.889 122.594 264.855 122.455C257.021 122.286 249.228 123.695 241.897 126.604C241.345 126.314 240.753 126.065 240.201 125.733C233.303 122.291 225.817 120.344 218.189 120.007C210.813 119.136 207.736 122.663 203.791 128.803C203.306 129.924 202.606 130.926 201.736 131.749C200.865 132.573 199.843 133.198 198.733 133.588C197.623 133.977 196.448 134.121 195.282 134.012C194.116 133.903 192.984 133.542 191.957 132.953C188.535 131.841 185 131.159 181.425 130.919C181.299 130.955 181.187 131.033 181.107 131.141C181.028 131.25 180.985 131.384 180.985 131.521C180.985 131.658 181.028 131.792 181.107 131.901C181.187 132.009 181.299 132.088 181.425 132.123C184.714 132.988 187.932 134.125 191.05 135.525C193.101 136.757 195.397 137.467 197.756 137.599C202.45 137.351 205.211 133.45 207.578 129.301C208.383 127.508 209.674 126.004 211.287 124.978C212.901 123.953 214.767 123.45 216.651 123.534C220.023 123.889 223.369 124.471 226.67 125.277C230.248 125.614 233.757 126.509 237.084 127.932L237.558 128.223L234.362 129.384C230.473 130.252 226.916 132.317 224.146 135.317C223.306 136.622 222.592 138.012 222.016 139.467C220.526 142.171 218.62 144.597 216.375 146.645C212.627 150.794 212.667 156.602 206.907 158.843C201.148 161.083 195.073 158.843 189.433 158.428C184.089 157.894 178.7 158.131 173.417 159.133C170.717 160.079 168.082 161.216 165.528 162.536C163.319 163.448 160.952 163.158 158.703 163.863C155.508 164.859 152.629 166.311 149.276 167.017C146.924 167.385 144.645 168.156 142.53 169.299C137.696 171.891 133.157 175.05 129 178.717C132.959 175.694 137.171 173.056 141.584 170.834C146.475 167.929 152.392 167.722 157.638 165.772C160.005 164.859 162.333 165.067 164.739 164.403C166.7 163.62 168.622 162.734 170.498 161.747C176.547 159.932 182.894 159.493 189.117 160.461C197.006 160.876 207.026 164.859 213.14 157.308C214.217 155.823 215.069 154.171 215.665 152.412C217.067 149.823 218.944 147.552 221.187 145.732C224.264 142.703 226.118 137.973 229.944 136.064C234.595 134.063 239.435 132.589 244.382 131.666H244.619C250.77 133.573 257.194 134.318 263.593 133.865C265.408 133.962 267.213 133.533 268.812 132.626C270.412 131.719 271.745 130.368 272.665 128.72C272.665 129.177 272.429 129.55 272.35 130.007C271.166 136.521 272.35 146.105 267.932 151.25C266.03 153.257 264.301 155.437 262.764 157.764C260.984 160.467 258.545 162.617 255.703 163.988C251.491 166.731 248.186 170.773 246.236 175.564C246.188 175.688 246.184 175.827 246.222 175.955C246.26 176.083 246.34 176.193 246.447 176.266C246.554 176.34 246.682 176.372 246.809 176.357C246.936 176.343 247.054 176.282 247.143 176.186C248.935 173.581 250.885 171.1 252.981 168.759C255.013 166.92 257.284 165.397 259.727 164.237C261.88 162.78 263.656 160.784 264.894 158.428C266.551 155.69 269.036 153.864 270.693 151.209C273.888 146.064 273.296 138.471 274.046 132.579C274.795 126.687 277.991 121.46 279.292 115.983C280.63 114.146 282.29 112.596 284.184 111.419C287.103 109.676 289.706 107.477 292.586 105.651C294.761 104.448 296.525 102.563 297.635 100.258C300.002 94.7393 297.635 89.221 297.635 83.6612C297.597 83.1918 297.597 82.7199 297.635 82.2505C297.962 82.5746 298.362 82.8058 298.797 82.9223C299.232 83.0388 299.688 83.0368 300.122 82.9163C300.557 82.7959 300.955 82.5611 301.279 82.2341C301.603 81.9071 301.842 81.4987 301.974 81.0473C303.118 77.811 302.566 74.4917 303.868 71.4214C305.235 68.1149 306.955 64.9829 308.996 62.0859C313.374 55.6284 317.039 48.6686 319.923 41.3404C323.551 34.1526 327.622 27.2226 332.112 20.5949C333.184 17.9986 334.725 15.6456 336.648 13.6659C337.78 12.6817 338.668 11.4245 339.238 10.0014C339.808 8.57821 340.043 7.03123 339.922 5.49215ZM253.139 129.592H252.232C255.998 128.39 259.945 127.939 263.869 128.264C264.776 128.264 265.604 128.513 266.354 128.554C262.764 130.795 256.492 130.09 253.139 129.592ZM286.353 101.046C286.708 100.507 287.024 99.9672 287.34 99.4278C289.588 95.5276 291.481 91.42 293.533 87.3954C293.467 89.4443 293.243 91.4841 292.862 93.4946C291.797 97.6022 289.115 99.1373 286.156 101.046H286.353ZM298.898 56.0282C298.951 54.4872 299.334 52.9788 300.017 51.6142C300.7 50.2497 301.665 49.0641 302.842 48.1449C303.513 47.896 303.71 47.564 303.671 48.4768C302.053 51.1737 300.475 53.4972 298.7 56.0282H298.898Z" fill="#000120"/>
</g>
</g>
</svg>
